<svg xmlns="http://www.w3.org/2000/svg" width="1301.301" height="1385.319" viewBox="0 0 1301.301 1385.319"><g transform="matrix(0.996, 0.087, -0.087, 0.996, 104.104, -8.243)" opacity="0.1"><path d="M106.879,226.764l29.3-12.678,29.984-12.92,30.372-13.055,30.486-13.075,30.363-13.01,30.027-12.855,29.5-12.635,28.8-12.346,27.956-12,26.963-11.6,25.849-11.145L451.1,78.794,474.38,68.676l21.837-9.543,20.3-8.933,18.669-8.285,16.934-7.6,15.112-6.882,13.187-6.125,11.161-5.327,9.03-4.491,6.775-3.606,4.408-2.68,1.9-1.7.762.8,2.9,2.246,5.056,3.227,7.124,4.164L638.645,19l11.013,5.928,12.837,6.757,14.587,7.555,16.257,8.315L711.19,56.6l19.361,9.735L751.337,76.73l22.118,11.006L796.8,99.31l24.469,12.1,25.459,12.561,26.315,12.965,27.012,13.3,27.536,13.552L955.449,177.5l27.96,13.79,27.8,13.738s18.346,9.09,27.357,13.565c0-.744,0-1.1,0-1.791-9.012-4.5-27.36-13.655-27.36-13.655l-27.8-13.839-27.958-13.886L927.594,161.6l-27.536-13.653-27.015-13.4L846.728,121.5l-25.459-12.649L796.8,96.667,773.455,85.016,751.34,73.936,730.553,63.479,711.19,53.687l-17.85-9.1-16.257-8.353-14.587-7.588-12.837-6.775-11.017-5.939-9.108-5.06-7.124-4.148-5.058-3.2-2.9-2.21-.762-.775-1.9,1.652L607.384,4.84l-6.775,3.588-9.03,4.478-11.161,5.334-13.187,6.136L552.12,31.283l-16.934,7.635-18.669,8.326-20.3,8.985-21.837,9.6L451.1,76.015,426.476,86.744,400.627,97.965l-26.963,11.681-27.956,12.086-28.8,12.436-29.5,12.727-30.027,12.956-30.363,13.1L196.531,186.13l-30.372,13.14-29.984,13.014-29.3,12.765L78.608,237.425s-18.193,8-26.869,11.844v1.569c8.675-3.817,26.869-11.773,26.869-11.773Z" transform="translate(42.836 -0.539)" fill="#101631"/><path d="M102.1,229.821l29.161-12.452,30-12.75,30.533-12.931,30.788-13.007L253.362,165.7l30.551-12.88,30.1-12.691,29.473-12.436,28.659-12.111,27.691-11.726,26.575-11.291,25.32-10.8,23.935-10.258,22.434-9.675,20.811-9.05L538,44.4l17.241-7.671L570.53,29.8l13.232-6.132,11.069-5.309,8.79-4.431,6.4-3.519L613.9,7.854,615.148,6.4l1.291,1.629,3.568,2.624,5.726,3.572L633.5,18.69l9.7,5.32,11.53,6.123,13.259,6.887,14.89,7.609,16.425,8.285,17.862,8.924,19.2,9.52L756.816,81.43,778.4,92.008l22.611,11.044,23.532,11.461,24.325,11.817,25,12.127,25.522,12.371,25.9,12.55,26.111,12.66,26.14,12.694,25.972,12.635,25.589,12.485,24.962,12.23,24.072,11.864,22.891,11.365,2.293,1.145v-1.874l-5.224-2.627-23.944-11.952-25.156-12.467L1022.946,208.7l-26.636-13.084L969.341,182.4,942.28,169.163,915.337,156l-26.622-13-26.127-12.768-25.47-12.458-24.664-12.086L788.732,94.027,766.076,82.86,744.6,72.228,724.427,62.186l-18.781-9.413L688.363,44.03l-15.7-8.023-14.011-7.266-12.232-6.47-10.361-5.632-8.4-4.756-6.333-3.832-4.171-2.869-1.9-1.858-.778.616L611.28,6.2l-5.724,3.232-8.1,4.155-10.358,5.027-12.485,5.852L560.115,31.1l-16.387,7.364-18.171,8.057-19.838,8.709-21.394,9.314L461.486,74.42l-24.164,10.4L411.948,95.7,385.492,107l-27.4,11.683-28.213,12-28.868,12.272L271.65,155.436l-29.67,12.611-29.789,12.674L182.5,193.372l-29.368,12.541-28.78,12.337L96.439,230.272,69.705,241.856s-12.864,5.61-19.083,8.332v1.844c7.611-3.317,23.5-10.19,23.5-10.19Z" transform="translate(41.45 2.919)" fill="#101631"/><path d="M1013.5,213.755,1038.889,226l24.534,11.9,23.372,11.441s14.872,7.335,21.867,10.825c0-.861,0-1.275.007-2.086-7-3.51-21.867-10.9-21.867-10.9l-23.375-11.519-24.533-12-25.385-12.337-25.959-12.566L961.27,186.081l-26.38-12.7-26.277-12.635-25.995-12.494-25.544-12.286L832.126,123.96l-24.218-11.678L784.54,100.991l-22.4-10.86L740.812,79.745,720.65,69.877l-18.9-9.31-17.546-8.72L668.1,43.762l-14.581-7.42-12.969-6.714-11.268-5.975-9.476-5.2-7.586-4.375-5.6-3.514-3.5-2.609-1.289-1.649-1.174,1.416-3.738,2.517-6.188,3.44L582.2,18,571.439,23.17l-12.9,5.973L543.6,35.889l-16.876,7.483-18.718,8.185-20.468,8.85-22.111,9.482L441.775,79.96,416.683,90.585l-26.4,11.132-27.588,11.6-28.635,12-29.527,12.358-30.248,12.649L243.5,163.191,212.4,176.2l-31.185,13.068-31.008,13.021-30.535,12.875-29.742,12.6s-19.287,8.211-28.576,12.192v2.181c9.289-3.949,28.576-12.093,28.576-12.093l29.742-12.5,30.535-12.768,31.008-12.913L212.4,178.9,243.5,166l30.779-12.759L304.531,140.7l29.527-12.25,28.635-11.9,27.588-11.5,26.4-11.04,25.092-10.54,23.657-10,22.111-9.41,20.468-8.79,18.718-8.131L543.6,39.7l14.935-6.712,12.9-5.952L582.2,21.882l8.53-4.325,6.188-3.454,3.738-2.544,1.174-1.45,1.289,1.69,3.5,2.629,5.6,3.528L619.8,22.33l9.476,5.184,11.268,5.952,12.969,6.685L668.1,47.529l16.109,8.034,17.546,8.66,18.9,9.242,20.159,9.8,21.331,10.3,22.4,10.773,23.363,11.2,24.22,11.58,24.948,11.9,25.544,12.18,25.992,12.389,26.277,12.53,26.38,12.6,26.282,12.577Z" transform="translate(54.77 6.621)" fill="#101631"/><path d="M267.439,89.287l30.887-12.83L326.112,64.8l24.643-10.477,21.486-9.305,18.319-8.122L405.7,29.942l11.954-5.775,8.72-4.592,5.423-3.4,2.019-2.158,1.3,1.717,4.207,3.147,6.974,4.3,9.63,5.41,12.21,6.493,14.726,7.564,17.216,8.613,19.675,9.668,22.111,10.715L566.4,83.408,593.289,96.2l29.19,13.8,31.38,14.762s21.954,10.3,33.4,15.665c0-1.385,0-2.062,0-3.382-11.448-5.412-33.4-15.811-33.4-15.811l-31.378-14.9L593.291,92.418,566.4,79.518,541.873,67.664l-22.111-10.8-19.675-9.738-17.216-8.673-14.726-7.6-12.21-6.517-9.63-5.424-6.974-4.292-4.207-3.129-1.3-1.683L431.8,11.93l-5.423,3.375-8.72,4.592L405.7,25.686,390.56,32.669l-18.319,8.171-21.486,9.368L326.112,60.764l-27.785,11.75-30.887,12.94-33.915,14.1s-24.076,9.966-36.813,15.219v3.577c12.736-5.206,36.813-15.085,36.813-15.085Z" transform="translate(222.765 10.967)" fill="#101631"/><path d="M889.178,199.706c0-1.286,0-1.916,0-3.144-10.094-4.706-30.284-14.092-30.284-14.092L828.827,168.5l-29.581-13.718L770.4,141.4l-27.918-12.965-26.815-12.485L690.092,104l-24.217-11.36L643.123,81.906l-21.2-10.081-19.565-9.39L584.5,53.757l-16.08-7.934-14.229-7.16-12.3-6.367-10.3-5.538-8.211-4.679L517.356,18.3l-3.722-2.839-1.291-1.851-1.423,1.818-4.238,2.851-6.943,3.812L490.2,26.83l-12.05,5.645-14.478,6.515-16.826,7.364-19.1,8.187-21.3,8.987L383.015,73.3,357.558,83.806,330.167,95.03l-29.208,11.9-30.9,12.53-32.413,13.108-33.738,13.608-34.825,14.041s-23.653,9.536-35.632,14.37v3.335c11.979-4.785,35.632-14.229,35.632-14.229l34.825-13.9,33.738-13.478,32.413-12.981,30.9-12.409,29.208-11.786,27.391-11.123L383.015,77.6l23.422-9.679,21.3-8.915,19.1-8.126,16.826-7.313,14.478-6.477,12.05-5.618,9.543-4.731,6.943-3.814,4.238-2.864,1.423-1.844,1.291,1.878,3.722,2.855,6.017,3.781,8.211,4.664,10.3,5.513,12.3,6.329,14.229,7.118,16.08,7.873,17.859,8.606,19.565,9.314,21.2,9.991L665.875,96.78l24.215,11.257,25.576,11.833,26.815,12.366L770.4,145.078l28.845,13.252,29.578,13.588,30.074,13.828S879.081,195.044,889.178,199.706Z" transform="translate(144.255 15.684)" fill="#101631"/><path d="M304.645,60.544,330.14,49.76l20.329-8.944,15.379-7.2L376.426,28.1l5.843-3.873,1.416-1.17,3.245,3.1,7.163,4.637L405.04,36.94l14.7,7.642,18.521,9.191,22.461,10.8L487.276,77.07l30.788,14.254s22.7,10.408,35.132,16.071c0-1.788,0-2.665,0-4.388-12.438-5.724-35.132-16.232-35.132-16.232L487.276,72.386l-26.553-12.6L438.263,48.89l-18.521-9.26-14.7-7.687-10.948-6.165-7.163-4.637-3.245-3.082-1.416,1.156-5.843,3.861-10.578,5.529-15.379,7.232L330.14,44.845,304.645,55.714,273.754,68.547s-23.379,9.57-36.5,14.879V88c13.117-5.26,36.5-14.742,36.5-14.742Z" transform="translate(273.086 21.205)" fill="#101631"/><path d="M251.583,109.755l-35.109,13.684s-24.574,9.543-37.393,14.509v4.341c12.819-4.91,37.393-14.348,37.393-14.348l35.109-13.534,32.628-12.656,30-11.741,27.283-10.8,24.486-9.832,21.645-8.861,18.756-7.882,15.833-6.889,12.864-5.89,9.836-4.881,6.732-3.844,3.53-2.788.822-.271,2.714,2.62,5.446,3.655L472.206,39l10.538,5.6,12.949,6.528,15.3,7.438,17.588,8.33L548.41,76.1,570.443,86.18l24.179,10.93,26.253,11.766,28.245,12.566,30.1,13.33,31.8,14.036S733,158.49,744.313,163.47c0-1.679,0-2.5,0-4.126C733,154.308,711.03,144.519,711.03,144.519l-31.8-14.191-30.1-13.476-28.243-12.7L594.624,92.263,570.447,81.219,548.41,71.035l-19.834-9.3-17.588-8.4-15.3-7.5-12.949-6.578-10.538-5.632-8.043-4.662-5.446-3.66L456,22.694l-.822.269-3.53,2.775-6.732,3.855-9.836,4.9-12.864,5.928-15.833,6.941-18.756,7.949-21.645,8.942L341.5,74.184l-27.283,10.91-30,11.864Z" transform="translate(200.883 26.958)" fill="#101631"/><path d="M526.421,91.039,497.806,78.152,472.914,66.738l-21.244-9.977-17.662-8.583-14.119-7.219-10.573-5.867-6.959-4.5-3.187-3.095-1.336,1.094L392.3,32.335l-10.038,5.231-14.525,6.726-19.065,8.25-23.713,9.823L296.471,73.809,263.1,86.937s-24.717,9.6-38.312,14.838v5.081c13.595-5.172,38.312-14.668,38.312-14.668L296.471,79.2l28.485-11.329,23.713-9.726,19.065-8.18,14.525-6.679L392.3,38.079l5.538-3.752,1.336-1.1,3.187,3.106,6.961,4.489,10.571,5.831,14.119,7.167,17.662,8.505,21.239,9.883,24.894,11.3,28.615,12.745,32.371,14.229s23.456,10.228,36.1,15.715c0-1.981,0-2.954,0-4.872-12.644-5.549-36.1-15.9-36.1-15.9Z" transform="translate(257.612 32.915)" fill="#101631"/><path d="M167.334,158.594c13.557-4.942,39.589-14.446,39.589-14.446L244.175,130.5l34.7-12.781,32.014-11.887,29.238-10.977,26.4-10.051,23.541-9.128,20.645-8.2L428.44,60.2l14.742-6.336,11.687-5.388,8.527-4.411L468.6,40.68l1.694-2.167,1.766,2.414L477,44.478l8.03,4.67,11.082,5.78,14.112,6.9,17.145,8.016,20.179,9.144,23.22,10.284L597,100.694l29.217,12.552s20.934,8.926,32.1,13.657c0-2.107,0-3.147,0-5.2-11.165-4.789-32.1-13.825-32.1-13.825l-29.217-12.7L570.766,83.622l-23.218-10.4-20.181-9.242-17.142-8.1L496.11,48.92l-11.082-5.827L477,38.4l-4.935-3.559L470.3,32.43,468.6,34.59l-5.206,3.4-8.527,4.431-11.687,5.43L428.44,54.241l-17.718,7.346-20.645,8.292-23.541,9.229-26.4,10.172-29.238,11.1-32.014,12.039-34.7,12.942-37.252,13.812s-26.033,9.626-39.589,14.632Z" transform="translate(186.303 39.041)" fill="#101631"/><path d="M543.229,104.107,514.1,91.642,488.46,80.481,466.284,70.6l-18.754-8.622-15.37-7.4L420.178,48.4l-8.543-4.96-4.984-3.711-1.372-1.656-3.088,2.952-7.47,4.289-11.775,5.625-16.076,6.968-20.43,8.339L321.58,76,292.195,87.2,258.224,99.887s-24.955,9.207-38.57,14.184v5.609c13.615-4.91,38.57-14,38.57-14l33.971-12.523L321.58,82.093l24.861-9.637,20.43-8.254,16.076-6.9,11.775-5.58,7.47-4.267,3.088-2.954,1.372,1.661,4.984,3.7,8.543,4.924,11.981,6.127,15.372,7.319,18.754,8.53,22.176,9.76,25.634,11.026,29.132,12.31,32.631,13.606s23.482,9.724,36.057,14.9c0-2.178,0-3.256.007-5.379-12.577-5.246-36.062-15.1-36.062-15.1Z" transform="translate(251.238 46.05)" fill="#101631"/><path d="M828.757,195.781c0-1.977,0-2.958,0-4.89-10.724-4.339-31.925-12.9-31.925-12.9l-31.214-12.6-30.237-12.207-29.043-11.755-27.671-11.246L652.516,119.5l-24.525-10.1-22.8-9.487L584.2,91.065l-19.114-8.182-17.169-7.508-15.157-6.809-13.075-6.091-10.925-5.356-8.682-4.592-6.342-3.8-3.886-2.976-1.293-2.033-1.62,2.169-4.63,3.05-7.519,3.9-10.311,4.72-13.016,5.522-15.643,6.3-18.2,7.073-20.7,7.83-23.131,8.563L348.3,102.132l-27.747,9.98-29.905,10.657-31.934,11.293-33.8,11.885-35.452,12.423s-24.363,8.523-36.842,12.886v5.139l36.842-12.7,35.452-12.248,33.8-11.714,31.934-11.134,29.905-10.506,27.747-9.847,25.482-9.159,23.131-8.451,20.7-7.727,18.2-6.988,15.643-6.235,13.016-5.462,10.311-4.675,7.519-3.87,4.63-3.037,1.62-2.172,1.293,2.037,3.886,2.961,6.342,3.774,8.682,4.552,10.921,5.3,13.079,6.022,15.157,6.728,17.169,7.414L584.2,97.331l20.99,8.729,22.8,9.359,24.525,9.966,26.156,10.544,27.669,11.091,29.043,11.589,30.235,12.039,31.214,12.418S818.031,191.505,828.757,195.781Z" transform="translate(168.043 53.05)" fill="#101631"/><path d="M251.842,134.437l32.514-11.08,29.892-10.3,27.174-9.5,24.388-8.682,21.548-7.86,18.675-7.028,15.762-6.2,12.8-5.359,9.787-4.5,6.7-3.646,3.507-2.761.813-.273,2.71,2.622,5.428,3.485,8.01,4.312,10.5,5.114,12.9,5.9,15.235,6.658,17.517,7.414,19.758,8.16,21.947,8.9,24.088,9.621,26.163,10.334,28.142,11.02,30.009,11.674L709.5,164.737s21.914,8.471,33.2,12.828c0-2.2,0-3.29,0-5.437-11.279-4.422-33.193-13.019-33.193-13.019L677.8,146.642l-30.009-11.849L619.645,123.61l-26.161-10.482-24.088-9.76-21.952-9.023L527.69,86.073l-17.519-7.514-15.235-6.746-12.9-5.964-10.5-5.173-8.01-4.354-5.428-3.512-2.71-2.629-.813.271-3.507,2.772-6.7,3.673-9.787,4.556-12.8,5.419-15.762,6.275-18.675,7.122-21.548,7.965-24.388,8.805-27.174,9.635-29.892,10.45L251.842,128.37l-35,12.01s-24.5,8.368-37.279,12.718v5.7c12.779-4.287,37.279-12.53,37.279-12.53Z" transform="translate(201.487 61.074)" fill="#101631"/><path d="M698.082,163.582,666.1,151.388l-30.284-11.6L607.4,128.833l-26.43-10.276-24.345-9.574-22.194-8.859L514.449,92l-17.723-7.389-15.41-6.643-13.052-5.881-10.619-5.105-8.106-4.312-5.48-3.487-2.727-2.627-.829.3-3.581,2.777-6.811,3.66-9.935,4.516-12.99,5.354-15.981,6.192-18.926,7.015-21.829,7.837-24.69,8.651-27.5,9.458-30.23,10.251-32.857,11.017-35.34,11.755L190.9,148.3v6.069l8.991-2.929L232.23,140.85,262.6,130.839l28.285-9.417,26.116-8.8,23.875-8.178L362.439,96.9l19.179-6.889,16.721-6.226,14.171-5.542,11.508-4.832,8.7-4.09,5.713-3.317,2.521-2.481.984,1.181,3.8,2.987,6.728,3.9,9.612,4.814,12.456,5.715L489.8,88.744l18.079,7.519,20.849,8.42L552.317,114l26.268,10.193,28.857,11.055s20.486,7.786,31.313,11.876c7.187,2.219,19.888,6.156,19.888,6.156l17.546,5.48,16.836,5.294,17.862,5.663s13.1,4.175,20.645,6.6C720.166,171.988,698.082,163.582,698.082,163.582Z" transform="translate(215.55 68.983)" fill="#101631"/><path d="M226.177,180.586l-33.366,10.641L158.97,202.038l-34,10.908s-22.615,7.284-33.8,10.912v5.092c11.188-3.566,33.8-10.73,33.8-10.73l34-10.722,33.841-10.627,33.366-10.457,32.64-10.228,31.689-9.942,30.555-9.619,29.269-9.254,27.844-8.864,26.306-8.442,24.663-8.008,22.931-7.539,21.109-7.062,19.193-6.562,17.194-6.042,15.094-5.5,12.891-4.942,10.576-4.354,8.124-3.734,5.524-3.084,2.759-2.394.71.26,2.779,2.5,5.293,3.252,7.739,3.987,10.116,4.7,12.436,5.41,14.7,6.094,16.9,6.773,19.047,7.432,21.125,8.079,23.126,8.707,25.033,9.305,26.828,9.879,28.485,10.41,29.966,10.9s20.643,7.492,31.244,11.333c0-2.411,0-3.6.007-5.97-10.6-3.9-31.243-11.524-31.243-11.524l-29.971-11.085L750.369,140.7l-26.828-10.045-25.033-9.46-23.126-8.846-21.127-8.209-19.047-7.548-16.9-6.878-14.7-6.188-12.436-5.48L581.06,73.279l-7.739-4.034-5.293-3.288-2.779-2.519-.71-.26-2.759,2.407L556.255,68.7l-8.124,3.781-10.576,4.413L524.664,81.9,509.57,87.492l-17.194,6.134-19.193,6.667-21.109,7.176-22.931,7.665-24.663,8.137-26.306,8.586-27.844,9.014-29.269,9.415-30.555,9.782-31.689,10.114Z" transform="translate(91.768 77.203)" fill="#101631"/><path d="M87.04,234.13c10.943-3.382,33.133-10.179,33.133-10.179l33.455-10.2,33.417-10.139,33.072-10,32.456-9.807,31.62-9.567,30.594-9.278L344.2,156l28.086-8.606,26.64-8.223,25.087-7.824,23.435-7.4,21.7-6.961,19.87-6.5,17.951-6.024,15.941-5.522,13.832-5.013,11.613-4.467,9.274-3.9,6.8-3.3,4.164-2.676,1.363-1.878,1.389,2.048,3.909,2.77,6.338,3.467,8.7,4.144,11,4.814,13.238,5.464,15.423,6.1,17.546,6.728,19.605,7.34,21.6,7.936,23.5,8.507,25.307,9.056,26.992,9.579,28.536,10.054,29.9,10.493s20.54,7.192,31.057,10.867c0-2.472,0-3.7,0-6.132-10.518-3.745-31.057-11.064-31.057-11.064l-29.9-10.681L764.5,148.956l-26.992-9.749L712.2,130l-23.5-8.657-21.593-8.075L647.5,105.8l-17.546-6.842-15.426-6.2L601.291,87.2l-11-4.883-8.7-4.2-6.338-3.507-3.909-2.8-1.389-2.064-1.363,1.891-4.164,2.7-6.8,3.346-9.274,3.958-11.613,4.534L522.906,91.27l-15.941,5.616-17.951,6.125-19.87,6.616-21.7,7.08-23.435,7.53L398.923,132.2l-26.64,8.373L344.2,149.333l-29.41,9.119L284.193,167.9l-31.62,9.74-32.456,9.991-33.072,10.186-33.417,10.327-33.455,10.385S97.983,225.452,87.04,228.89Z" transform="translate(86.649 85.355)" fill="#101631"/><path d="M81.247,257.879l26.687-8.167,27.974-8.427,28.913-8.606,29.542-8.716,29.9-8.767,30.006-8.76,29.89-8.7,29.576-8.608,29.085-8.467,28.426-8.29,27.62-8.084,26.681-7.848,25.614-7.584,24.426-7.29,23.128-6.981,21.728-6.643,20.217-6.28,18.6-5.905,16.889-5.5,15.06-5.074,13.128-4.621,11.078-4.144,8.9-3.644,6.6-3.113,4.155-2.555,1.557-1.959,1.035,1.62,3.344,2.481,5.567,3.093,7.712,3.673,9.769,4.236,11.741,4.78,13.633,5.3,15.448,5.8,17.183,6.293,18.826,6.748,20.383,7.192,21.842,7.6,23.2,7.994,24.433,8.353L856.286,169l26.51,8.965,27.315,9.215,27.936,9.417,28.359,9.565,28.55,9.648,28.478,9.673s18.837,6.43,28.115,9.614c0-2.216,0-3.317.007-5.5-9.274-3.245-28.115-9.794-28.115-9.794l-28.478-9.856-28.547-9.836-28.359-9.747-27.94-9.594L882.8,171.379l-26.51-9.139L830.748,153.4l-24.437-8.507-23.2-8.144L761.272,129l-20.381-7.322L722.063,114.8l-17.18-6.4-15.448-5.908L675.8,97.1l-11.741-4.861-9.767-4.305L646.578,84.2l-5.567-3.131-3.344-2.512-1.035-1.632L635.074,78.9l-4.155,2.584-6.6,3.156-8.9,3.7L604.34,92.557l-13.128,4.7-15.06,5.161-16.889,5.6-18.6,6.008-20.217,6.4-21.728,6.768L475.585,134.3l-24.426,7.432-25.614,7.727-26.681,8-27.62,8.243-28.426,8.449-29.085,8.635-29.576,8.774-29.89,8.875-30.006,8.929-29.9,8.94-29.542,8.886-28.913,8.772-27.974,8.586L81.247,252.87l-25.02,7.969s-15.683,5.1-22.924,7.512v4.731c7.241-2.373,22.924-7.382,22.924-7.382Z" transform="translate(19.955 94.267)" fill="#101631"/><path d="M976.281,219.975c0-2.425,0-3.633.007-6.024-10.018-3.33-30.031-9.964-30.031-9.964l-29.8-9.856-29.294-9.684L858.6,175l-27.62-9.162L804.482,157l-25.235-8.467-23.832-8.068L733.1,132.818l-20.69-7.185-18.973-6.71-17.176-6.212-15.289-5.7-13.332-5.166-11.3-4.617-9.2-4.045-7.008-3.463-4.742-2.853-2.387-2.228-.677.105L609.494,87l-5.444,2.835-7.893,3.384-10.2,3.9-12.382,4.4-14.446,4.868L542.731,111.7l-18.238,5.735-19.977,6.141-21.62,6.519-23.157,6.885L435.144,144.2l-25.919,7.541-27.131,7.835-28.216,8.108-29.168,8.344-29.959,8.55L264.167,193.3l-31.015,8.855-31.225,8.933-31.192,8.967-30.871,8.931-30.235,8.83L80.4,246.468s-18.832,5.641-27.821,8.375V260c8.989-2.683,27.821-8.214,27.821-8.214l29.231-8.476,30.235-8.648,30.871-8.756,31.192-8.783,31.225-8.752,31.015-8.675,30.585-8.545,29.959-8.377,29.168-8.176,28.216-7.942,27.131-7.676,25.919-7.391,24.594-7.08L482.9,137.76l21.62-6.4,19.977-6.017,18.238-5.627,16.394-5.213,14.446-4.776,12.382-4.319,10.2-3.839,7.893-3.33,5.444-2.795,2.835-2.223.677-.105,2.387,2.2,4.742,2.815,7.008,3.406,9.2,3.978,11.3,4.536,13.332,5.072,15.291,5.592,17.171,6.1,18.976,6.582,20.69,7.048,22.315,7.492,23.832,7.909,25.233,8.3,26.5,8.657L858.6,181.8l28.559,9.26,29.3,9.491,29.8,9.659S966.266,216.71,976.281,219.975Z" transform="translate(43.875 103.841)" fill="#101631"/><path d="M246.953,169.435l35.425-9.637,32.476-8.94,29.482-8.243,26.47-7.553,23.458-6.874,20.441-6.2,17.4-5.533,14.289-4.868,11.073-4.184,7.692-3.478,4.061-2.73.975-.137,3.505,2.763,7.073,3.673,10.654,4.594,14.287,5.545,17.983,6.519,21.754,7.517,25.587,8.543s18.987,6.217,29.444,9.587c0-3.131,0-4.684,0-7.77-10.457-3.442-29.444-9.789-29.444-9.789l-25.587-8.72L523.7,115.852l-17.985-6.647-14.287-5.65-10.654-4.677L473.7,95.142l-3.505-2.8-.975.132-4.061,2.775-7.692,3.534-11.073,4.263-14.289,4.96-17.4,5.648-20.441,6.329L370.806,127l-26.47,7.714-29.482,8.418-32.476,9.135-35.425,9.85-38.274,10.549s-26.875,7.38-40.936,11.226v6.853c14.061-3.767,40.936-10.984,40.936-10.984Z" transform="translate(186.811 113.401)" fill="#101631"/><path d="M218.274,202.354l-33.426,8.756-33.718,8.864-33.682,8.908s-22.295,5.932-33.265,8.875v5.9c10.97-2.878,33.265-8.673,33.265-8.673l33.682-8.7,33.718-8.658,33.426-8.557,32.853-8.4,32.05-8.2,31.042-7.958,29.865-7.692,28.541-7.4,27.088-7.082,25.52-6.746,23.854-6.389,22.086-6.022L491.4,137.55l18.274-5.235L525.9,127.5l14.068-4.379,11.8-3.929,9.4-3.449,6.867-2.947,4.166-2.414,1.3-1.616,1.517,1.932,4.092,2.541,6.573,3.129,8.985,3.709,11.327,4.267,13.606,4.823,15.827,5.365,17.976,5.885,20.065,6.407,22.073,6.9,23.989,7.387,25.8,7.846,27.487,8.283,29.018,8.682,30.356,9.041,31.474,9.354c0-2.772,0-4.146.007-6.88L832.2,187.872l-30.358-9.249-29.018-8.882-27.487-8.469-25.8-8.028-23.991-7.553-22.07-7.057L653.4,132.086l-17.978-6.02L619.6,120.591l-13.606-4.924-11.329-4.359-8.985-3.779-6.573-3.191-4.092-2.582L573.5,99.8l-1.3,1.638-4.166,2.456-6.867,3-9.4,3.516-11.8,4.007L525.9,118.893l-16.226,4.921L491.4,129.166l-20.228,5.762-22.086,6.161-23.854,6.537-25.52,6.9-27.088,7.246-28.541,7.571-29.865,7.873-31.042,8.151-32.05,8.391Z" transform="translate(83.104 122.651)" fill="#101631"/><path d="M720.33,168.107l-27.922-8.279-25.777-7.75L643.1,144.891l-21.187-6.616-18.787-6.033L586.8,126.8l-13.828-4.841-11.277-4.24-8.68-3.626-6.026-3.005-3.3-2.373-.82-.661-2.64,2.136-5.63,2.707-8.431,3.245L515.093,119.9l-13.57,4.24-15.948,4.713-18.225,5.164-20.405,5.6-22.5,6.029-24.518,6.439-26.439,6.842-28.276,7.228-30,7.593-31.589,7.945L250.6,189.951l-34.264,8.554-35.275,8.8-35.992,9s-24.218,6.071-36.346,9.128v6.4c12.129-2.983,36.346-8.9,36.346-8.9l35.992-8.781,35.275-8.583,34.264-8.346,33.025-8.061,31.589-7.75,30-7.409,28.276-7.053,26.439-6.672,24.518-6.286,22.5-5.883,20.405-5.466,18.225-5.043,15.948-4.6,13.57-4.151,11.071-3.673L534.595,122l5.63-2.66,2.64-2.1.82.652,3.3,2.331,6.024,2.949,8.682,3.55,11.277,4.144L586.8,135.6l16.329,5.318,18.787,5.9,21.188,6.459,23.523,7.019,25.78,7.566,27.92,8.084,29.919,8.579s20.883,5.955,31.739,9.041c0-2.981,0-4.462,0-7.407-10.854-3.16-31.736-9.263-31.736-9.263Z" transform="translate(113.559 132.9)" fill="#101631"/><path d="M67.722,250.706v5.966c10.163-2.456,31.111-7.452,31.111-7.452l32.057-7.573,32.59-7.627,32.765-7.615,32.628-7.553L261.1,211.41l31.589-7.3L323.438,197l29.737-6.907,28.57-6.679,27.261-6.419,25.838-6.145,24.291-5.856,22.647-5.545,20.9-5.222,19.045-4.879,17.089-4.527,15.027-4.155,12.846-3.763,10.551-3.355,8.108-2.922,5.522-2.465,2.761-1.986.7.193,2.736,2.055L602.284,131l7.617,3.09,9.937,3.588,12.181,4.072,14.352,4.54,16.452,5,18.476,5.444,20.419,5.874,22.277,6.286,24.029,6.685,25.672,7.057,27.178,7.4,28.52,7.725,29.686,8,30.625,8.243s20.789,5.6,31.3,8.429c0-2.795,0-4.186.007-6.954L890.45,207.04l-29.923-8.265-29.04-8.034-27.947-7.763-26.678-7.454-25.26-7.118-23.715-6.753-22.059-6.369-20.309-5.964-18.474-5.549-16.562-5.114-14.581-4.67-12.528-4.211-10.412-3.743-8.227-3.261-5.968-2.766-3.635-2.257-1.208-1.685-1.455,1.753-4.162,2.239-6.706,2.7-9.094,3.138-11.356,3.543-13.494,3.942-15.52,4.314-17.445,4.675-19.271,5.016-21,5.343-22.633,5.659-24.177,5.957L402,170.575l-26.945,6.5L346.9,183.822l-29.244,6.972-30.179,7.172-30.948,7.342-31.521,7.476-31.88,7.582L161.143,228l-31.795,7.642L98.08,243.234S77.643,248.241,67.722,250.706Z" transform="translate(62.673 142.841)" fill="#101631"/><path d="M37.53,268.632v5.661c7.813-1.918,24.594-5.932,24.594-5.932l26.589-6.228,28.137-6.446,29.294-6.6,30.087-6.705,30.573-6.75,30.773-6.755,30.721-6.719,30.455-6.652,29.977-6.546,29.327-6.414,28.514-6.259,27.548-6.08,26.454-5.878,25.228-5.661,23.886-5.426,22.431-5.17,20.863-4.9,19.191-4.614,17.409-4.307,15.513-3.989,13.5-3.646,11.371-3.3,9.108-2.916,6.712-2.519,4.159-2.1,1.45-1.654,1.215,1.6,3.626,2.111,5.937,2.571,8.164,3.014,10.3,3.442,12.351,3.857,14.316,4.251,16.2,4.639,18,5.011,19.706,5.359,21.318,5.695,22.828,6.015L809.568,188l25.488,6.584,26.613,6.829,27.577,7.046,28.352,7.23,28.933,7.371,29.276,7.474,29.35,7.526s19.489,5.022,29.121,7.521c.007-2.64.009-3.956.011-6.566-9.632-2.568-29.125-7.727-29.125-7.727l-29.35-7.739-29.273-7.683-28.933-7.582-28.357-7.434L861.676,193.6l-26.613-7.019-25.488-6.768-24.222-6.486-22.828-6.179L741.2,161.3,721.5,155.787l-18-5.146-16.2-4.762-14.316-4.37-12.346-3.956-10.3-3.534-8.164-3.09-5.937-2.633-3.626-2.158-1.215-1.629-1.45,1.688-4.159,2.147-6.712,2.58-9.108,2.992L598.594,137.3l-13.5,3.747-15.513,4.1-17.409,4.428-19.191,4.742-20.863,5.038-22.431,5.316L465.8,170.249l-25.228,5.822-26.454,6.051-27.548,6.253-28.514,6.441-29.327,6.6-29.977,6.737L268.3,215l-30.721,6.916L206.8,228.866l-30.573,6.947-30.087,6.894-29.294,6.8-28.137,6.631-26.589,6.4S45.343,266.66,37.53,268.632Z" transform="translate(25.201 153.321)" fill="#101631"/><path d="M1209.663,279.617l-17.615-5.17-20.132-5.621-22.234-5.99-23.948-6.284-25.32-6.526-26.36-6.7-27.106-6.817-27.581-6.885-27.8-6.909-27.792-6.887L936.2,209l-27.144-6.728-26.533-6.6-25.741-6.436L831.995,183l-23.673-6.017-22.4-5.769-20.988-5.488L745.5,160.54l-17.723-4.857-15.874-4.5-13.882-4.117-11.739-3.709-9.455-3.274-7.008-2.808-4.4-2.315-1.627-1.793-1.486,1.564-4.706,2.263-7.766,2.759-10.656,3.229-13.384,3.671-15.948,4.09-18.35,4.487-20.6,4.852-22.682,5.2L523.61,170.8l-26.351,5.811-27.927,6.08-29.321,6.318L409.5,195.537l-31.5,6.7-32.261,6.842-32.788,6.947L279.9,223.042l-33.032,7.035-32.711,7L182.1,244l-31.035,6.784-29.616,6.587-27.758,6.315-25.43,5.97L45.687,275.2l-19.15,5.029s-10.82,3.055-15.105,4.41v5.341c4.285-1.322,15.105-4.292,15.105-4.292l19.15-4.886,22.577-5.381,25.43-5.8,27.758-6.129,29.616-6.387L182.1,250.53l32.055-6.714,32.711-6.791,33.032-6.82,33.052-6.8,32.788-6.739L378,210.035l31.5-6.5,30.511-6.327,29.321-6.129,27.927-5.9,26.351-5.639,24.605-5.352,22.682-5.049,20.6-4.709,18.35-4.354,15.948-3.973,13.384-3.568,10.656-3.14,7.766-2.687,4.706-2.205,1.486-1.528,1.627,1.748,4.4,2.259,7.01,2.736,9.451,3.187,11.743,3.606,13.882,4,15.872,4.372,17.721,4.72,19.428,5.036,20.986,5.332,22.4,5.6,23.671,5.843,24.789,6.058,25.739,6.248,26.533,6.405,27.142,6.531,27.568,6.627,27.8,6.683,27.8,6.705,27.579,6.683,27.106,6.618,26.362,6.5,25.316,6.336,23.951,6.1,22.232,5.82,20.134,5.457,17.611,5.027s3,.9,4.482,1.351V281C1212.651,280.541,1209.663,279.617,1209.663,279.617Z" transform="translate(-7.19 164.068)" fill="#101631"/><path d="M104.9,255.3l29.267-5.773,29.863-5.834,30.188-5.858,30.266-5.845,30.121-5.8,29.775-5.731,29.251-5.636,28.552-5.52,27.709-5.376,26.719-5.224,25.6-5.047L446.57,188.8l23-4.65,21.517-4.422,19.923-4.186,18.223-3.935,16.4-3.664,14.471-3.382,12.414-3.082,10.228-2.763,7.909-2.429,5.45-2.075,2.83-1.7.672-.065,2.4,1.692,4.744,2.1,6.994,2.488,9.144,2.866,11.208,3.229,13.182,3.575,15.069,3.913,16.864,4.231,18.572,4.538,20.179,4.83,21.683,5.107,23.081,5.361,24.352,5.6,25.5,5.818,26.494,6.011,27.333,6.177,27.983,6.313,28.433,6.421,28.653,6.483L980.1,245.7l28.292,6.484s16.073,3.716,23.978,5.551v-6.6c-6.959-1.672-21.064-5.04-21.064-5.04l-27.142-6.432L956.669,233.2l-27.577-6.448-27.44-6.4-27.093-6.311-26.56-6.2L822.134,201.8l-25.011-5.878L773.1,190.234l-22.916-5.468L728.5,179.529l-20.356-4.984-18.917-4.715L671.838,165.4l-15.76-4.133-14.038-3.821-12.223-3.487L619.5,150.813l-8.31-2.781-6.2-2.4-3.982-2.008-1.652-1.593-.986.986-3.628,1.865-6.21,2.25-8.669,2.624-11,2.974-13.211,3.315-15.307,3.635-17.3,3.938-19.184,4.236-20.952,4.507-22.622,4.771-24.17,5.016-25.6,5.246-26.9,5.457L355.552,198.5l-29.087,5.82-29.944,5.975L265.9,216.388l-31.1,6.192-31.364,6.255-31.387,6.284L140.913,241.4l-30.571,6.217-29.675,6.118s-11.6,2.418-17.292,3.615v6.289c4.337-.881,13.164-2.667,13.164-2.667Z" transform="translate(57.278 175.065)" fill="#101631"/><path d="M78.682,267.448l-23.375,4.892L34.579,276.89s-12.3,2.84-17.566,4.144v5.645c5.267-1.26,17.566-4,17.566-4l20.728-4.4,23.375-4.722,25.555-4.984,27.306-5.195,28.673-5.352,29.695-5.466,30.39-5.536,30.8-5.567,30.939-5.569,30.847-5.533,30.522-5.473,30-5.39,29.3-5.276,28.417-5.146,27.373-4.991,26.183-4.821,24.845-4.63,23.373-4.424,21.766-4.2,20.031-3.958,18.171-3.7,16.183-3.431,14.061-3.144,11.813-2.835,9.426-2.519,6.9-2.176,4.225-1.818,1.392-1.374,1.351,1.452,3.821,1.844,6.168,2.223,8.389,2.577,10.5,2.922,12.5,3.243,14.388,3.55,16.172,3.846L748,186.826,767.4,191.2l20.86,4.617,22.192,4.843,23.4,5.049,24.477,5.233,25.417,5.4,26.2,5.542,26.828,5.657,27.272,5.748,27.523,5.807,27.561,5.834,27.364,5.825,26.909,5.775,26.167,5.683,25.114,5.538,23.715,5.347,21.936,5.087s13.572,3.238,19.731,4.767c0-2.376.007-3.561.013-5.919-6.159-1.578-19.731-4.93-19.731-4.93l-21.936-5.267-23.714-5.527-25.118-5.737-26.167-5.883-26.911-5.979-27.362-6.031-27.563-6.04-27.523-6.013-27.274-5.952-26.826-5.858-26.2-5.735-25.417-5.594-24.48-5.417-23.4-5.226-22.192-5.013-20.858-4.78L748,177.521l-17.846-4.26-16.172-3.974-14.39-3.673-12.5-3.353-10.5-3.017L668.2,156.58l-6.168-2.293-3.821-1.9-1.351-1.495-1.392,1.414-4.225,1.874-6.9,2.248-9.426,2.6-11.813,2.936-14.061,3.252-16.183,3.552L574.693,172.6l-20.031,4.1-21.766,4.35-23.373,4.583-24.845,4.8-26.183,5L431.122,200.6,402.7,205.939l-29.3,5.468-30,5.587-30.522,5.677-30.847,5.737L251.1,234.183l-30.8,5.769-30.39,5.739-29.695,5.661L131.543,256.9l-27.306,5.383Z" transform="translate(-0.263 186.064)" fill="#101631"/><path d="M1219.918,282.506l-16.885-4.249-19.867-4.682-22.36-5.034-24.39-5.323-26.01-5.542-27.245-5.71-28.135-5.827-28.7-5.887-28.982-5.919-28.987-5.892L939.608,222.6l-28.274-5.753-27.588-5.634-26.7-5.484-25.632-5.3-24.386-5.105-22.969-4.877-21.392-4.623L743,181.469l-17.774-4.056-15.744-3.734-13.559-3.4L684.7,167.249l-8.736-2.651-6.1-2.241-3.29-1.813-.834-.316-3.07,1.721-6.315,2.136-9.363,2.528-12.219,2.9-14.892,3.241-17.38,3.563-19.7,3.87-21.837,4.146-23.8,4.411-25.6,4.646-27.2,4.863L455.749,203.3l-29.854,5.224L395.017,213.9l-31.692,5.486-32.277,5.576-32.619,5.632-32.7,5.666-32.507,5.657-32,5.607-31.172,5.522-29.982,5.392-28.4,5.211-26.4,4.978-23.933,4.684-20.959,4.33-17.429,3.9-13.3,3.4v5.589l13.3-3.281,17.429-3.761,20.959-4.168,23.933-4.507,26.4-4.792,28.4-5.011,29.982-5.184,31.172-5.314,32-5.392,32.507-5.437,32.7-5.444,32.619-5.417,32.277-5.361,31.692-5.276,30.878-5.159L455.749,212l28.621-4.859,27.2-4.675,25.6-4.469,23.8-4.242,21.837-3.991,19.7-3.723,17.38-3.433,14.892-3.124,12.219-2.79,9.363-2.441,6.315-2.062,3.07-1.665.834.307,3.29,1.755,6.1,2.165,8.736,2.559,11.226,2.925,13.559,3.274,15.742,3.6L743,191.025l19.659,4.189,21.394,4.458,22.969,4.7,24.381,4.913,25.632,5.11,26.705,5.278,27.586,5.426,28.274,5.538,28.745,5.625,28.987,5.677,28.978,5.695,28.7,5.672,28.135,5.612,27.247,5.5,26.006,5.338,24.394,5.128,22.353,4.852,19.87,4.507,16.882,4.1,13.35,3.608s6.912,2.127,9.234,3.03c0-2.243.006-3.364.016-5.594-2.322-.935-9.231-3.138-9.231-3.138Z" transform="translate(-9.421 197.654)" fill="#101631"/><path d="M101.541,266.011l29.614-4.691,30.455-4.758,30.959-4.787,31.163-4.787,31.1-4.758,30.811-4.7L315.96,232.9l29.632-4.534,28.78-4.415,27.785-4.29,26.656-4.146,25.4-4L478.24,207.7l22.543-3.646,20.952-3.465L541,197.319l17.461-3.057,15.549-2.835,13.532-2.609,11.392-2.362,9.121-2.111,6.717-1.84,4.164-1.555,1.441-1.255,1.228,1.228,3.649,1.578,5.975,1.894,8.214,2.205,10.37,2.5,12.445,2.792,14.44,3.073,16.356,3.348,18.189,3.606,19.935,3.857,21.593,4.1L775.9,214.2l24.581,4.538,25.887,4.738,27.055,4.915,28.05,5.074,28.857,5.211,29.448,5.316,29.794,5.388S989.5,253,999.423,254.81c0-2.947,0-4.419.011-7.349-9.926-1.887-29.849-5.654-29.849-5.654l-29.791-5.618-29.451-5.54-28.859-5.43-28.052-5.289-27.05-5.125-25.892-4.933-24.578-4.733-23.144-4.507-21.589-4.269-19.939-4.018-18.189-3.758L676.7,185.1l-14.44-3.2-12.445-2.909-10.367-2.6-8.218-2.29-5.975-1.97L621.6,170.5l-1.228-1.273-1.441,1.3-4.164,1.611-6.717,1.914-9.121,2.2-11.392,2.461-13.532,2.716-15.549,2.958L541,187.57l-19.262,3.406-20.952,3.61L478.24,198.4l-24.027,3.994-25.4,4.168-26.656,4.33-27.785,4.48-28.78,4.61-29.632,4.733-30.313,4.832-30.811,4.906-31.1,4.969-31.163,5-30.959,5-30.455,4.966-29.614,4.9-28.39,4.785S55,267.181,46.41,268.689v6.333c8.586-1.443,26.741-4.428,26.741-4.428Z" transform="translate(36.222 208.819)" fill="#101631"/><path d="M1155.62,271.726l-23.5-4.381-25-4.547-26.147-4.675-26.965-4.758-27.494-4.809-27.745-4.818-27.759-4.807-27.543-4.758-27.133-4.691-26.528-4.6L864.049,220.4l-24.832-4.352-23.76-4.2L792.9,207.814l-21.212-3.848-19.749-3.655-18.173-3.44-16.479-3.216-14.675-2.978-12.752-2.723-10.724-2.458-8.577-2.178-6.311-1.88-3.924-1.573-1.405-1.251-1.392,1.152-4.283,1.54-7.01,1.833-9.587,2.107-12.019,2.369-14.31,2.62-16.461,2.851-18.485,3.073-20.37,3.283-22.129,3.476-23.747,3.655L483.9,210.4l-26.573,3.976-27.765,4.115-28.8,4.238L371.1,227.067,340.748,231.5l-30.849,4.5-31.125,4.543L247.593,245.1l-30.981,4.558L186.1,254.194l-29.733,4.464-28.626,4.368-27.153,4.231-25.28,4.056-22.962,3.83L32.182,278.7s-11.84,2.212-16.831,3.225V287.8c4.991-.97,16.831-3.084,16.831-3.084l20.168-3.4,22.962-3.658,25.28-3.87,27.153-4.036,28.626-4.166,29.733-4.258,30.508-4.319,30.981-4.35,31.181-4.35,31.125-4.33,30.849-4.287,30.352-4.225,29.668-4.139,28.8-4.041,27.765-3.922,26.573-3.794,25.23-3.646,23.747-3.487,22.129-3.315,20.37-3.131,18.485-2.936,16.461-2.721,14.31-2.5,12.019-2.268,9.587-2.017,7.01-1.755,4.283-1.475,1.392-1.109,1.405,1.2,3.922,1.513,6.313,1.806,8.575,2.084,10.722,2.355,12.756,2.606,14.673,2.846,16.479,3.075,18.173,3.292,19.749,3.492,21.212,3.678,22.548,3.855,23.758,4.016,24.836,4.157,25.76,4.283,26.53,4.393,27.129,4.48,27.545,4.547,27.754,4.592,27.747,4.6,27.49,4.592,26.965,4.549,26.149,4.469,25,4.345,23.494,4.187L1177.2,282.2s13.279,2.526,19.253,3.714c.007-2.465.009-3.7.013-6.15-5.975-1.242-19.249-3.884-19.249-3.884Z" transform="translate(-2.326 220.471)" fill="#101631"/><path d="M191.679,247.189l36.008-4.514,34.715-4.359,33.191-4.189,31.5-4,29.648-3.814,27.689-3.61,25.636-3.4L433.55,216.1l21.262-2.976,18.955-2.752,16.551-2.526,14.045-2.29,11.423-2.051,8.646-1.8,5.7-1.533,2.541-1.253.944.571,3.68,1.43,6.551,1.757,9.354,2.082,12.109,2.4,14.823,2.721,17.494,3.041,20.125,3.355,22.7,3.669,25.215,3.978,27.629,4.281,29.921,4.565s21.026,3.185,32.037,4.841c0-3.507,0-5.26,0-8.749-11.006-1.744-32.037-5.094-32.037-5.094l-29.921-4.8-27.631-4.5-25.213-4.184-22.7-3.857L597.626,202.9l-17.492-3.194-14.825-2.86L553.2,194.326l-9.357-2.183L537.3,190.3l-3.682-1.493-.944-.6-2.541,1.309-5.7,1.6-8.646,1.887-11.423,2.158-14.045,2.409-16.551,2.66-18.955,2.9-21.262,3.131-23.487,3.366-25.636,3.588-27.689,3.805-29.648,4.023-31.5,4.225L262.4,229.7l-34.715,4.6-36.008,4.758-37.021,4.892s-25.056,3.324-37.675,5v7.622c12.62-1.593,37.675-4.742,37.675-4.742Z" transform="translate(123.812 232.385)" fill="#101631"/><path d="M90.6,259.51V266.8c11.506-1.316,34.78-3.951,34.78-3.951l35-3.938,34.822-3.9,34.309-3.826,33.518-3.738,32.494-3.631,31.27-3.512,29.879-3.382,28.348-3.241,26.692-3.09,24.926-2.936,23.059-2.775,21.1-2.6,19.032-2.432,16.873-2.255,14.6-2.066,12.212-1.874,9.688-1.667,7.013-1.454,4.164-1.23,1.177-.722,1.811,1.071,4.511,1.342,7.133,1.609,9.675,1.871,12.149,2.122,14.563,2.378,16.909,2.622,19.2,2.862,21.411,3.1,23.541,3.333,25.573,3.552,27.478,3.765,29.242,3.967,30.813,4.151,32.16,4.312c0-3.375,0-5.06.007-8.42l-32.16-4.567-30.815-4.39-29.242-4.2-27.478-3.985-25.573-3.761-23.543-3.525-21.412-3.283-19.2-3.026L615.4,208.711,600.835,206.2l-12.149-2.243-9.673-1.974-7.131-1.7-4.516-1.414-1.811-1.127-1.177.758-4.164,1.3-7.013,1.535-9.688,1.766L531.3,205.082l-14.6,2.192-16.873,2.387L480.8,212.24l-21.1,2.766-23.059,2.945-24.926,3.113-26.692,3.283-28.348,3.438L326.8,231.377l-31.27,3.727-32.494,3.857-33.518,3.971L195.206,247l-34.822,4.133-35,4.184S102.11,258.111,90.6,259.51Z" transform="translate(91.072 244.219)" fill="#101631"/><path d="M97.328,267.878l-28.222,3.16s-17.945,2.053-26.373,3.043v6.575c8.429-.928,26.373-2.846,26.373-2.846l28.222-2.949,29.605-3.028,30.587-3.077,31.205-3.095,31.51-3.1,31.53-3.091,31.3-3.052,30.847-3.01,30.195-2.949,29.374-2.882,28.382-2.8,27.254-2.712,25.99-2.615,24.6-2.512,23.092-2.4,21.472-2.277,19.74-2.154L561.9,228.08l15.932-1.883,13.848-1.737,11.64-1.582,9.3-1.421,6.811-1.248,4.162-1.065,1.351-.809,1.4.894,3.888,1.107,6.286,1.322,8.581,1.522,10.8,1.721,12.925,1.912,14.962,2.091,16.916,2.272,18.785,2.443,20.553,2.6,22.223,2.761,23.785,2.909,25.219,3.043,26.517,3.178,27.656,3.288,28.615,3.386,29.37,3.467,29.894,3.534,30.141,3.577s20.109,2.4,30.089,3.592c.007-3.05.009-4.572.014-7.609-9.982-1.275-30.092-3.83-30.092-3.83l-30.145-3.817-29.89-3.772-29.372-3.7-28.615-3.613-27.658-3.51-26.517-3.382-25.219-3.25-23.785-3.1-22.225-2.945-20.556-2.779-18.785-2.6-16.916-2.418L668.817,216.4l-12.925-2.035-10.8-1.829-8.586-1.618-6.284-1.4-3.891-1.177-1.4-.946-1.351.856-4.162,1.134-6.811,1.327-9.3,1.513-11.64,1.69-13.848,1.853L561.9,217.78l-17.889,2.16-19.74,2.306L502.8,224.687l-23.092,2.566-24.6,2.687-25.99,2.8-27.254,2.907-28.382,3-29.374,3.088-30.195,3.16-30.847,3.225-31.3,3.272-31.53,3.31-31.51,3.321-31.205,3.321-30.587,3.294Z" transform="translate(31.657 256.194)" fill="#101631"/><path d="M625.764,239.825l21.51,2.4,23.859,2.6,26.122,2.786,28.267,2.969,30.262,3.14s21.1,2.176,32.066,3.3c0-3.541,0-5.314,0-8.846-10.961-1.21-32.066-3.552-32.066-3.552l-30.262-3.386-28.269-3.2-26.12-3-23.861-2.8-21.506-2.588-19.088-2.376-16.609-2.165L576,223.171l-11.5-1.723-8.87-1.5-6.174-1.275-3.415-1.049-.856-.345-2.606.939-5.652,1.136-8.5,1.313-11.183,1.486-13.722,1.65-16.136,1.809L468.94,227.57l-20.654,2.111-22.774,2.257-24.807,2.4-26.752,2.535-28.594,2.667-30.325,2.8-31.916,2.918-33.343,3.03L215.2,251.418l-35.553,3.223-36.237,3.29s-24.359,2.221-36.544,3.339v7.687c12.185-1.031,36.544-3.084,36.544-3.084l36.237-3.034,35.553-2.972,34.574-2.889,33.343-2.8,31.916-2.694,30.325-2.58,28.594-2.465L400.7,244.1l24.807-2.214,22.774-2.082,20.654-1.952,18.442-1.813,16.136-1.674,13.722-1.531,11.183-1.378,8.5-1.219,5.652-1.056,2.606-.883.856.325,3.415.979,6.174,1.192,8.868,1.4,11.5,1.6,14.076,1.806,16.607,2.008Z" transform="translate(111.256 268.458)" fill="#101631"/><path d="M428.08,230.306l-11.145-1.764-5.229-1.313-1.513.148-6.233,1.246-11.427,1.52L376.2,231.922l-21.241,2.066L328.6,236.359l-31.835,2.71-37.74,3.088s-28.292,2.261-44.072,3.5v9.455c15.78-1.123,44.072-3.18,44.072-3.18l37.74-2.808,31.835-2.465,26.353-2.16,21.241-1.883,16.338-1.634,11.427-1.389,6.233-1.147,1.513-.139,5.229,1.217,11.145,1.625,17.568,2.082s15.161,1.632,24.621,2.582c0-4.175,0-6.262,0-10.423-9.46-1.04-24.623-2.819-24.623-2.819Z" transform="translate(245.405 280.81)" fill="#101631"/><path d="M87.178,270.427v7.47c11.239-.643,34.027-1.932,34.027-1.932l34.354-1.925,34.291-1.907,33.9-1.88,33.218-1.833,32.308-1.793,31.2-1.739,29.917-1.676,28.489-1.614,26.94-1.549,25.271-1.479,23.5-1.407,21.643-1.333,19.681-1.251,17.622-1.177L529,252.312l13.193-1,10.8-.914,8.265-.82,5.576-.724,2.707-.618.746.13,2.994.663,5.587.8,8.1.928,10.544,1.053,12.92,1.179,15.235,1.3,17.483,1.423,19.67,1.54,21.779,1.654,23.8,1.766,25.719,1.874,27.514,1.979,29.152,2.075,30.607,2.16L853.232,271c0-3.456,0-5.184.011-8.628-10.787-.843-31.835-2.494-31.835-2.494l-30.6-2.407-29.155-2.311-27.514-2.2-25.721-2.089-23.8-1.968-21.781-1.84-19.668-1.71-17.485-1.582-15.237-1.443-12.918-1.307-10.545-1.168-8.106-1.024-5.587-.883-2.994-.731-.746-.143-2.707.681-5.576.8-8.265.912-10.8,1.02L529,241.609l-15.466,1.221-17.622,1.318-19.681,1.407-21.643,1.5-23.5,1.582L405.816,250.3l-26.94,1.746-28.489,1.82-29.917,1.894-31.2,1.959-32.308,2.019-33.218,2.073-33.9,2.116-34.291,2.154L121.2,268.246S98.417,269.7,87.178,270.427Z" transform="translate(86.82 293.021)" fill="#101631"/><path d="M843.027,271.316c-11.2-.7-33.375-2.084-33.375-2.084l-32.7-2.035-31.707-1.979-30.459-1.9-29-1.831-27.38-1.741-25.614-1.658-23.738-1.56-21.768-1.468-19.708-1.371-17.564-1.269-15.347-1.168-13.043-1.06-10.643-.952-8.14-.847-5.506-.728-2.732-.605-.838.076-3.617.614-6.851.715-9.957.82-12.956.919-15.86,1.013-18.68,1.114-21.421,1.206-24.074,1.3-26.636,1.392-29.1,1.484-31.429,1.571-33.6,1.654L224,262.668l-37.3,1.8s-25.618,1.235-38.722,1.869v8.485c13.1-.54,38.722-1.591,38.722-1.591L224,271.7l35.578-1.479,33.6-1.412,31.429-1.342,29.1-1.266,26.636-1.192,24.074-1.116,21.421-1.038,18.68-.955,15.86-.881,12.956-.8,9.957-.71,6.851-.63,3.617-.54.838-.069,2.732.54,5.506.643,8.138.742,10.645.84,13.039.93,15.349,1.02,17.566,1.112,19.706,1.194,21.766,1.28,23.738,1.363,25.614,1.443,27.378,1.522,29,1.591,30.459,1.658,31.707,1.721,32.7,1.773s22.178,1.2,33.375,1.815C843.023,276.2,843.025,274.57,843.027,271.316Z" transform="translate(162.278 305.418)" fill="#101631"/><path d="M605.81,276.753l34.161,1.327s24.114.926,36.784,1.41c0-3.6,0-5.406.007-9-12.669-.585-36.786-1.708-36.786-1.708l-34.161-1.607-31.342-1.493-28.406-1.387-25.405-1.275-22.364-1.17-19.3-1.06-16.217-.959-13.088-.849-9.881-.746-6.56-.641-3.066-.529-1.181.166-4.993.551-9.1.639-13.113.726-17.077.825-21.028.914L338.706,261.9l-28.924,1.112-32.848,1.21-36.705,1.313s-26.347.921-40.41,1.407v9.352c14.063-.385,40.41-1.121,40.41-1.121l36.705-1.038,32.848-.966,28.924-.887,24.982-.811,21.028-.737,17.077-.67,13.113-.6,9.1-.531,4.993-.464,1.181-.143,3.066.453,6.558.545,9.883.627,13.084.713,16.219.8,19.3.885,22.364.968,25.405,1.058,28.4,1.15Z" transform="translate(226.622 317.837)" fill="#101631"/><path d="M427.914,270.2l-24.82-.928-18.595-.791-12.723-.663-6.932-.547-1.764-.132-6.264.493-13.6.581-21.32.681-29.7.791s-24.292.589-38.865.926v10.271c14.574-.22,38.865-.618,38.865-.618l29.7-.545,21.32-.48,13.6-.426,6.264-.381,1.764.108,6.932.43,12.723.509,18.595.6,24.816.693,31.564.8s24.639.6,38.877.932c0-3.982,0-5.979,0-9.955-14.233-.453-38.877-1.264-38.877-1.264Z" transform="translate(293.04 330.347)" fill="#101631"/><path d="M176.383,279.745v9.018c13.485.025,39.327.065,39.327.065l36.889.054,34.213.045,31.367.034,28.406.018,25.356,0,22.245-.013,19.085-.025,15.874-.047,12.6-.063,9.254-.085,5.809-.1,2.232-.125,1.309.11,4.359.139,7.275.139,10.063.141,12.732.146,15.327.15,17.848.15,20.313.157,22.721.164,25.06.164,27.324.173,29.48.179,31.495.184,33.314.188,34.874.2c0-3.469,0-5.2.007-8.666-11.849-.161-34.874-.48-34.874-.48l-33.314-.464-31.494-.441-29.482-.419-27.321-.4-25.065-.381-22.718-.356-20.316-.339-17.848-.318-15.327-.3-12.734-.28-10.058-.258-7.279-.238-4.359-.217-1.309-.161-2.232.191-5.809.193-9.254.188-12.6.186-15.874.188-19.085.19-22.245.193-25.356.19-28.406.2-31.367.2-34.213.211-36.889.211Z" transform="translate(197.534 342.815)" fill="#101631"/><path d="M751.908,297.342l32.57-.345s22.192-.237,33.451-.354c0-3.339,0-5.009.011-8.348-11.259.027-33.455.083-33.455.083l-32.57.078-31.394.079-29.986.069-28.388.065-26.64.058-24.776.047-22.81.043-20.76.034-18.635.018-16.441.009H517.916l-11.815-.018-9.37-.022-6.809-.043-4.126-.056s-1.221-.085-1.3-.06-1.927.058-1.927.058l-5.22.018-8.382-.016-11.432-.054-14.39-.081-17.268-.119-20.071-.148L383,288.16l-25.459-.206-28.025-.233-30.486-.262-32.805-.282-34.95-.309-36.88-.327-38.518-.343v8.7c13.075.211,38.518.616,38.518.616l36.88.594,34.95.558,32.805.527,30.486.486,28.025.444,25.459.4,22.8.356,20.071.314,17.268.262,14.39.215,11.432.17,8.382.114,5.22.061,1.927.009,1.3.009,4.126-.025,6.809-.052,9.37-.085,11.815-.108,14.168-.139,16.441-.164,18.635-.19,20.76-.211,22.81-.237,24.773-.258,26.638-.28,28.386-.3,29.986-.316Z" transform="translate(172.089 353.996)" fill="#101631"/><path d="M686.767,297.194l-7.626.143-30.309.567-28.29.533-26.143.493-23.89.453-21.557.41-19.148.368-16.678.32-14.121.28-11.488.231-8.749.181-5.878.13-2.851.078-.946-.016L465,301.246l-7.624-.2-11.029-.273-14.334-.352L414.446,300l-20.721-.491-23.819-.565-26.84-.63-29.778-.7-32.6-.76-35.273-.823-37.743-.876-39.934-.928v8.891c14.094.426,41.151,1.25,41.151,1.25l38.655,1.177,35.9,1.1,32.987,1.015,29.959.925,26.857.84,23.707.746,20.513.659,17.27.567,13.96.475,10.553.379,7.013.28,3.288.175,1-.038,3.991-.181,7.286-.26,10.5-.336,13.637-.41L522.721,311l19.843-.563,22.915-.641,25.959-.717,28.942-.789,31.831-.865,34.563-.93Z" transform="translate(186.81 363.973)" fill="#101631"/><path d="M284.641,316.633l34.381,1.589,29.585,1.4,24.876,1.2,20.248,1.017,15.659.838,11.029.654,6.253.466,1.557.155,3.519-.352,7.958-.52,12.353-.679,16.777-.849,21.3-1.02,25.943-1.195,30.694-1.385s22.873-1.013,35.51-1.564c0-3.924,0-5.883,0-9.807-12.633.45-35.506,1.271-35.506,1.271l-30.7,1.114-25.943.966-21.3.816-16.779.675-12.351.538-7.96.4-3.519.269-1.557-.117-6.253-.37-11.029-.531-15.659-.684-20.248-.843-24.876-1-29.585-1.161L284.641,306.6l-39.233-1.5-44.047-1.667v9.419c15.468.7,44.047,1.988,44.047,1.988Z" transform="translate(228.535 375.388)" fill="#101631"/><path d="M183.6,320.035c14.509.858,41.949,2.49,41.949,2.49l38.623,2.3,35.118,2.118,31.528,1.932,27.893,1.735,24.258,1.546,20.614,1.36,16.954,1.168,13.247.984,9.444.8,5.493.6,1.466.262,2.642-.453,6.306-.632,9.874-.8,13.4-.986,16.927-1.165,20.464-1.342,24.029-1.528,27.6-1.717,31.147-1.9s22.514-1.36,34.612-2.087c0-3.8,0-5.713,0-9.518-12.1.628-34.612,1.8-34.612,1.8l-31.147,1.636-27.6,1.475L519.8,321.422l-20.464,1.154-16.929,1-13.4.84-9.874.688-6.306.536-2.642.376-1.466-.22-5.493-.509-9.444-.684-13.247-.852-16.954-1.02-20.614-1.186-24.258-1.351-27.893-1.522-31.528-1.688-35.118-1.86L225.546,313.1s-27.44-1.432-41.949-2.187Z" transform="translate(206.487 384.669)" fill="#101631"/><path d="M936.165,322.434l-29.556,2-29.2,1.966L848.8,328.324,820.99,330.2l-26.826,1.818-25.683,1.748-24.4,1.672-23,1.593-21.488,1.5-19.874,1.41-18.169,1.32-16.374,1.212-14.5,1.107-12.53,1-10.484.885-8.341.766-6.107.645-3.77.515-1.318.383-1.392-.377-4.193-.547-6.844-.688-9.361-.827-11.75-.959L540.561,343.3l-16.192-1.2-18.247-1.32-20.2-1.432-22.057-1.533-23.81-1.634-25.443-1.726-26.965-1.815-28.357-1.9-29.605-1.972-30.7-2.033-31.607-2.093-32.31-2.136-32.783-2.169-32.985-2.19-32.886-2.192-32.436-2.176s-21.246-1.434-31.582-2.14v7.3c10.336.782,31.582,2.371,31.582,2.371l32.436,2.414,32.886,2.427,32.985,2.427,32.783,2.4,32.31,2.367,31.607,2.317,30.7,2.257,29.605,2.181,28.357,2.1,26.965,2.01,25.443,1.916,23.81,1.811,22.057,1.7,20.2,1.591,18.247,1.466,16.192,1.342,14.023,1.208,11.75,1.071,9.361.923,6.844.775,4.193.612,1.392.435,1.318-.439,3.77-.587,6.107-.731,8.341-.867,10.482-.993,12.532-1.127,14.5-1.244,16.374-1.365,18.169-1.475,19.872-1.587,21.488-1.685,23-1.784,24.4-1.876,25.683-1.957,26.824-2.037,27.805-2.1,28.61-2.158,29.2-2.2,29.556-2.237,29.634-2.248s19.677-1.5,29.4-2.243c0-3.077.007-4.617.014-7.7-9.724.668-29.4,2-29.4,2Z" transform="translate(68.474 385.573)" fill="#101631"/><path d="M577.4,338.612l-28.209,2.472L524.6,343.3l-20.963,1.95-17.36,1.7-13.765,1.441-10.159,1.194-6.5.943-2.748.686-1.477-.381-5.592-.876-9.646-1.138-13.539-1.4-17.331-1.658-21.064-1.914-24.782-2.167L331.2,339.244l-32.164-2.687-35.8-2.947-39.325-3.2-42.655-3.451v9.021c14.74,1.291,42.655,3.749,42.655,3.749l39.325,3.487,35.8,3.212,32.164,2.927L359.679,352l24.782,2.362,21.064,2.089,17.331,1.811,13.539,1.535,9.646,1.251,5.592.964,1.477.421,2.748-.762,6.5-1.04,10.157-1.316,13.767-1.585,17.357-1.865,20.963-2.142,24.585-2.429,28.209-2.716,31.793-3s22.958-2.145,35.277-3.288c0-3.758,0-5.643.009-9.408-12.324,1.04-35.282,3-35.282,3Z" transform="translate(203.575 404.585)" fill="#101631"/><path d="M713.253,332.937c-12.615,1.259-37.1,3.7-37.1,3.7l-35.345,3.528L607.5,343.5l-31.069,3.142-28.693,2.929-26.228,2.716-23.7,2.5L476.7,357.078l-18.469,2.066-15.762,1.847-12.958,1.618-10.025,1.385-6.916,1.143-3.57.883-1.022-.038-4.39-.957-8.637-1.291-12.837-1.625-17.032-1.959-21.228-2.3-25.444-2.642-29.65-2.987-33.816-3.333s-24.59-2.394-37.875-3.671v9.545c13.285,1.376,37.875,3.949,37.875,3.949l33.816,3.584,29.65,3.214,25.444,2.844,21.228,2.481,17.032,2.111,12.837,1.755,8.637,1.4,4.39,1.038,1.022.038,3.57-.959,6.916-1.239,10.022-1.5,12.958-1.75,15.764-2,18.467-2.237,21.111-2.472,23.693-2.7,26.228-2.936,28.691-3.169,31.071-3.393L640.8,349.2l35.347-3.81s24.482-2.636,37.1-4C713.249,338.013,713.251,336.323,713.253,332.937Z" transform="translate(248.034 412.006)" fill="#101631"/><path d="M295.193,367.829l30.856,3.85,25.793,3.337,20.829,2.848,15.941,2.367,11.1,1.9,6.217,1.434,1.54.52,3.317-1.161,7.431-1.56,11.356-1.95,15.188-2.335,18.993-2.727,22.819-3.124,26.694-3.534,30.6-3.953,34.509-4.377s24.932-3.131,38.323-4.8c0-3.662,0-5.493.007-9.164-13.393,1.558-38.325,4.487-38.325,4.487l-34.506,4.095-30.6,3.7-26.7,3.3-22.821,2.925-19,2.546-15.188,2.183-11.356,1.82-7.429,1.455-3.319,1.078-1.54-.48-6.217-1.342-11.1-1.779-15.941-2.216L351.842,364.5l-25.793-3.133-30.856-3.61-35.988-4.1s-26.571-2.978-41.124-4.594v9.509c14.554,1.719,41.124,4.892,41.124,4.892Z" transform="translate(249.286 427.474)" fill="#101631"/><path d="M641.517,363.031s24.977-3.494,37.969-5.3c0-3.4.007-5.1.009-8.512l-37.971,5L605.8,358.944l-33.231,4.428-30.58,4.117-27.841,3.8-25.053,3.487-22.223,3.173-19.37,2.864-16.461,2.546-13.474,2.23L407.2,387.5l-7.066,1.566-3.516,1.206-1.141-.2-5.007-1.367-9.549-1.831L366.83,384.58l-18.66-2.77-23.281-3.252-27.956-3.749-32.653-4.247s-24.108-3.082-37.312-4.744V375.4c13.2,1.759,37.312,5.02,37.312,5.02l32.653,4.489,27.956,3.965,23.281,3.442,18.66,2.931,14.092,2.432,9.549,1.939,5.007,1.45,1.141.217L400.136,400l7.066-1.661,10.363-2.024,13.474-2.369,16.459-2.7,19.368-3.039,22.225-3.366,25.051-3.7,27.841-4.032,30.58-4.368,33.231-4.7Z" transform="translate(260.317 432.209)" fill="#101631"/><path d="M493.1,374.858l-28.805,4.565-24.034,3.96-19.433,3.384L405.891,389.6l-10.47,2.3-5.9,1.759-1.522.585-4.52-1.6-10.184-2.232-15.858-2.88-21.676-3.557-27.718-4.265-34.029-5.02s-25.934-3.736-40.558-5.8V378.5c14.623,2.174,40.558,6.1,40.558,6.1l34.029,5.276,27.718,4.484,21.676,3.74,15.858,3.034,10.184,2.346,4.52,1.683,1.522-.619,5.9-1.858,10.468-2.42,14.937-2.985,19.428-3.568,24.036-4.173,28.805-4.809,33.727-5.48s24.993-4,38.745-6.17c0-3.7,0-5.563,0-9.285-13.752,2.062-38.744,5.856-38.744,5.856Z" transform="translate(268.365 450.314)" fill="#101631"/><path d="M963.488,351.618C954.441,353.16,935.8,356.3,935.8,356.3l-28.5,4.749-28.944,4.78L849.3,370.6l-28.886,4.727-28.48,4.653-27.862,4.552L737,388.962l-26.109,4.292-25.015,4.137-23.807,3.971-22.478,3.787-21.055,3.593L599,412.133l-17.92,3.178L564.87,418.26l-14.41,2.719-12.508,2.472-10.5,2.207-8.362,1.939-6.1,1.65-3.691,1.342-1.141.879-1.8-1.112-4.83-1.475-7.739-1.826-10.549-2.172-13.267-2.505-15.9-2.831L435.629,416.4l-20.9-3.451-23.265-3.754-25.522-4.038-27.662-4.312-29.668-4.572-31.519-4.809-33.182-5.036-34.621-5.233-35.8-5.4s-24.343-3.669-36.674-5.529v8.012c12.331,1.948,36.674,5.784,36.674,5.784l35.8,5.645,34.621,5.473,33.182,5.267,31.519,5.034,29.668,4.783,27.662,4.507,25.522,4.225,23.265,3.926,20.9,3.613,18.442,3.29,15.9,2.961,13.267,2.624,10.549,2.273,7.739,1.914,4.83,1.544,1.8,1.161,1.141-.917,3.691-1.41,6.1-1.73,8.362-2.031,10.5-2.315,12.51-2.591,14.408-2.848,16.212-3.091,17.92-3.33,19.536-3.554,21.053-3.77,22.478-3.969,23.8-4.16,25.018-4.336,26.109-4.5,27.064-4.646,27.859-4.776,28.478-4.874,28.89-4.951,29.056-5,28.94-5.011,28.5-4.982s18.644-3.283,27.691-4.9C963.481,355.824,963.484,354.424,963.488,351.618Z" transform="translate(148.424 435.191)" fill="#101631"/><path d="M571.417,389.034c0-3.624,0-5.439.007-9.074-13.182,2.394-37.306,6.827-37.306,6.827L501.306,392.9l-28.372,5.419-24.045,4.753-19.854,4.115-15.762,3.505-11.717,2.911-7.627,2.322-3.373,1.726-1.627-.814-6.517-2.14-11.643-2.833-16.811-3.548-22.115-4.287-27.617-5.067L270.9,393.084s-25.145-4.341-39.2-6.732v9.4c14.056,2.488,39.2,7.012,39.2,7.012l33.328,6.129,27.617,5.28,22.115,4.464,16.811,3.7,11.643,2.956,6.517,2.23,1.627.845,3.371-1.8,7.627-2.425,11.716-3.035,15.764-3.657,19.852-4.3,24.045-4.96,28.373-5.654,32.808-6.383S558.237,391.533,571.417,389.034Z" transform="translate(266.185 470.367)" fill="#101631"/><path d="M437.2,405.826,412.3,411.3l-19.321,4.543-14.065,3.689-8.947,2.869-3.727,2.075-2.275-1.289-8.53-2.77-15.094-3.756-22.019-4.816-29.5-5.968s-23.642-4.605-37.59-7.241v9.605c13.949,2.739,37.59,7.517,37.59,7.517l29.5,6.2,22.019,5,15.094,3.9,8.53,2.878,2.275,1.336,3.727-2.152,8.947-2.987,14.065-3.83,19.318-4.722,24.892-5.684,30.885-6.744s23.762-5.063,37.312-7.9c0-3.711,0-5.571,0-9.3-13.55,2.727-37.312,7.591-37.312,7.591Z" transform="translate(290.442 484.996)" fill="#101631"/><path d="M252.273,418.218l-35.714-6.932s-24.953-4.816-37.935-7.315v8.364c12.983,2.586,37.935,7.573,37.935,7.573l35.714,7.176,33.251,6.746,30.607,6.286,27.821,5.811,24.926,5.323,21.945,4.825,18.895,4.319L425.5,464.2l12.613,3.286,9.37,2.759,6.051,2.219,2.633,1.674.961-.735,3.673-1.854,6.394-2.313,8.94-2.743,11.336-3.156,13.606-3.545,15.775-3.926,17.839-4.29,19.825-4.643,21.723-4.984,23.534-5.314L625.033,431l26.873-5.937,28.364-6.224,29.7-6.484,30.858-6.721,31.783-6.916,32.42-7.071s21.808-4.774,32.716-7.169c.007-2.92.007-4.381.011-7.322-10.91,2.315-32.716,6.918-32.716,6.918l-32.422,6.82-31.784,6.678-30.86,6.484-29.7,6.255-28.366,6-26.873,5.728-25.257,5.435-23.536,5.13-21.723,4.812L534.7,441.9l-17.842,4.137-15.771,3.792-13.61,3.422L476.138,456.3l-8.94,2.647-6.394,2.232-3.673,1.793-.961.713-2.633-1.62-6.051-2.147-9.37-2.667L425.5,454.076,409.718,450.4l-18.895-4.171-21.945-4.664-24.926-5.143-27.821-5.616-30.607-6.076Z" transform="translate(200.314 466.887)" fill="#101631"/><path d="M619.505,412.333l-31.252,7.176-28.529,6.643L534,432.248,511.125,437.8l-19.984,5-17.064,4.455-14.1,3.909-11.08,3.355-7.956,2.795-4.7,2.212-1.331,1.174-2.7-1.847-6.7-2.512-10.587-3.16-14.392-3.8-18.162-4.446-21.9-5.092L334.823,434.1l-29.359-6.4-33.027-7.048-36.609-7.694s-26.14-5.446-40.026-8.317v8.51c13.886,2.965,40.026,8.588,40.026,8.588l36.609,7.943,33.027,7.277,29.359,6.6,25.638,5.925,21.9,5.258,18.162,4.585,14.392,3.924,10.587,3.261,6.7,2.588,2.7,1.9,1.331-1.212,4.7-2.282,7.956-2.884,11.076-3.467,14.106-4.036,17.064-4.6,19.984-5.168,22.871-5.735,25.724-6.3,28.534-6.865,31.25-7.418,33.843-7.958s23.785-5.56,36.228-8.46c0-3.263,0-4.9,0-8.182-12.441,2.806-36.226,8.189-36.226,8.189Z" transform="translate(221.635 490.828)" fill="#101631"/><path d="M177.283,403.738l-37.628-8.225v7.546c12.691,2.86,37.628,8.474,37.628,8.474l36.506,8.227,35.076,7.922,33.4,7.584,31.528,7.21,29.491,6.806,27.328,6.387,25.051,5.957,22.691,5.5,20.237,5.047L456.3,476.74l15.107,4.088,12.418,3.592,9.63,3.084,6.737,2.559,3.72,2.017.883.567,2.3-1.779,4.951-2.3,7.474-2.792,9.888-3.272,12.21-3.734,14.448-4.186,16.613-4.63,18.707-5.052,20.728-5.473,22.673-5.878,24.536-6.268,26.293-6.645,27.926-7,29.415-7.328,30.717-7.626,31.79-7.88s21.629-5.361,32.588-8.084c0-2.972,0-4.464.009-7.461-10.961,2.642-32.59,7.842-32.59,7.842l-31.79,7.638-30.717,7.4-29.417,7.111-27.927,6.788-26.293,6.445-24.534,6.08-22.678,5.7-20.73,5.307-18.7,4.9-16.616,4.491-14.448,4.061-12.21,3.626-9.888,3.176-7.472,2.714L507.1,480.77l-2.3,1.73-.883-.551-3.72-1.959-6.737-2.49-9.63-3-12.418-3.492L456.3,467.041l-17.712-4.435-20.237-4.9-22.691-5.343-25.051-5.782-27.328-6.2-29.491-6.609-31.528-7-33.4-7.358-35.076-7.694Z" transform="translate(151.95 489.356)" fill="#101631"/><path d="M702.423,423.564l-30.479,7.842-28.626,7.422L616.691,445.8l-24.522,6.51-22.337,6.035-20.08,5.554-17.776,5.054-15.405,4.558-12.983,4.052L493.1,481.1,485.2,484.1l-5.224,2.456-2.409,1.889-.95-.634-3.978-2.163-7.192-2.757-10.273-3.335-13.263-3.9-16.174-4.46-19.018-5-21.8-5.545-24.522-6.078-27.176-6.6-29.749-7.116-32.2-7.617-34.52-8.088-36.64-8.532s-25.39-5.9-38.5-8.933v7.741c13.111,3.122,38.5,9.182,38.5,9.182l36.64,8.772,34.52,8.317,32.2,7.828,29.749,7.319,27.176,6.786,24.522,6.246,21.8,5.7,19.018,5.143,16.174,4.579,13.263,4.009,10.273,3.427,7.192,2.828,3.978,2.216.95.654,2.409-1.941,5.222-2.523,7.907-3.086,10.486-3.633,12.983-4.164,15.405-4.689,17.772-5.2,20.083-5.706,22.335-6.208,24.522-6.7,26.625-7.174,28.623-7.633,30.484-8.07,32.158-8.471s22.185-5.831,33.59-8.826c0-3.048,0-4.579.007-7.653-11.4,2.911-33.592,8.579-33.592,8.579Z" transform="translate(179.188 503.618)" fill="#101631"/><path d="M154.922,412.5l-33.538-8.276s-22.2-5.506-33.133-8.238v6.54c10.932,2.8,33.133,8.451,33.133,8.451l33.538,8.5,33.576,8.46,33.294,8.371,32.743,8.225,31.943,8.032,30.934,7.8,29.742,7.532,28.388,7.239,26.893,6.912,25.264,6.566,23.527,6.2,21.676,5.809,19.731,5.4L510.316,511l15.542,4.541,13.3,4.079,10.959,3.6,8.51,3.106,5.95,2.591,3.256,2.046.766.515,2.1-1.835,4.455-2.353,6.7-2.851,8.841-3.321,10.876-3.772,12.824-4.211,14.675-4.628,16.448-5.029,18.133-5.412,19.728-5.775,21.235-6.127,22.646-6.457,23.953-6.764,25.143-7.051,26.2-7.306,27.115-7.539,27.864-7.73,28.417-7.884,28.76-7.992,28.843-8.05,28.648-8.037s18.875-5.336,28.119-7.969c0-2.58.007-3.875.014-6.477-9.245,2.566-28.124,7.759-28.124,7.759L943.569,412.5l-28.845,7.835-28.76,7.781-28.417,7.676-27.864,7.528-27.12,7.34-26.2,7.116-25.143,6.862-23.951,6.587-22.646,6.289-21.239,5.968-19.729,5.627-18.131,5.271-16.448,4.9-14.679,4.507-12.819,4.106-10.881,3.678-8.839,3.239-6.7,2.779-4.458,2.3-2.1,1.791-.766-.5-3.256-2-5.95-2.528-8.51-3.03L539.157,510.1l-13.3-3.98-15.542-4.426-17.682-4.852L472.9,491.576l-21.676-5.663L427.7,479.875l-25.264-6.4-26.893-6.739-28.388-7.05-29.742-7.342-30.934-7.6-31.943-7.826L221.792,428.9,188.5,420.748Z" transform="translate(88.152 490.26)" fill="#101631"/><path d="M1118.519,417.725l-25.5,7.528-26.5,7.725-27.18,7.846-27.572,7.9-27.7,7.911-27.6,7.857-27.286,7.768L902.4,479.894l-26.087,7.449-25.24,7.241-24.249,7-23.117,6.728-21.862,6.425-20.486,6.1-19,5.751-17.4,5.388-15.708,4.984-13.9,4.572-12,4.137-9.991,3.675-7.882,3.194-5.663,2.689-3.333,2.16-.939,1.188-1.865-1.806-4.61-2.371-7.21-2.9-9.659-3.409-11.97-3.886-14.146-4.334-16.2-4.76-18.124-5.166-19.926-5.54-21.6-5.892-23.162-6.226-24.59-6.528L456.6,498.95l-27.046-7.057-28.068-7.286-28.924-7.481-29.63-7.635-30.148-7.768-30.475-7.855-30.6-7.9-30.477-7.9-30.112-7.848-29.462-7.741-28.511-7.573-27.218-7.337-25.549-7.024-23.478-6.634-20.943-6.138s-12.505-3.814-17.913-5.556v5.345c5.408,1.782,17.913,5.686,17.913,5.686l20.943,6.289,23.478,6.791,25.549,7.194,27.218,7.517,28.511,7.756,29.462,7.931,30.112,8.043,30.477,8.093,30.6,8.095L312.784,469l30.148,7.956,29.63,7.828,28.924,7.665,28.068,7.461,27.046,7.237,25.885,6.974,24.59,6.685,23.162,6.374,21.6,6.04L571.76,538.9l18.124,5.287,16.2,4.874,14.146,4.438,11.97,3.976,9.659,3.485,7.21,2.969,4.61,2.423,1.865,1.842.939-1.21,3.333-2.208,5.663-2.752,7.882-3.268,9.991-3.763,12-4.233,13.9-4.684,15.708-5.112,17.4-5.515,19-5.894,20.486-6.255,21.86-6.591,23.117-6.894,24.247-7.174,25.242-7.423,26.087-7.642,26.772-7.819,27.281-7.961,27.6-8.059,27.7-8.111,27.57-8.1,27.18-8.048,26.5-7.911,25.5-7.721,24.155-7.436s15.278-4.785,22.411-7.069c.007-2.295.009-3.445.013-5.766-7.133,2.232-22.413,6.9-22.413,6.9Z" transform="translate(1.024 473.168)" fill="#101631"/><path d="M191.8,442.955l34.659,9.583L260,461.832l32.207,8.956,30.681,8.574,28.989,8.167,27.156,7.725,25.212,7.266,23.16,6.784,21.017,6.284,18.785,5.769,16.47,5.235,14.067,4.686,11.571,4.124,8.982,3.539,6.275,2.934,3.447,2.3.816.605,2.178-2.046,4.659-2.651,7.024-3.229,9.278-3.788,11.439-4.323,13.509-4.841,15.506-5.345,17.42-5.831,19.262-6.3,21.022-6.752,22.7-7.187,24.278-7.6,25.753-7.994,27.1-8.359,28.292-8.689,29.318-8.98,30.13-9.224,30.7-9.4s20.632-6.336,30.961-9.523c0-2.64,0-3.971.011-6.643-10.329,3.108-30.966,9.3-30.966,9.3l-30.694,9.188-30.13,9.009-29.318,8.772-28.3,8.487-27.1,8.164-25.75,7.813-24.28,7.427-22.7,7.024-21.022,6.6-19.265,6.156-17.42,5.7-15.506,5.226-13.509,4.733L551.977,523.9l-9.276,3.7-7.026,3.164-4.659,2.6-2.178,2.008-.816-.594-3.447-2.259-6.275-2.873-8.982-3.467-11.571-4.034-14.067-4.585-16.47-5.125-18.785-5.643-21.017-6.145-23.16-6.631-25.212-7.1-27.156-7.553-28.989-7.983-30.681-8.382L260,454.241l-33.547-9.083L191.8,435.792l-35.5-9.6s-23.96-6.486-36.01-9.756v6.717c12.051,3.346,36.01,9.982,36.01,9.982Z" transform="translate(127.914 515.179)" fill="#101631"/><path d="M113.729,420.376S92.368,414.235,81.9,411.2v6.027c10.47,3.1,31.831,9.368,31.831,9.368l32.4,9.462,32.626,9.471,32.532,9.413,32.167,9.294,31.559,9.117,30.739,8.893,29.735,8.633,28.57,8.33,27.25,8,25.809,7.635,24.245,7.257,22.568,6.847,20.8,6.419,18.929,5.964,16.967,5.5,14.908,5.007,12.761,4.5,10.506,3.967,8.155,3.406,5.688,2.833,3.106,2.234.73.536,2.026-2.01,4.3-2.584,6.452-3.142,8.505-3.671,10.464-4.18,12.331-4.67,14.11-5.13,15.811-5.578,17.429-6.006,18.96-6.416,20.41-6.8,21.764-7.172,23.023-7.515,24.17-7.833,25.206-8.124,26.107-8.377,26.86-8.6,27.443-8.785,27.839-8.917,28.016-9,27.942-9.016,27.595-8.971s18.1-5.921,26.925-8.837c0-2.373,0-3.568.011-5.97-8.826,2.851-26.927,8.649-26.927,8.649l-27.595,8.772-27.945,8.825-28.016,8.8-27.837,8.725-27.443,8.593-26.864,8.415-26.107,8.2-25.2,7.949-24.175,7.66-23.023,7.351-21.763,7.015L686.87,517.6l-18.96,6.282-17.429,5.881-15.813,5.461-14.11,5.025-12.331,4.567-10.464,4.1-8.505,3.6-6.452,3.081-4.3,2.544-2.026,1.972-.73-.527-3.106-2.194-5.688-2.781-8.155-3.348L548.3,547.373l-12.761-4.4-14.908-4.9-16.967-5.383-18.929-5.843-20.8-6.284-22.568-6.7-24.245-7.1-25.809-7.481-27.25-7.83-28.57-8.155-29.735-8.447-30.739-8.7-31.559-8.924-32.167-9.094-32.532-9.211-32.626-9.271Z" transform="translate(80.267 509.141)" fill="#101631"/><path d="M280.432,483.719l33.59,10.554,29.2,9.384,24.912,8.26,20.719,7.176,16.58,6.12,12.432,5.081,8.171,4.032,3.684,2.945,1.316-1.194,5.215-3.465,9.422-4.639,13.673-5.849,18.043-7.1,22.561-8.411,27.238-9.773s20.556-7.223,32.048-11.194c0-3.173,0-4.769,0-7.981-11.495,3.893-32.048,10.968-32.048,10.968l-27.243,9.581-22.561,8.243-18.043,6.963L445.67,519.16l-9.422,4.561-5.215,3.411-1.316,1.174-3.684-2.9-8.171-3.962-12.432-4.993-16.58-6.006L368.132,503.4l-24.912-8.1-29.2-9.2-33.59-10.345-38.052-11.517s-27.6-8.272-42.5-12.707v7.474c14.9,4.523,42.5,12.963,42.5,12.963Z" transform="translate(226.697 559.196)" fill="#101631"/><path d="M243.743,472.311,208.86,461.582l-36.169-11.1s-24.641-7.559-37.146-11.4V445.5c12.16,3.808,36.129,11.306,36.129,11.306l35.208,11.017,34.013,10.657,32.577,10.246,30.957,9.787,29.177,9.294,27.268,8.765,25.253,8.223,23.14,7.654,20.952,7.066,18.686,6.468,16.349,5.854,13.942,5.219,11.45,4.572,8.868,3.9,6.194,3.218,3.4,2.5.8.643,2.152-2.219,4.605-2.909L523.6,563.2l9.177-4.2,11.324-4.821,13.4-5.412,15.4-5.995,17.335-6.56,19.208-7.111,21.008-7.645,22.736-8.158,24.377-8.658,25.919-9.128,27.342-9.57,28.617-9.971,29.715-10.329,30.6-10.63s20.746-7.214,31.228-10.863c0-2.521,0-3.792.009-6.345-10.782,3.68-32.113,10.95-32.113,10.95l-31.443,10.71-30.49,10.4-29.312,10.02-27.942,9.6-26.418,9.135L648.5,507.254l-23.012,8.126-21.165,7.584-19.242,7.028-17.241,6.452-15.168,5.865-13.028,5.255L528.842,552.2l-8.494,3.989-6.089,3.321L510.7,562.13l-.991,1.342-2.093-2.19-5.11-2.943-8-3.671L483.742,550.3l-13.433-5.045-16.008-5.7L435.791,533.2l-20.927-6.972L391.6,518.646l-25.515-8.178-27.669-8.747-29.708-9.3L277.1,482.608Z" transform="translate(146.848 542.158)" fill="#101631"/><path d="M792.845,471.6,823.6,460.515s20.838-7.523,31.358-11.327c0-2.441,0-3.671.007-6.145-10.52,3.734-31.36,11.118-31.36,11.118l-30.753,10.887-29.883,10.585-28.8,10.226-27.523,9.814-26.1,9.361-24.565,8.881-22.915,8.377-21.181,7.844-19.368,7.3-17.488,6.73-15.538,6.149-13.516,5.554-11.43,4.94-9.26,4.305-7,3.653-4.646,2.969L511.464,574l-.811-.661-3.436-2.555-6.257-3.29-8.962-4-11.567-4.686-14.074-5.354-16.506-6-18.857-6.631-21.14-7.255-23.341-7.853-25.461-8.433-27.481-9-29.4-9.532L273,488.71l-32.8-10.5-34.217-10.923L170.581,456s-24.083-7.678-36.295-11.573v6.221c12.212,3.969,36.295,11.784,36.295,11.784l35.4,11.486,34.217,11.12,32.8,10.7,31.176,10.217,29.4,9.706,27.481,9.157,25.461,8.581,23.341,7.994,21.14,7.378,18.857,6.75,16.506,6.1,14.074,5.442L492,571.827l8.962,4.059,6.257,3.337,3.436,2.582.807.668,2.176-2.281,4.646-3.012,7-3.707,9.26-4.372,11.428-5.02,13.518-5.65,15.535-6.257,17.487-6.849,19.37-7.429,21.178-7.987,22.915-8.528,24.56-9.045,26.1-9.538,27.526-9.993,28.8-10.414Z" transform="translate(145.287 548.66)" fill="#101631"/><path d="M729.58,526.14l-26.658,9.986-24.65,9.336-22.537,8.657-20.352,7.963-18.1,7.248-15.8,6.528-13.458,5.793-11.073,5.056-8.646,4.3-6.174,3.545-3.648,2.768-1.078,1.654-1.786-2.158-4.61-2.911-7.241-3.615-9.709-4.278-12.037-4.906-14.24-5.5-16.336-6.08L473.1,562.9l-20.253-7.165-22.089-7.678-23.843-8.171L381.4,531.229l-27.1-9.11-28.585-9.543-29.957-9.95L264.573,492.3,232.312,481.64,199.175,470.7,165.4,459.529l-34.13-11.32s-22.8-7.589-34.134-11.38v5.556c11.336,3.857,34.134,11.575,34.134,11.575l34.13,11.513,33.774,11.36,33.137,11.132,32.261,10.842,31.19,10.5,29.957,10.123,28.585,9.706,27.1,9.265,25.513,8.8,23.843,8.31,22.089,7.808L473.1,570.6l18.341,6.739,16.336,6.174,14.24,5.589,12.037,4.982,9.709,4.334,7.241,3.664,4.61,2.943L557.4,607.2l1.078-1.663,3.648-2.8,6.174-3.59,8.646-4.366,11.073-5.132,13.458-5.883,15.8-6.636,18.1-7.367,20.349-8.1,22.539-8.808,24.648-9.493L729.574,533.2l28.54-10.787s19.908-7.49,30.258-11.371c0-2.651,0-3.987,0-6.683-10.349,3.815-30.257,11.174-30.257,11.174Z" transform="translate(99.18 540.948)" fill="#101631"/><path d="M74.838,439.06c10.4,3.711,31.685,11.241,31.685,11.241l32.362,11.383L171.538,473.1l32.613,11.349,32.292,11.219,31.727,11.011,30.957,10.753,30,10.446,28.9,10.1,27.664,9.713,26.311,9.294,24.847,8.855,23.285,8.389,21.631,7.9,19.885,7.382,18.043,6.84,16.107,6.28,14.065,5.69,11.9,5.067,9.626,4.413,7.2,3.725,4.612,2.99,1.849,2.208.988-1.517,3.465-2.774,5.917-3.568,8.294-4.336,10.614-5.1,12.871-5.833,15.074-6.557,17.214-7.266,19.289-7.954,21.3-8.624,23.213-9.269,25.031-9.892,26.732-10.468,28.285-11.008,29.666-11.495s20.39-7.889,30.836-11.923c0-2.443,0-3.675.007-6.163-10.446,3.969-30.836,11.726-30.836,11.726L803.351,526l-28.287,10.831-26.73,10.3L723.3,556.862l-23.213,9.124-21.293,8.492-19.292,7.83-17.212,7.154-15.076,6.459-12.873,5.753-10.614,5.02-8.294,4.287-5.917,3.526-3.465,2.752-.988,1.5-1.849-2.194-4.612-2.958-7.2-3.678-9.626-4.359-11.9-5-14.065-5.609L519.7,588.777l-18.043-6.741-19.885-7.27-21.631-7.772-23.285-8.258L412.01,550.02l-26.311-9.15-27.664-9.556-28.9-9.937-30-10.278-30.957-10.58-31.727-10.836L204.15,478.645l-32.613-11.172L138.885,456.24l-32.362-11.2s-21.284-7.414-31.685-11.062Z" transform="translate(71.505 537.411)" fill="#101631"/><path d="M90.334,444.388l-26.555-9.827s-16.815-6.32-24.675-9.33v4.455c7.86,3.057,24.675,9.466,24.675,9.466l26.555,9.973,28,10.361,29.061,10.636,29.789,10.811,30.215,10.9,30.372,10.914,30.291,10.858,30,10.74,29.522,10.571,28.875,10.354,28.074,10.087,27.133,9.794,26.069,9.451,24.885,9.083,23.59,8.684L508.4,600.63l20.686,7.792,19.074,7.308,17.369,6.791,15.544,6.246,13.617,5.67,11.569,5.058,9.4,4.415,7.082,3.729,4.626,3.008,2.008,2.234.8-1.1,3.052-2.635,5.356-3.406,7.575-4.144,9.715-4.868,11.781-5.554,13.772-6.232,15.685-6.883,17.521-7.505,19.274-8.106,20.941-8.682,22.508-9.22,23.962-9.731,25.3-10.206,26.5-10.63,27.537-11.008,28.4-11.329,29.058-11.587,29.48-11.766s19.762-7.9,29.632-11.858c0-2.138,0-3.218.007-5.394-9.87,3.9-29.632,11.674-29.632,11.674L938.113,514.3,909.054,525.7l-28.4,11.154-27.541,10.838-26.5,10.468-25.3,10.049L777.348,577.8l-22.508,9.083L733.9,595.43l-19.274,7.987-17.523,7.4L681.419,617.6l-13.772,6.147-11.784,5.486-9.715,4.8-7.575,4.1-5.356,3.37-3.052,2.616-.8,1.1-2.008-2.223-4.626-2.979-7.082-3.693-9.4-4.361-11.569-5-13.617-5.594-15.544-6.163-17.369-6.7L529.084,601.3,508.4,593.622l-22.189-8.131-23.59-8.557-24.885-8.946-26.069-9.314-27.133-9.641-28.074-9.939L327.583,528.9l-29.522-10.41-30-10.578-30.291-10.7L207.4,486.463l-30.215-10.737-29.789-10.652L118.332,454.6Z" transform="translate(27.155 526.554)" fill="#101631"/><path d="M1086.615,490.953,1058.967,502.3l-28.153,11.481-28.361,11.521-28.31,11.472-28.021,11.342-27.514,11.14-26.819,10.881-25.948,10.567L840.929,590.9l-23.736,9.774-22.427,9.312L773.778,618.8l-19.437,8.274-17.781,7.7-16.015,7.091L706.4,648.313l-12.187,5.78-10.13,5.083-7.969,4.35L670.4,667.1l-3.348,2.786-.946,1.455-1.867-2.237-4.612-3.057-7.187-3.837-9.6-4.563L630.963,652.4l-14-5.892-15.988-6.5-17.853-7.062-19.581-7.6-21.2-8.086-22.676-8.543-24.04-8.965-25.271-9.35-26.371-9.693-27.335-10.007L388.5,560.452l-28.827-10.488L330.335,539.3l-29.663-10.78-29.809-10.847L241.12,506.829l-29.455-10.791L182.75,485.381l-28.11-10.437-27.005-10.139-25.578-9.74L78.27,445.837l-21.6-8.606-18.985-7.853L21.8,422.422s-8.841-4.128-12.259-5.9v3.931c3.418,1.791,12.259,5.964,12.259,5.964l15.885,7.033L56.667,441.4l21.6,8.718,23.787,9.357,25.578,9.872,27.005,10.28,28.11,10.587,28.915,10.807L241.12,511.97l29.742,11.008,29.809,11,29.663,10.937,29.334,10.813L388.5,566.371l28.157,10.414,27.335,10.15,26.371,9.832,25.271,9.48,24.04,9.092L542.347,624l21.2,8.2,19.581,7.7,17.853,7.156,15.988,6.58,14,5.964,11.873,5.309,9.6,4.614,7.187,3.87,4.612,3.082,1.867,2.246.946-1.461,3.348-2.8,5.713-3.615,7.969-4.395,10.125-5.137,12.192-5.856,14.148-6.535,16.015-7.187,17.779-7.806,19.437-8.388,20.988-8.938,22.427-9.444,23.733-9.917L865.838,586.9l25.943-10.719L918.6,565.136l27.514-11.3,28.018-11.513,28.308-11.638,28.361-11.694,28.153-11.649,27.651-11.517,26.822-11.271s17.333-7.349,25.641-10.908c0-1.8,0-2.714.009-4.556-8.306,3.51-25.638,10.755-25.638,10.755Z" transform="translate(-9.539 515.746)" fill="#101631"/><path d="M118.879,468.452l30.459,11.7,30.845,11.775,30.936,11.768L241.9,515.37l30.4,11.522L302.136,538.2l29.094,11.042,28.207,10.735,27.191,10.379,26.053,10,24.807,9.578,23.469,9.135,22.028,8.657,20.5,8.153,18.877,7.631,17.169,7.077,15.361,6.49,13.456,5.883,11.439,5.235,9.3,4.561,7.039,3.839,4.63,3.075,2.064,2.27.749-.961,2.929-2.642,5.215-3.46,7.429-4.26,9.576-5.036,11.661-5.786,13.687-6.526,15.643-7.239,17.544-7.938,19.372-8.608,21.118-9.258,22.783-9.881L774.87,579.88l25.786-11.013,27.1-11.515,28.24-11.963,29.2-12.342,29.944-12.653c0-2.093,0-3.146.007-5.285L885.2,527.588,856,539.76l-28.245,11.8-27.1,11.358L774.872,573.78,750.527,584.1l-22.779,9.747-21.123,9.137-19.37,8.5-17.543,7.835-15.645,7.151-13.687,6.45-11.661,5.724-9.574,4.98-7.432,4.22L606.5,651.28l-2.929,2.636-.749.957-2.064-2.264-4.63-3.059-7.039-3.805-9.3-4.516-11.439-5.181-13.456-5.816-15.361-6.417-17.169-6.99-18.877-7.537-20.5-8.052-22.028-8.545-23.469-9.011-24.807-9.451-26.053-9.865-27.191-10.24L331.23,543.534,302.136,532.64,272.3,521.486l-30.4-11.365L211.119,498.6l-30.936-11.607-30.845-11.62-30.459-11.539L89.131,452.466S69.8,445.021,60.476,441.395v4.321c9.323,3.678,28.655,11.219,28.655,11.219Z" transform="translate(53.68 546.615)" fill="#101631"/><path d="M116.022,471.738l28.4,11.28L173.556,494.5l29.585,11.6,29.776,11.629,29.74,11.584,29.5,11.479L321.232,552.1l28.491,11.1,27.756,10.829,26.891,10.522,25.9,10.175,24.8,9.8,23.588,9.384,22.274,8.94,20.865,8.46,19.352,7.954,17.75,7.418,16.044,6.849,14.233,6.253,12.313,5.614,10.28,4.946,8.124,4.238,5.831,3.487,3.4,2.69.9,1.21,1.636-2.165,3.9-3L641.64,673l8.2-4.59,10.228-5.349,12.189-6.08,14.083-6.791,15.9-7.472,17.647-8.133,19.312-8.763,20.889-9.365,22.373-9.933,23.756-10.468,25.015-10.959,26.143-11.4,27.12-11.793,27.927-12.122,28.534-12.384,28.917-12.561s19.374-8.431,29.047-12.651c0-1.865.007-2.815.009-4.724-9.673,4.164-29.047,12.483-29.047,12.483l-28.919,12.4-28.536,12.221L884.5,556.524l-27.12,11.638L831.232,579.42l-25.015,10.815L782.46,600.571l-22.373,9.807L739.2,619.63l-19.314,8.653-17.644,8.037-15.9,7.387-14.083,6.714-12.189,6.017-10.228,5.294-8.2,4.552-6.082,3.783-3.9,2.985-1.636,2.163-.9-1.213-3.4-2.678-5.831-3.467-8.124-4.2-10.28-4.9-12.313-5.558-14.233-6.183L558.9,640.234l-17.75-7.331L521.8,625.04l-20.865-8.359-22.274-8.828-23.588-9.265-24.8-9.677-25.9-10.047-26.891-10.39-27.756-10.692-28.491-10.952-29.079-11.167-29.5-11.331L232.916,512.9l-29.776-11.481-29.585-11.452-29.132-11.34-28.4-11.141L88.68,456.644,62.764,446.23s-16.414-6.685-24.09-9.87v3.882c7.676,3.218,24.09,9.984,24.09,9.984L88.68,460.77Z" transform="translate(26.621 540.366)" fill="#101631"/><path d="M839.5,551.4l30.331-13.5c0-1.956,0-2.947,0-4.957-10.267,4.511-30.331,13.337-30.331,13.337L810.256,559.16l-27.963,12.362-26.5,11.773-24.9,11.141L707.707,604.89l-21.365,9.751-19.462,9-17.487,8.24-15.45,7.459L620.594,646l-11.2,5.825-8.985,4.986-6.712,4.126-4.381,3.241-1.972,2.335-.809-.838-3.317-2.712-5.89-3.568-8.306-4.366L558.45,649.9l-12.716-5.849-14.744-6.524-16.669-7.18-18.494-7.8-20.233-8.391L453.718,605.2l-23.435-9.5-24.9-10.007L379.109,575.2l-27.537-10.937-28.686-11.351-29.7-11.721-30.569-12.044-31.257-12.313-31.743-12.517L167.624,491.68,135.655,479l-31.627-12.613s-20.773-8.33-30.914-12.423V458c10.141,4.142,30.914,12.573,30.914,12.573l31.627,12.761,31.97,12.833,31.992,12.794,31.743,12.669,31.257,12.465,30.569,12.192,29.7,11.867,28.686,11.488,27.537,11.067,26.273,10.616,24.9,10.123,23.435,9.61,21.876,9.061,20.233,8.485,18.494,7.884,16.669,7.25,14.744,6.593,12.716,5.9,10.573,5.17,8.306,4.4,5.89,3.583,3.317,2.714.809.836,1.972-2.333,4.381-3.254,6.712-4.148,8.985-5.027,11.2-5.883,13.35-6.715,15.45-7.534,17.485-8.335,19.462-9.11,21.367-9.861,23.18-10.583,24.9-11.273,26.5-11.918,27.96-12.51Z" transform="translate(69.365 562.217)" fill="#101631"/><path d="M185.573,507.717l33.991,13.87,32.893,13.438,31.613,12.936,30.172,12.391,28.606,11.8,26.945,11.176,25.2,10.538,23.384,9.867,21.5,9.187,19.554,8.483,17.534,7.759,15.439,7.015,13.252,6.239,10.957,5.435,8.539,4.585,5.959,3.687,3.2,2.734.751.334,2.461-2.579,5.078-3.617,7.653-4.644,10.193-5.661,12.7-6.679,15.2-7.678,17.662-8.687,20.1-9.679,22.5-10.663,24.836-11.627,27.091-12.564s19.146-8.825,29.224-13.456c0-2.037,0-3.068,0-5.161-10.081,4.576-29.224,13.305-29.224,13.305l-27.093,12.418-24.836,11.5-22.5,10.551-20.1,9.576-17.662,8.6-15.2,7.613-12.7,6.618-10.193,5.618-7.653,4.621-5.078,3.6-2.461,2.584-.751-.336-3.2-2.736-5.959-3.673-8.539-4.558-10.957-5.4L492.4,630.214l-15.439-6.952-17.534-7.682-19.554-8.4-21.5-9.09-23.384-9.767-25.2-10.421-26.945-11.053-28.606-11.667L284.07,542.938l-31.613-12.792-32.893-13.281L185.573,503.15l-34.84-14.068s-23.541-9.516-35.389-14.316V479c11.849,4.859,35.389,14.484,35.389,14.484Z" transform="translate(121.776 588.032)" fill="#101631"/><path d="M113.758,481.8c11.43,4.79,34.215,14.319,34.215,14.319l33.852,14.137L215.016,524.1l32.288,13.48,31.178,13.036,29.908,12.535,28.489,11.99,26.952,11.4,25.32,10.78,23.592,10.13,21.79,9.457,19.919,8.756,17.969,8.034L488.374,641l13.855,6.522,11.679,5.726,9.406,4.9,7.024,4.036,4.525,3.133,1.88,2.178.861-1.262,3.155-2.759,5.451-3.7,7.669-4.6,9.821-5.48,11.921-6.342,13.96-7.183,15.957-8.01,17.893-8.816,19.782-9.605,21.6-10.37,23.352-11.109,25.015-11.817,26.571-12.479s2.178-1.022,3.258-1.526v-4.37c-2.683,1.1-5.383,2.21-8.254,3.382-10.19,4.729-29.558,13.752-29.558,13.752l-27.42,12.851-25.166,11.9L629.8,610.867l-20.4,9.91-17.945,8.89L576,637.534l-12.936,6.833-10.392,5.8-7.826,4.749-5.22,3.7-2.568,2.624-.746-.224-3.169-2.727-5.975-3.716-8.592-4.641-11.046-5.515-13.377-6.345-15.594-7.143-17.716-7.907-19.758-8.653-21.728-9.37-23.626-10.074-25.464-10.753-27.216-11.407-28.888-12.042-30.455-12.64-31.891-13.191-33.166-13.7-34.247-14.135-35.067-14.482s-23.677-9.794-35.584-14.731Z" transform="translate(119.809 591.843)" fill="#101631"/><path d="M150.4,500.614l32.346,13.816,32.108,13.691,31.62,13.467,30.914,13.176,30.02,12.808,28.969,12.385,27.767,11.916,26.452,11.4,25.02,10.845,23.494,10.253L460.981,634l20.163,8.98,18.37,8.3,16.5,7.588,14.534,6.851,12.481,6.08,10.331,5.273,8.073,4.431,5.7,3.545,3.2,2.615.775.789,1.871-2.192,4.139-3.135,6.32-4.05,8.418-4.928,10.45-5.782,12.409-6.607,14.3-7.407,16.132-8.187,17.9-8.938,19.592-9.661,21.206-10.357,22.741-11.024,24.177-11.645,25.5-12.225,26.7-12.756,27.749-13.225,28.621-13.626,29.287-13.942s19.769-9.417,29.713-14.159c0-1.5,0-2.273,0-3.83-9.946,4.7-29.713,14.016-29.713,14.016l-29.287,13.8-28.621,13.482-27.752,13.093-26.7,12.624-25.5,12.1-24.177,11.528-22.741,10.914L682.629,622.6l-19.589,9.572-17.9,8.855-16.132,8.119-14.3,7.349L602.3,663.05l-10.45,5.744-8.418,4.908-6.32,4.038-4.139,3.138-1.871,2.207-.775-.8-3.2-2.629-5.7-3.543-8.073-4.415-10.331-5.246-12.481-6.04-14.534-6.8-16.5-7.528-18.37-8.229-20.163-8.9-21.873-9.543-23.494-10.157-25.02-10.74-26.452-11.288-27.767-11.795-28.969-12.259-30.02-12.682-30.914-13.039-31.62-13.332-32.108-13.55L150.4,496.9l-32.3-13.7s-21.378-9.1-31.909-13.6v3.445C96.723,477.591,118.1,486.78,118.1,486.78Z" transform="translate(85.596 581.617)" fill="#101631"/><path d="M951.2,528.2l-27.745,13.362-27.463,13.2-26.976,12.972L842.7,580.4l-25.49,12.288L792.68,604.554l-23.447,11.378-22.254,10.856-20.966,10.289-19.581,9.693-18.124,9.059-16.58,8.393-14.975,7.7-13.29,6.983-11.539,6.233-9.718,5.457-7.821,4.653-5.852,3.816-3.794,2.947-1.659,2.042-.791-.935-3.142-2.541-5.5-3.436-7.745-4.281-9.879-5.087-11.9-5.854-13.83-6.587-15.659-7.286-17.4-7.954-19.063-8.588-20.63-9.191-22.111-9.765-23.5-10.3-24.789-10.8-25.975-11.273-27.053-11.7-28-12.077L297.3,563.992l-29.477-12.685-29.97-12.893-30.266-13.036-30.351-13.1-30.183-13.066L117.3,486.279l-29-12.687s-18.823-8.283-27.9-12.308v2.96c9.077,4.059,27.9,12.418,27.9,12.418l29,12.8,29.751,13.052,30.183,13.191,30.351,13.223,30.266,13.16,29.97,13.021L297.3,567.918l28.816,12.526,28,12.194,27.053,11.808,25.975,11.378,24.789,10.905,23.5,10.394,22.111,9.852,20.63,9.267,19.063,8.66,17.4,8.014,15.659,7.335,13.83,6.634,11.9,5.885,9.879,5.108,7.745,4.292,5.5,3.431,3.142,2.533.791.921,1.659-2.021,3.794-2.94,5.852-3.819,7.821-4.668,9.718-5.486,11.539-6.273,13.29-7.031,14.975-7.763,16.58-8.462,18.124-9.137,19.581-9.778,20.963-10.383,22.252-10.957,23.447-11.488,24.531-11.974,25.49-12.407,26.311-12.786,26.976-13.1,27.463-13.337,27.745-13.489,27.8-13.543s18.46-9.016,27.59-13.494c0-1.291,0-1.95,0-3.292C997.455,505.86,979,514.788,979,514.788Z" transform="translate(53.582 571.3)" fill="#101631"/><path d="M152.9,508.044l32.086,14.22,31.795,14.077,31.264,13.832,30.531,13.509L308.2,576.806l28.552,12.68L364.1,601.664l26.033,11.642,24.612,11.058,23.1,10.446,21.492,9.8,19.809,9.121,18.045,8.411,16.2,7.68,14.271,6.907,12.261,6.114,10.152,5.278,7.945,4.406,5.621,3.489,3.174,2.53.782.8,1.786-2.053,4-3.034,6.143-3.978,8.2-4.89,10.19-5.773,12.12-6.634,13.982-7.465,15.784-8.272,17.528-9.054,19.2-9.809,20.8-10.538,22.328-11.23,23.76-11.883,25.092-12.494,26.3-13.061,27.366-13.554,28.265-13.984,28.971-14.332S899,527.62,908.867,522.732c0-1.289,0-1.948,0-3.3-9.865,4.843-29.446,14.446-29.446,14.446l-28.969,14.2-28.267,13.859-27.366,13.435-26.3,12.94L743.43,600.7l-23.76,11.782-22.33,11.136-20.8,10.448-19.2,9.733-17.526,8.987L624.023,661l-13.982,7.418-12.12,6.6-10.19,5.748-8.2,4.877-6.143,3.978-4,3.044-1.786,2.08-.782-.816-3.174-2.55-5.621-3.5-7.945-4.4-10.152-5.258-12.261-6.082-14.271-6.869-16.2-7.629-18.045-8.355-19.809-9.052-21.492-9.72-23.1-10.361-24.612-10.968L364.1,597.637l-27.348-12.073L308.2,573l-29.616-13.01L248.049,546.6l-31.264-13.709L184.99,518.944,152.9,504.85l-32.1-14.139s-21.288-9.4-31.795-14.061v2.945c10.506,4.7,31.795,14.186,31.795,14.186Z" transform="translate(89.094 590.371)" fill="#101631"/><path d="M81.3,478.345c10.076,4.594,30.594,13.911,30.594,13.911l31.1,14.081L174.28,520.46l31.2,14.056,30.86,13.893,30.313,13.642,29.587,13.326,28.7,12.94,27.667,12.5,26.51,12.015,25.244,11.483,23.879,10.912,22.425,10.309,20.878,9.673,19.26,9,17.557,8.308,15.773,7.575,13.911,6.815,11.959,6.017,9.915,5.195,7.772,4.321,5.518,3.411,3.144,2.454.793.852,1.674-1.93,3.828-2.9,5.9-3.844,7.9-4.749,9.823-5.63,11.685-6.479,13.48-7.3,15.217-8.1,16.889-8.87,18.5-9.608,20.036-10.325,21.5-11,22.873-11.647,24.155-12.246,25.322-12.8,26.362-13.3,27.252-13.722L877.5,550.633l28.489-14.345s19.166-9.657,28.776-14.509c0-1.143,0-1.732.007-2.934-9.612,4.807-28.776,14.386-28.776,14.386L877.5,547.453l-27.971,13.962-27.252,13.606L795.916,588.2l-25.325,12.691-24.155,12.147-22.875,11.553-21.5,10.917-20.036,10.246-18.5,9.54-16.891,8.81-15.217,8.048-13.48,7.264-11.685,6.448-9.823,5.607-7.9,4.744-5.9,3.85-3.828,2.918-1.674,1.956-.793-.867L573.2,701.6l-5.518-3.42-7.772-4.323-9.915-5.177-11.959-6L524.125,675.9l-15.773-7.533L490.8,660.111l-19.26-8.942-20.878-9.6-22.425-10.231L404.353,620.5,379.109,609.11,352.6,597.2l-27.667-12.4-28.7-12.835L266.65,558.752l-30.313-13.525-30.86-13.778-31.2-13.94L142.994,503.5l-31.1-13.964S91.381,480.3,81.3,475.739Z" transform="translate(79.531 589.24)" fill="#101631"/><path d="M949.367,538.864l-27.7,14.072-27.407,13.91-26.911,13.662-26.243,13.33-25.416,12.929-24.453,12.465-23.37,11.952-22.176,11.387L724.8,653.354,705.3,663.486l-18.052,9.449-16.515,8.738-14.908,7.99-13.234,7.21L631.1,703.277l-9.67,5.567-7.781,4.693-5.82,3.792-3.774,2.851-1.641,1.876-.793-.852-3.138-2.42L593,715.4l-7.723-4.3-9.843-5.166-11.86-5.995-13.778-6.788-15.609-7.539-17.344-8.258-19-8.944-20.56-9.594-22.039-10.211-23.42-10.791L407.109,626.49l-25.9-11.833-26.974-12.288-27.927-12.7-28.745-13.055-29.41-13.343L238.249,549.7l-30.212-13.72-30.3-13.783-30.156-13.749-29.731-13.6-29-13.33s-18.834-8.7-27.918-12.918v2.181c9.083,4.247,27.918,13.01,27.918,13.01l29,13.427,29.731,13.7,30.156,13.857,30.3,13.89,30.212,13.828,29.908,13.68,29.41,13.451,28.745,13.158,27.927,12.795,26.974,12.384,25.9,11.925,24.713,11.412,23.42,10.867,22.039,10.282,20.56,9.657,19,9,17.344,8.305,15.609,7.58L563.57,703.8l11.86,6.015,9.843,5.17L593,719.276l5.491,3.368,3.138,2.389.793.832,1.641-1.836,3.774-2.835,5.82-3.783,7.781-4.7,9.67-5.578,11.486-6.43,13.234-7.246,14.908-8.032,16.515-8.787L705.3,667.13,724.8,656.924,745.69,646.07,767.866,634.6l23.37-12.044,24.455-12.566,25.416-13.03,26.241-13.44,26.911-13.769,27.407-14.023,27.7-14.184L977.126,527.3s18.44-9.478,27.566-14.18c0-.953,0-1.448.007-2.461-9.126,4.666-27.568,14.074-27.568,14.074Z" transform="translate(54.243 580.375)" fill="#101631"/></g></svg>