<svg xmlns="http://www.w3.org/2000/svg" width="823.4" height="872.252" viewBox="0 0 823.4 872.252">
  <g id="Groupe_51" data-name="Groupe 51" transform="translate(-9.539 -0.539)" opacity="0.07">
    <g id="Groupe_41" data-name="Groupe 41" transform="translate(9.539 0.539)">
      <path id="Tracé_78" data-name="Tracé 78" d="M88.56,151.6l19.563-8.466,20.022-8.627,20.281-8.717,20.357-8.731,20.275-8.687,20.05-8.584,19.7-8.437,19.233-8.244L266.707,75.1l18-7.745,17.261-7.442,16.441-7.114,15.547-6.757,14.582-6.372L362.1,33.7l12.466-5.533,11.308-5.076,10.091-4.6,8.806-4.09,7.453-3.557,6.03-3,4.524-2.408,2.944-1.79,1.269-1.134.509.536,1.935,1.5,3.376,2.155,4.757,2.781,6.085,3.381L451,16.827l8.572,4.512,9.741,5.045,10.856,5.552,11.92,6.04,12.928,6.5,13.88,6.939,14.769,7.349,15.589,7.728L565.6,74.571l17,8.388,17.572,8.657,18.038,8.88,18.388,9.049,18.6,9.16,18.671,9.208,18.564,9.174s12.251,6.07,18.268,9.058c0-.5,0-.738,0-1.2-6.017-3.008-18.27-9.118-18.27-9.118l-18.564-9.241L655.2,117.319l-18.6-9.228-18.388-9.117-18.039-8.946L582.6,81.309l-17-8.446-16.338-8.134-15.591-7.78L518.9,49.55l-13.88-6.983-12.93-6.538-11.92-6.074-10.856-5.578-9.741-5.067L451,14.786l-7.357-3.966-6.082-3.379-4.757-2.77L429.43,2.532,427.5,1.057l-.509-.518-1.269,1.1-2.944,1.769-4.524,2.4-6.03,2.99-7.453,3.562-8.806,4.1-10.091,4.612-11.308,5.1L362.1,31.727l-13.556,6-14.582,6.413-15.547,6.8L301.973,58.1,284.712,65.6l-18,7.8L248.04,81.467l-19.233,8.3-19.7,8.5-20.05,8.651-20.275,8.75-20.357,8.8-20.281,8.774-20.022,8.69L88.56,150.458l-18.879,8.264s-12.149,5.344-17.942,7.909v1.048c5.793-2.549,17.942-7.861,17.942-7.861Z" transform="translate(11.414 -0.539)" fill="#101631"/>
      <path id="Tracé_79" data-name="Tracé 79" d="M84.994,154.57l19.473-8.315,20.034-8.514,20.389-8.635,20.559-8.686L186,111.75l20.4-8.6,20.1-8.475,19.681-8.3,19.138-8.087,18.491-7.83,17.746-7.539L318.47,55.7l15.983-6.85,14.98-6.461,13.9-6.043,12.74-5.6,11.513-5.123,10.212-4.624,8.836-4.094,7.391-3.545,5.869-2.959,4.273-2.35,2.594-1.709.832-.973.862,1.088,2.382,1.752,3.824,2.385,5.185,2.983,6.48,3.553,7.7,4.089,8.853,4.6,9.943,5.081,10.968,5.533L495.714,42.4l12.822,6.357,13.653,6.725L536.6,62.544l15.1,7.375,15.714,7.653,16.243,7.891,16.691,8.1,17.042,8.261,17.3,8.381,17.436,8.454,17.455,8.476,17.343,8.437,17.087,8.337,16.668,8.167L736.749,160l15.285,7.589,1.531.765V167.1l-3.488-1.754-15.989-7.981-16.8-8.325-17.39-8.575-17.786-8.737L664.1,122.9l-18.07-8.838-17.991-8.791-17.777-8.683-17.447-8.526-17.008-8.319-16.469-8.071L543.5,63.892l-15.128-7.457-14.338-7.1L500.561,42.63,488.02,36.344l-11.541-5.838L466,25.149,456.641,20.3l-8.168-4.32-6.918-3.761L435.947,9.04l-4.229-2.559-2.785-1.916-1.269-1.241-.519.412-2.139,1.51L421.184,7.4l-5.411,2.775-6.917,3.357-8.337,3.907L390.84,21.87,379.9,26.788l-12.134,5.38-13.247,5.815L340.231,44.2,324.98,50.8l-16.136,6.945L291.9,65.009l-17.666,7.548-18.3,7.8L237.1,88.374,217.82,96.569l-19.6,8.33L178.4,113.32l-19.892,8.463-19.826,8.448-19.61,8.375-19.218,8.238-18.639,8.027-17.852,7.736s-8.59,3.746-12.743,5.564V169.4c5.082-2.215,15.691-6.8,15.691-6.8Z" transform="translate(10.86 0.844)" fill="#101631"/>
      <path id="Tracé_80" data-name="Tracé 80" d="M697.16,144.832l16.951,8.176,16.383,7.948L746.1,168.6s9.931,4.9,14.6,7.228c0-.575,0-.852,0-1.393-4.672-2.344-14.6-7.276-14.6-7.276L730.5,159.462l-16.382-8.011-16.951-8.238-17.334-8.391-17.548-8.469-17.616-8.481-17.547-8.437-17.358-8.343-17.057-8.2-16.659-8.017-16.172-7.8-15.6-7.54L529.31,62.281l-14.242-6.935L501.6,48.757l-12.62-6.217-11.716-5.823-10.757-5.4-9.736-4.955-8.66-4.484-7.524-3.99-6.327-3.47L429.2,11.5,425.46,9.151l-2.338-1.742-.861-1.1-.784.946-2.5,1.681-4.132,2.3-5.7,2.885-7.186,3.451-8.614,3.988-9.973,4.5-11.269,5-12.5,5.465-13.668,5.91L331.18,48.764l-15.8,6.725-16.755,7.1L281,70.018l-18.422,7.745-19.121,8.014-19.717,8.252-20.2,8.446-20.553,8.593-20.769,8.686-20.824,8.726-20.706,8.695-20.39,8.6-19.86,8.41s-12.879,5.483-19.082,8.141v1.456c6.2-2.637,19.082-8.075,19.082-8.075l19.86-8.348,20.39-8.526,20.706-8.623,20.824-8.651,20.769-8.611,20.553-8.52,20.2-8.375,19.717-8.18,19.121-7.948L281,72.243l17.631-7.372,16.755-7.038,15.8-6.676,14.765-6.284L359.613,39l12.5-5.429,11.269-4.968,9.973-4.482,8.614-3.975,7.186-3.442,5.7-2.888,4.132-2.306,2.5-1.7.784-.968.861,1.128,2.338,1.755,3.738,2.356,5.064,2.921,6.327,3.461,7.524,3.975,8.66,4.464,9.736,4.927L477.268,39.2l11.716,5.783,12.62,6.172,13.461,6.541,14.244,6.88,14.958,7.194,15.6,7.48,16.173,7.733,16.659,7.95,17.057,8.134,17.357,8.273,17.547,8.367,17.616,8.41,17.55,8.4Z" transform="translate(16.188 2.325)" fill="#101631"/>
      <path id="Tracé_81" data-name="Tracé 81" d="M243.941,62.881l20.625-8.568,18.554-7.785,16.456-7,14.347-6.214L326.155,27.9l10.112-4.642L344.25,19.4l5.823-3.066,3.622-2.267,1.348-1.441.871,1.146,2.809,2.1,4.657,2.87,6.431,3.613,8.153,4.335,9.834,5.051,11.5,5.751,13.138,6.456L427.2,51.1l16.376,7.855L461.53,67.5l19.492,9.213,20.954,9.858s14.66,6.88,22.3,10.461c0-.925,0-1.377,0-2.258-7.644-3.614-22.3-10.558-22.3-10.558l-20.953-9.947-19.494-9.292-17.957-8.614L427.2,48.443l-14.765-7.212-13.138-6.5-11.5-5.792-9.834-5.075-8.153-4.352-6.431-3.622-4.657-2.866-2.809-2.089-.871-1.124-1.348,1.416-3.622,2.254-5.823,3.066-7.982,3.866-10.112,4.663-12.233,5.456-14.347,6.255L283.12,43.835l-18.554,7.846-20.625,8.641-22.647,9.415S205.217,76.392,196.712,79.9v2.388c8.5-3.476,24.582-10.073,24.582-10.073Z" transform="translate(83.397 4.064)" fill="#101631"/>
      <path id="Tracé_82" data-name="Tracé 82" d="M638.1,137.877c0-.859,0-1.28,0-2.1-6.74-3.143-20.223-9.41-20.223-9.41l-20.08-9.326-19.753-9.16-19.262-8.937-18.642-8.657-17.906-8.337-17.078-7.978-16.171-7.586-15.193-7.17-14.157-6.731-13.065-6.27-11.926-5.795-10.738-5.3-9.5-4.781-8.216-4.252-6.878-3.7-5.483-3.125-4.018-2.523-2.486-1.9-.862-1.236-.95,1.214-2.83,1.9-4.636,2.546-6.372,3.165-8.047,3.77-9.668,4.35-11.236,4.918-12.756,5.467-14.224,6L300.1,53.465l-17,7.019-18.291,7.495-19.5,7.945-20.631,8.367-21.644,8.753L180.5,102.131l-23.254,9.376s-15.794,6.368-23.793,9.6v2.227l23.793-9.5,23.254-9.281,22.529-9,21.644-8.668,20.631-8.286,19.5-7.87L283.1,63.295l17-6.954,15.64-6.463,14.224-5.953L342.722,38.5l11.236-4.883,9.668-4.325,8.047-3.752,6.372-3.159,4.636-2.547,2.83-1.913.95-1.232.862,1.254,2.486,1.907,4.018,2.525,5.483,3.114,6.878,3.681,8.216,4.226,9.5,4.753L434.643,43.4l11.926,5.747,13.065,6.22,14.156,6.671,15.194,7.106,16.17,7.517,17.078,7.9,17.906,8.258,18.641,8.575,19.262,8.849,19.751,9.073,20.082,9.234S631.353,134.764,638.1,137.877Z" transform="translate(51.988 5.951)" fill="#101631"/>
      <path id="Tracé_83" data-name="Tracé 83" d="M282.256,46.429l17.024-7.2,13.575-5.973,10.269-4.805,7.064-3.683,3.9-2.586.946-.781,2.167,2.073,4.783,3.1,7.31,4.1,9.817,5.1,12.367,6.137,15,7.215,17.731,8.342,20.559,9.518s15.155,6.95,23.46,10.732c0-1.194,0-1.779,0-2.93-8.306-3.822-23.459-10.839-23.459-10.839l-20.561-9.608-17.731-8.415-15-7.275-12.367-6.184L349.3,27.33l-7.31-4.117-4.783-3.1-2.167-2.058-.946.772-3.9,2.579L323.125,25.1l-10.269,4.829L299.28,35.945,282.256,43.2l-20.628,8.569s-15.612,6.39-24.371,9.935v3.056c8.759-3.512,24.371-9.844,24.371-9.844Z" transform="translate(103.529 8.16)" fill="#101631"/>
      <path id="Tracé_84" data-name="Tracé 84" d="M227.5,80.829l-23.445,9.138s-16.409,6.372-24.97,9.689v2.9c8.56-3.279,24.97-9.581,24.97-9.581L227.5,83.936l21.788-8.451,20.034-7.84,18.219-7.21,16.351-6.565,14.453-5.917,12.524-5.263,10.573-4.6,8.59-3.933L356.6,30.9l4.5-2.567,2.357-1.862.549-.181,1.812,1.749,3.637,2.441,5.371,3.1,7.037,3.738,8.647,4.359,10.214,4.967,11.745,5.563L425.7,58.358l14.712,6.73,16.146,7.3,17.53,7.857,18.861,8.391,20.1,8.9,21.237,9.373s14.672,6.465,22.226,9.79c0-1.121,0-1.672,0-2.755-7.553-3.363-22.226-9.9-22.226-9.9l-21.237-9.476-20.1-9L474.1,77.087l-17.532-7.938-16.144-7.375-14.715-6.8L412.46,48.765l-11.745-5.612L390.5,38.146l-8.647-4.392-7.037-3.761-5.371-3.113-3.637-2.444L364,22.694l-.549.18-2.357,1.853L356.6,27.3l-6.568,3.273-8.59,3.958-10.573,4.635L318.34,44.474l-14.453,5.971-16.351,6.631-18.219,7.285-20.034,7.923Z" transform="translate(74.643 10.462)" fill="#101631"/>
      <path id="Tracé_85" data-name="Tracé 85" d="M426.206,69.926,407.1,61.321,390.477,53.7l-14.186-6.663L364.5,41.305l-9.428-4.82-7.061-3.918-4.647-3.007-2.128-2.067-.892.73-3.7,2.5-6.7,3.493-9.7,4.491-12.731,5.509-15.835,6.559-19.021,7.643-22.283,8.767S233.867,73.6,224.789,77.1v3.393c9.078-3.454,25.583-9.795,25.583-9.795l22.283-8.672,19.021-7.565,15.835-6.495L320.242,42.5l9.7-4.46,6.7-3.478,3.7-2.505.892-.735,2.128,2.074,4.648,3,7.059,3.894,9.428,4.786,11.794,5.679,14.183,6.6L407.1,64.9,426.2,73.407l21.616,9.5s15.663,6.83,24.106,10.494c0-1.323,0-1.972,0-3.253-8.443-3.705-24.108-10.615-24.108-10.615Z" transform="translate(97.338 12.845)" fill="#101631"/>
      <path id="Tracé_86" data-name="Tracé 86" d="M167.334,116.677c9.052-3.3,26.436-9.647,26.436-9.647l24.875-9.111,23.174-8.535L263.2,81.447l19.524-7.33,17.632-6.712,15.719-6.1,13.786-5.477,11.832-4.858,9.844-4.231,7.8-3.6,5.694-2.945,3.476-2.263,1.131-1.447,1.179,1.612,3.3,2.372,5.362,3.119,7.4,3.86L396.3,52.06l11.448,5.353,13.475,6.106,15.505,6.868,17.52,7.628,19.51,8.382s13.979,5.961,21.435,9.12c0-1.407,0-2.1,0-3.472-7.456-3.2-21.435-9.232-21.435-9.232l-19.51-8.482-17.521-7.716-15.5-6.945L407.749,53.5,396.3,48.09l-9.425-4.648-7.4-3.891-5.362-3.137-3.3-2.376L369.64,32.43l-1.131,1.443-3.476,2.269L359.338,39.1l-7.8,3.626-9.844,4.268L329.858,51.9l-13.786,5.537L300.353,63.6l-17.632,6.793L263.2,77.808l-21.378,8.039-23.174,8.642-24.875,9.223s-17.384,6.428-26.436,9.771Z" transform="translate(68.81 15.296)" fill="#101631"/>
      <path id="Tracé_87" data-name="Tracé 87" d="M435.724,82.169,416.27,73.845l-17.119-7.453-14.808-6.6L371.821,54.04,361.557,49.1l-8-4.127-5.7-3.312-3.328-2.478-.916-1.106-2.062,1.971-4.988,2.864-7.863,3.756-10.735,4.653L304.317,56.89l-16.6,6.513-19.622,7.478-22.684,8.47s-16.664,6.148-25.755,9.472v3.746c9.091-3.279,25.755-9.349,25.755-9.349l22.684-8.363,19.622-7.388,16.6-6.435,13.642-5.512,10.735-4.608,7.863-3.726,4.988-2.849,2.062-1.972.916,1.109,3.328,2.471,5.7,3.288,8,4.091,10.265,4.888,12.523,5.7,14.808,6.517,17.117,7.363,19.453,8.22,21.789,9.085s15.681,6.493,24.078,9.95c0-1.455,0-2.174,0-3.592-8.4-3.5-24.081-10.081-24.081-10.081Z" transform="translate(94.788 18.1)" fill="#101631"/>
      <path id="Tracé_88" data-name="Tracé 88" d="M604.117,145.259c0-1.32,0-1.975,0-3.265-7.161-2.9-21.318-8.612-21.318-8.612l-20.844-8.41-20.191-8.152-19.393-7.849L503.9,101.46,486.43,94.32l-16.376-6.743-15.226-6.335L440.81,75.334,428.046,69.87l-11.465-5.013L406.46,60.31l-8.731-4.068-7.3-3.577-5.8-3.066L380.4,47.062l-2.6-1.987-.863-1.357-1.082,1.449L372.769,47.2l-5.021,2.6-6.885,3.152-8.692,3.687-10.446,4.21-12.156,4.723-13.822,5.229L300.3,76.524l-17.016,6.2-18.528,6.664L244.787,96.5l-21.324,7.541L200.9,111.981l-23.674,8.3-24.6,8.605v3.432l24.6-8.484L200.9,115.65l22.568-7.822,21.324-7.435,19.97-7.016L283.286,86.8,300.3,80.686l15.446-5.643,13.822-5.16,12.156-4.666,10.446-4.163,8.692-3.647,6.885-3.122,5.021-2.585,3.092-2.028,1.082-1.45.863,1.36,2.6,1.977,4.235,2.52,5.8,3.039,7.293,3.539,8.734,4.021,10.121,4.493,11.465,4.951,12.764,5.4,14.016,5.829L470.052,91.6l16.376,6.655,17.466,7.041L522.37,112.7l19.393,7.739,20.19,8.039,20.844,8.292S596.954,142.4,604.117,145.259Z" transform="translate(61.505 20.9)" fill="#101631"/>
      <path id="Tracé_89" data-name="Tracé 89" d="M227.829,106.444l21.712-7.4L269.5,92.168l18.145-6.341,16.285-5.8,14.389-5.248,12.471-4.693,10.525-4.139,8.547-3.578,6.535-3.008,4.472-2.435,2.342-1.844.543-.183,1.809,1.751,3.625,2.327,5.349,2.879,7.008,3.415,8.611,3.937,10.173,4.446,11.7,4.951,13.193,5.449L439.876,90l16.085,6.425,17.47,6.9,18.792,7.358,20.038,7.8,21.173,8.2s14.633,5.657,22.167,8.566c0-1.467,0-2.2,0-3.631-7.532-2.953-22.165-8.693-22.165-8.693l-21.174-8.325-20.039-7.912-18.793-7.468-17.469-7L439.879,85.7l-14.658-6.025-13.192-5.524-11.7-5.018-10.173-4.5-8.611-3.982-7.008-3.454-5.349-2.908-3.625-2.345-1.809-1.755-.543.181-2.342,1.851L356.4,54.667l-6.535,3.042-8.547,3.619-10.525,4.19-12.471,4.756-14.389,5.319-16.285,5.88L269.5,87.906l-19.961,6.978-21.712,7.508-23.368,8.02S188.1,116,179.568,118.905v3.8c8.533-2.863,24.893-8.367,24.893-8.367Z" transform="translate(74.885 24.11)" fill="#101631"/>
      <path id="Tracé_90" data-name="Tracé 90" d="M529.575,128.023l-21.354-8.143L488,112.136l-18.977-7.317-17.649-6.862-16.257-6.393L420.3,85.649l-13.343-5.426-11.835-4.934-10.29-4.436-8.716-3.927-7.091-3.409-5.413-2.879-3.659-2.329-1.821-1.754-.554.2-2.391,1.854-4.548,2.444L344,64.071l-8.674,3.575-10.672,4.135-12.638,4.684L297.441,81.7l-16.487,5.777L262.592,93.79,242.4,100.635l-21.941,7.357-23.6,7.849-5.967,1.974v4.053l6-1.956,21.595-7.068,20.279-6.685,18.888-6.288L275.1,93.992l15.943-5.461,14.4-5.034,12.807-4.6,11.166-4.157,9.462-3.7,7.685-3.227,5.807-2.731,3.815-2.215,1.684-1.657.657.789,2.535,1.995,4.493,2.607,6.419,3.215,8.318,3.816,10.2,4.419,12.072,5.021,13.922,5.622,15.752,6.22,17.541,6.806,19.269,7.382s13.68,5.2,20.909,7.93c4.8,1.482,13.28,4.111,13.28,4.111l11.716,3.659,11.242,3.535,11.927,3.782s8.75,2.788,13.786,4.4C544.321,133.636,529.575,128.023,529.575,128.023Z" transform="translate(80.511 27.274)" fill="#101631"/>
      <path id="Tracé_91" data-name="Tracé 91" d="M181.32,141.578l-22.28,7.105-22.6,7.219-22.705,7.284s-15.1,4.864-22.572,7.287v3.4c7.471-2.381,22.572-7.165,22.572-7.165l22.705-7.159,22.6-7.1,22.28-6.983,21.8-6.83L224.276,132l20.4-6.423,19.545-6.179,18.593-5.919,17.566-5.637,16.469-5.347,15.312-5.034,14.1-4.716,12.816-4.382,11.481-4.035,10.079-3.675,8.608-3.3,7.062-2.908,5.425-2.493,3.689-2.059,1.842-1.6.474.174,1.856,1.672,3.535,2.171,5.168,2.662,6.755,3.14,8.3,3.613,9.813,4.069,11.285,4.522,12.719,4.962,14.106,5.395,15.443,5.814,16.716,6.214,17.915,6.6,19.021,6.951,20.01,7.279s13.785,5,20.863,7.568c0-1.61,0-2.406,0-3.987-7.078-2.607-20.863-7.7-20.863-7.7l-20.013-7.4-19.021-7.07-17.915-6.707-16.716-6.317-15.443-5.907-14.108-5.482-12.719-5.04L443.169,80.9l-9.813-4.132-8.3-3.659L418.3,69.923l-5.168-2.694-3.535-2.2-1.856-1.682-.474-.174-1.842,1.607-3.689,2.079-5.425,2.525-7.062,2.947-8.608,3.348-10.079,3.731-11.481,4.1-12.816,4.452-14.1,4.792-15.312,5.118-16.469,5.434-17.566,5.733-18.593,6.019-19.545,6.287-20.4,6.532-21.161,6.754Z" transform="translate(30.99 30.563)" fill="#101631"/>
      <path id="Tracé_92" data-name="Tracé 92" d="M87.04,179.515c7.308-2.258,22.125-6.8,22.125-6.8l22.34-6.811,22.315-6.77,22.084-6.68,21.673-6.549,21.114-6.389,20.429-6.2,19.639-5.98,18.754-5.747,17.789-5.491,16.752-5.224,15.649-4.942,14.489-4.648,13.268-4.341,11.987-4.023,10.645-3.687,9.237-3.348,7.755-2.983,6.193-2.607,4.539-2.206L408.6,76.31l.91-1.254.928,1.368,2.61,1.85,4.232,2.315,5.812,2.767,7.346,3.215,8.84,3.649,10.3,4.077,11.716,4.493,13.092,4.9,14.421,5.3,15.691,5.681,16.9,6.047,18.024,6.4,19.055,6.713,19.968,7.007s13.716,4.8,20.739,7.257c0-1.651,0-2.469,0-4.094-7.023-2.5-20.739-7.388-20.739-7.388l-19.968-7.132-19.055-6.835-18.024-6.51-16.9-6.151L488.8,104.2l-14.419-5.392-13.093-4.983-11.716-4.569-10.3-4.141-8.84-3.708-7.346-3.261-5.812-2.807-4.232-2.342-2.61-1.869-.928-1.378-.91,1.263-2.781,1.8-4.539,2.234-6.193,2.643-7.755,3.027-9.237,3.4-10.645,3.75-11.987,4.09-13.268,4.418L327.7,101.1l-15.649,5.028L295.3,111.451l-17.789,5.591-18.754,5.848L239.12,128.98l-20.429,6.311-21.114,6.5L175.9,148.466l-22.084,6.8-22.315,6.9-22.34,6.935s-14.817,4.621-22.125,6.917Z" transform="translate(28.942 33.824)" fill="#101631"/>
      <path id="Tracé_93" data-name="Tracé 93" d="M65.318,197.759l17.821-5.453,18.68-5.627,19.307-5.747,19.727-5.82,19.965-5.854,20.037-5.85,19.959-5.813,19.75-5.748,19.422-5.654,18.982-5.536,18.443-5.4,17.816-5.241,17.1-5.064,16.311-4.868,15.444-4.662,14.509-4.436,13.5-4.193,12.423-3.943,11.278-3.669L405.851,95.8l8.767-3.086,7.4-2.767,5.944-2.433,4.407-2.079,2.775-1.706,1.04-1.308.691,1.082,2.233,1.657,3.717,2.065,5.15,2.453L454.5,92.5l7.84,3.192,9.1,3.541,10.316,3.876,11.474,4.2,12.571,4.506,13.611,4.8L534,121.7l15.489,5.338,16.315,5.578,17.057,5.8,17.7,5.986,18.24,6.154,18.654,6.288,18.937,6.387,19.064,6.443,19.016,6.459s12.578,4.294,18.774,6.42c0-1.48,0-2.215,0-3.672-6.193-2.167-18.774-6.54-18.774-6.54l-19.016-6.582L656.4,159.185l-18.937-6.508L618.8,146.27,600.562,140l-17.7-6.1L565.8,127.99l-16.318-5.681L534,116.871,519.41,111.7,505.8,106.808l-12.572-4.59-11.472-4.276L471.441,94l-9.1-3.6L454.5,87.15l-6.522-2.875-5.151-2.49-3.717-2.091-2.233-1.678-.691-1.089-1.04,1.32-2.775,1.726-4.407,2.107-5.944,2.471-7.4,2.813L405.851,90.5l-10.057,3.446-11.278,3.738L372.094,101.7l-13.5,4.274-14.509,4.52-15.444,4.75L312.33,120.2l-17.1,5.16-17.816,5.343-18.443,5.5-18.982,5.642-19.422,5.766-19.75,5.859L180.854,159.4l-20.037,5.962-19.965,5.97-19.727,5.934-19.307,5.857-18.68,5.733-17.821,5.555-16.707,5.322s-10.473,3.4-15.308,5.016v3.159c4.835-1.585,15.308-4.93,15.308-4.93Z" transform="translate(2.26 37.39)" fill="#101631"/>
      <path id="Tracé_94" data-name="Tracé 94" d="M669.388,175.012c0-1.619,0-2.426,0-4.023-6.689-2.224-20.053-6.654-20.053-6.654l-19.9-6.582-19.561-6.466-19.07-6.311-18.443-6.118-17.7-5.9L537.817,127.3,521.9,121.915l-14.9-5.1-13.816-4.8-12.67-4.481-11.469-4.148-10.209-3.806-8.9-3.45-7.547-3.083-6.14-2.7-4.68-2.312L428.4,86.129l-1.594-1.488-.452.07-1.893,1.5-3.635,1.893-5.271,2.26-6.814,2.607-8.268,2.936-9.647,3.25-10.947,3.547-12.179,3.83-13.34,4.1-14.437,4.353-15.464,4.6-16.423,4.825-17.307,5.036-18.117,5.232-18.841,5.414L234.3,145.666l-20.006,5.709L193.867,157.2l-20.71,5.913-20.851,5.965-20.829,5.988-20.615,5.964-20.19,5.9L71.154,192.7s-12.575,3.767-18.578,5.593v3.442c6-1.791,18.578-5.485,18.578-5.485l19.519-5.66,20.19-5.775,20.615-5.847,20.829-5.865,20.851-5.844,20.71-5.793,20.423-5.706,20.006-5.594,19.477-5.459,18.841-5.3,18.117-5.126,17.307-4.936,16.423-4.728,15.464-4.5,14.437-4.271,13.34-4.018,12.179-3.758,10.947-3.481,9.647-3.189,8.268-2.884,6.814-2.564,5.271-2.224,3.635-1.866,1.893-1.485.452-.07,1.594,1.471,3.167,1.88,4.68,2.275,6.14,2.656,7.546,3.029,8.9,3.387,10.211,3.734,11.466,4.072,12.671,4.4L507,121.907l14.9,5,15.914,5.281,16.849,5.545,17.7,5.781,18.442,6,19.07,6.184,19.563,6.338,19.9,6.45S662.7,172.831,669.388,175.012Z" transform="translate(11.83 41.22)" fill="#101631"/>
      <path id="Tracé_95" data-name="Tracé 95" d="M220.636,143.822l23.656-6.435,21.686-5.97,19.687-5.5,17.675-5.043L319,116.28l13.65-4.139,11.616-3.695,9.542-3.25,7.394-2.794,5.136-2.323,2.712-1.823.651-.091,2.341,1.845,4.723,2.453,7.115,3.068,9.54,3.7,12.008,4.353,14.527,5.019,17.086,5.7s12.679,4.151,19.661,6.4c0-2.091,0-3.128,0-5.188-6.983-2.3-19.661-6.537-19.661-6.537l-17.086-5.823-14.527-5.123-12.01-4.439-9.54-3.773-7.115-3.123-4.723-2.495L369.7,92.343l-.651.088-2.712,1.853-5.136,2.36-7.394,2.846L344.27,102.8l-11.616,3.771L319,110.8l-15.664,4.686-17.675,5.151-19.687,5.621-21.686,6.1-23.656,6.577-25.558,7.044s-17.946,4.928-27.336,7.5v4.576c9.389-2.516,27.336-7.334,27.336-7.334Z" transform="translate(69.013 45.044)" fill="#101631"/>
      <path id="Tracé_96" data-name="Tracé 96" d="M173.724,168.28,151.4,174.127l-22.515,5.919L106.4,185.994s-14.887,3.961-22.213,5.926v3.942c7.326-1.922,22.213-5.792,22.213-5.792l22.491-5.812,22.515-5.781,22.321-5.714,21.938-5.607,21.4-5.476,20.728-5.314,19.943-5.136,19.058-4.94,18.088-4.729,17.041-4.5,15.929-4.267,14.748-4.021,13.508-3.762,12.2-3.5,10.835-3.216,9.394-2.924,7.878-2.623,6.279-2.3,4.585-1.968,2.782-1.612.865-1.079,1.013,1.29,2.733,1.7,4.389,2.089,6,2.477,7.563,2.849,9.085,3.221,10.568,3.583,12,3.93,13.4,4.279,14.739,4.609,16.019,4.933,17.229,5.239,18.355,5.531,19.377,5.8,20.27,6.037,21.017,6.247c0-1.851,0-2.769,0-4.594l-21.017-6.389L563.4,152.433,544.027,146.5l-18.355-5.655-17.229-5.361-16.02-5.043-14.738-4.713-13.4-4.373-12.005-4.02-10.567-3.656-9.085-3.288-7.565-2.911-6-2.523-4.389-2.131-2.733-1.724L410.928,99.8l-.865,1.094-2.782,1.64-4.585,2.005-6.279,2.348-7.878,2.676-9.394,2.989-10.835,3.286-12.2,3.574L342.6,123.256l-14.748,4.114-15.929,4.365-17.041,4.608-18.088,4.838-19.058,5.055-19.943,5.257-20.728,5.443-21.4,5.6Z" transform="translate(27.524 48.745)" fill="#101631"/>
      <path id="Tracé_97" data-name="Tracé 97" d="M517.128,148.155l-18.645-5.528-17.213-5.175-15.711-4.8-14.148-4.418-12.545-4.029-10.905-3.634-9.234-3.232-7.531-2.831-5.8-2.421-4.024-2.007-2.2-1.585-.548-.441-1.763,1.426-3.759,1.808-5.63,2.167-7.393,2.507-9.061,2.831-10.649,3.147-12.17,3.448-13.626,3.737-15.027,4.026-16.372,4.3-17.655,4.569-18.882,4.826-20.03,5.07-21.094,5.305-22.053,5.521-22.88,5.712-23.555,5.877-24.034,6.01s-16.171,4.054-24.271,6.1v4.274c8.1-1.992,24.271-5.946,24.271-5.946l24.034-5.863,23.555-5.732,22.88-5.573,22.053-5.383,21.094-5.175,20.03-4.947,18.882-4.71,17.655-4.455,16.372-4.2,15.027-3.928,13.626-3.65,12.17-3.367,10.649-3.072,9.061-2.772,7.393-2.453,5.63-2.121,3.759-1.776,1.763-1.4.548.435,2.2,1.556,4.023,1.969,5.8,2.37,7.531,2.767,9.234,3.164,10.9,3.551,12.545,3.937,14.148,4.313,15.708,4.687,17.214,5.052,18.644,5.4,19.979,5.729s13.945,3.976,21.194,6.037c0-1.99,0-2.98,0-4.946-7.248-2.11-21.192-6.185-21.192-6.185Z" transform="translate(39.708 52.845)" fill="#101631"/>
      <path id="Tracé_98" data-name="Tracé 98" d="M67.722,205.972v3.984c6.787-1.64,20.775-4.976,20.775-4.976l21.406-5.057,21.762-5.093,21.879-5.085,21.788-5.043,21.519-4.97,21.094-4.873,20.534-4.753,19.857-4.612,19.078-4.46,18.2-4.286,17.253-4.1,16.221-3.91,15.122-3.7,13.954-3.487,12.717-3.258,11.411-3.023,10.034-2.775,8.578-2.513,7.046-2.24,5.414-1.951,3.688-1.646,1.844-1.326.47.129,1.827,1.372,3.484,1.724,5.087,2.064,6.636,2.4,8.134,2.719,9.584,3.032,10.986,3.337,12.337,3.635,13.635,3.922,14.875,4.2L522,155.806l17.143,4.713,18.148,4.945,19.045,5.159,19.823,5.344,20.45,5.5,20.9,5.628c0-1.866,0-2.8,0-4.644l-20.411-5.64-19.982-5.519-19.392-5.365-18.662-5.184-17.815-4.977-16.867-4.753-15.836-4.509-14.73-4.253-13.562-3.982-12.336-3.705-11.059-3.415-9.736-3.119-8.366-2.812-6.953-2.5-5.494-2.177-3.985-1.847-2.427-1.507-.807-1.125-.971,1.17-2.779,1.5-4.478,1.8-6.073,2.1-7.583,2.366-9.011,2.632L377.839,130.5l-11.649,3.122-12.869,3.349L339.3,140.543l-15.113,3.779L308.041,148.3l-17.1,4.165-17.993,4.341-18.8,4.5-19.528,4.656-20.152,4.789-20.666,4.9-21.049,4.992-21.288,5.063-21.357,5.1-21.231,5.1-20.88,5.069S74.347,204.326,67.722,205.972Z" transform="translate(19.35 56.822)" fill="#101631"/>
      <path id="Tracé_99" data-name="Tracé 99" d="M37.53,220.748v3.78c5.217-1.281,16.423-3.961,16.423-3.961l17.755-4.159L90.5,212.1l19.561-4.409,20.091-4.478,20.416-4.508,20.549-4.511,20.514-4.487,20.336-4.442,20.017-4.371,19.584-4.283,19.04-4.18,18.4-4.06,17.665-3.925,16.846-3.78,15.95-3.623L354.44,153.6l13.931-3.271,12.815-3.081,11.625-2.876L403.17,141.7l9.015-2.435,7.593-2.2,6.082-1.947,4.482-1.682,2.778-1.4.968-1.1L434.9,132l2.421,1.41,3.964,1.717,5.452,2.013,6.875,2.3,8.247,2.576,9.56,2.839,10.817,3.1,12.019,3.346,13.159,3.578,14.235,3.8,15.244,4.017,16.173,4.213,17.02,4.4,17.771,4.56,18.415,4.705L625.2,185.4l19.32,4.922,19.549,4.991,19.6,5.025s13.014,3.354,19.446,5.022c0-1.763.006-2.641.007-4.385-6.432-1.715-19.449-5.16-19.449-5.16l-19.6-5.168-19.548-5.13-19.32-5.063-18.936-4.964-18.413-4.84-17.771-4.687-17.02-4.52-16.174-4.331-15.244-4.126-14.236-3.91L494.256,145.4l-12.019-3.436-10.818-3.18-9.56-2.918-8.244-2.641-6.878-2.36-5.452-2.064-3.964-1.758L434.9,125.6l-.811-1.088-.968,1.127-2.778,1.434-4.482,1.723-6.082,2-7.593,2.258-9.015,2.5-10.359,2.737-11.625,2.957-12.815,3.167-13.931,3.364-14.979,3.55-15.95,3.728-16.846,3.888L289,162.981l-18.4,4.175-19.04,4.3-19.584,4.409-20.017,4.5-20.336,4.569-20.514,4.618-20.549,4.642-20.416,4.639-20.091,4.6L90.5,207.974,71.708,212.4l-17.755,4.274S42.747,219.431,37.53,220.748Z" transform="translate(4.359 61.015)" fill="#101631"/>
      <path id="Tracé_100" data-name="Tracé 100" d="M811.561,230.96,799.8,227.508l-13.443-3.753-14.847-4-15.992-4.2L738.608,211.2l-17.6-4.472-18.1-4.552-18.418-4.6-18.566-4.614-18.558-4.6-18.41-4.558-18.126-4.493L593.11,174.91l-17.189-4.3-16.552-4.168-15.808-4.018L528.6,158.573l-14.015-3.665-12.972-3.463L489.78,148.2l-10.6-3.005-9.27-2.749-7.839-2.477-6.314-2.186-4.68-1.875-2.941-1.546-1.086-1.2-.992,1.045-3.143,1.511-5.186,1.842-7.116,2.156-8.937,2.451L411.028,144.9l-12.254,3-13.755,3.24-15.146,3.472-16.43,3.686-17.6,3.88-18.648,4.06-19.579,4.219-20.374,4.358-21.034,4.476L234.67,183.86,212.776,188.5l-22.071,4.683-22.057,4.7L146.8,202.553l-21.4,4.624-20.724,4.53-19.777,4.4-18.536,4.217L49.382,224.31l-15.076,3.7L21.519,231.37s-7.225,2.04-10.087,2.945v3.566c2.861-.883,10.087-2.866,10.087-2.866l12.788-3.262,15.076-3.593,16.981-3.87L84.9,220.2l19.777-4.265,20.724-4.4,21.4-4.484,21.843-4.534,22.057-4.554,22.071-4.539,21.894-4.5,21.542-4.43,21.034-4.341,20.374-4.225,19.579-4.093,18.648-3.937,17.6-3.765,16.43-3.574,15.146-3.372,13.755-3.144,12.254-2.908,10.649-2.653,8.937-2.382,7.116-2.1,5.186-1.794,3.143-1.473.992-1.021,1.086,1.167,2.939,1.508,4.681,1.827,6.311,2.128,7.842,2.408,9.27,2.671,10.6,2.92,11.833,3.152,12.973,3.363,14.013,3.56,14.961,3.738,15.806,3.9,16.553,4.045,17.188,4.172,17.717,4.277,18.124,4.361,18.409,4.425,18.561,4.463,18.564,4.478,18.416,4.463,18.1,4.419,17.6,4.34,16.9,4.231,15.993,4.077,14.846,3.886,13.445,3.644,11.76,3.357s2,.6,2.993.9v-3.717Z" transform="translate(-8.599 65.314)" fill="#101631"/>
      <path id="Tracé_101" data-name="Tracé 101" d="M91.106,217.665l19.543-3.855,19.941-3.9L150.748,206l20.211-3.9,20.113-3.874,19.883-3.827,19.533-3.764,19.066-3.686,18.5-3.59,17.842-3.488,17.095-3.37,16.264-3.241,15.356-3.105,14.368-2.953,13.3-2.8,12.168-2.628,10.953-2.447,9.663-2.258,8.289-2.058,6.83-1.845,5.281-1.622,3.64-1.386,1.89-1.136.449-.043,1.6,1.13,3.168,1.4,4.671,1.661L437,155.087l7.484,2.156,8.8,2.387,10.063,2.613,11.261,2.825,12.4,3.03,13.475,3.225,14.479,3.411,15.413,3.58,16.261,3.74,17.029,3.885,17.692,4.014,18.252,4.124,18.686,4.216,18.987,4.288,19.133,4.329,19.111,4.344,18.892,4.329s10.733,2.481,16.011,3.707v-4.406c-4.647-1.116-14.066-3.366-14.066-3.366l-18.124-4.3-18.358-4.313-18.415-4.305-18.323-4.274-18.092-4.214-17.735-4.139-17.271-4.039-16.7-3.925-16.043-3.8L522,170.567l-14.482-3.5-13.593-3.328-12.632-3.149-11.609-2.959-10.524-2.76-9.374-2.552-8.162-2.329-6.889-2.1-5.549-1.857-4.141-1.6-2.659-1.341-1.1-1.064-.659.658-2.423,1.245-4.147,1.5-5.789,1.752-7.343,1.986-8.822,2.213-10.221,2.427-11.553,2.629-12.81,2.828-13.991,3.01-15.106,3.186-16.14,3.349-17.092,3.5-17.966,3.644-18.741,3.774-19.423,3.886-20,3.99-20.45,4.069-20.769,4.135L156.9,199.994l-20.959,4.2-20.787,4.192-20.414,4.151-19.815,4.085s-7.749,1.615-11.547,2.414v4.2c2.9-.588,8.791-1.781,8.791-1.781Z" transform="translate(17.192 69.714)" fill="#101631"/>
      <path id="Tracé_102" data-name="Tracé 102" d="M58.193,228.723,42.584,231.99l-13.841,3.038s-8.213,1.9-11.73,2.767v3.77c3.517-.841,11.73-2.673,11.73-2.673l13.841-2.936L58.193,232.8l17.065-3.328,18.234-3.469,19.147-3.574,19.829-3.65,20.293-3.7,20.565-3.717,20.66-3.719,20.6-3.695,20.381-3.655L255,196.7l19.563-3.523,18.976-3.436,18.279-3.333L329.3,183.19l16.59-3.092,15.607-2.954,14.534-2.8,13.376-2.643,12.134-2.474,10.806-2.291,9.389-2.1,7.888-1.893,6.294-1.682,4.606-1.453,2.821-1.214.929-.917.9.97,2.552,1.232,4.118,1.485,5.6,1.721,7.013,1.951,8.348,2.165,9.608,2.37,10.8,2.568,11.917,2.749,12.958,2.923,13.93,3.083,14.819,3.234,15.625,3.372,16.345,3.494,16.972,3.605,17.5,3.7,17.915,3.777,18.211,3.839,18.379,3.877,18.4,3.9,18.273,3.889,17.969,3.857,17.473,3.8,16.77,3.7L772.51,232.5l14.648,3.4s9.063,2.162,13.175,3.183c0-1.586,0-2.378.009-3.952-4.112-1.054-13.175-3.292-13.175-3.292l-14.648-3.517-15.835-3.69-16.773-3.831-17.473-3.928-17.97-3.993L686.2,208.846l-18.406-4.033L649.411,200.8,631.2,196.823l-17.913-3.912-17.5-3.83-16.972-3.735-16.346-3.617-15.625-3.49-14.819-3.348L518.1,171.7l-12.961-3.026-11.917-2.845-10.8-2.653-9.609-2.453-8.348-2.239-7.013-2.014-5.6-1.779-4.118-1.531-2.552-1.271-.9-1-.929.944-2.821,1.251-4.606,1.5-6.294,1.737-7.888,1.96-9.389,2.171-10.806,2.372-12.134,2.561-13.376,2.737-14.534,2.9-15.607,3.06L329.3,177.3l-17.484,3.336-18.279,3.454-18.976,3.563L255,191.3l-20.035,3.731-20.381,3.791-20.6,3.831-20.66,3.857-20.565,3.852-20.293,3.833-19.829,3.78L93.491,221.68l-18.234,3.595Z" transform="translate(-5.828 74.114)" fill="#101631"/>
      <path id="Tracé_103" data-name="Tracé 103" d="M817.811,241.88l-11.275-2.837-13.267-3.126-14.931-3.361L762.052,229l-17.369-3.7-18.193-3.813L707.7,217.6l-19.167-3.931-19.353-3.952-19.356-3.934-19.195-3.9-18.88-3.842-18.422-3.762L575.5,190.61l-17.116-3.542L542.1,183.659,526.761,180.4l-14.284-3.087-13.13-2.9L487.477,171.7l-10.513-2.493-9.054-2.269-7.5-2.025-5.833-1.77-4.071-1.5-2.2-1.211-.557-.211-2.05,1.149-4.217,1.426-6.252,1.688-8.159,1.935-9.944,2.164-11.606,2.379-13.153,2.584-14.582,2.769L361.9,179.268l-17.092,3.1-18.163,3.247-19.112,3.375L287.6,192.481l-20.619,3.584-21.162,3.663-21.553,3.723-21.782,3.761L180.642,211l-21.707,3.777-21.37,3.744-20.815,3.687-20.021,3.6-18.967,3.479-17.629,3.324-15.981,3.128-14,2.891-11.638,2.607-8.883,2.272v3.732l8.883-2.191,11.638-2.511,14-2.784,15.981-3.009,17.629-3.2L96.729,230.2l20.021-3.461,20.815-3.548,21.37-3.6,21.707-3.631,21.837-3.635,21.782-3.617,21.553-3.58,21.162-3.523,20.619-3.445,19.935-3.355,19.112-3.244,18.163-3.122,17.092-2.984,15.895-2.833,14.582-2.665,13.153-2.486,11.606-2.293,9.944-2.086,8.159-1.863,6.252-1.63,4.217-1.377,2.05-1.112.557.205,2.2,1.172,4.071,1.446,5.833,1.709,7.5,1.953,9.054,2.186,10.512,2.4,11.87,2.61,13.128,2.8,14.286,2.977L542.1,189.7l16.281,3.28,17.116,3.412,17.833,3.524,18.421,3.623,18.88,3.7L649.822,211l19.356,3.791,19.35,3.8,19.167,3.788,18.787,3.747,18.195,3.671,17.366,3.565,16.29,3.424,14.926,3.24,13.268,3.01,11.273,2.739,8.915,2.409s4.615,1.42,6.166,2.023c0-1.5,0-2.246.01-3.735-1.55-.624-6.164-2.1-6.164-2.1Z" transform="translate(-9.492 78.751)" fill="#101631"/>
      <path id="Tracé_104" data-name="Tracé 104" d="M83.225,233.854,103,230.722l20.336-3.177,20.673-3.2,20.809-3.2,20.77-3.177,20.574-3.141,20.242-3.087,19.787-3.027,19.218-2.948,18.554-2.864,17.8-2.769,16.96-2.668,16.044-2.556,15.054-2.435,13.991-2.314,12.863-2.18,11.659-2.041,10.383-1.893,9.036-1.742,7.607-1.577,6.091-1.41,4.485-1.229,2.781-1.039.962-.838.82.82,2.436,1.054,3.99,1.265,5.485,1.473,6.924,1.672,8.31,1.865,9.642,2.052,10.922,2.236,12.146,2.408,13.312,2.576,14.419,2.737,15.452,2.888,16.414,3.03,17.286,3.164,18.066,3.282,18.731,3.388L623.3,215.6l19.664,3.55,19.895,3.6s13.3,2.414,19.931,3.625c0-1.968,0-2.951.008-4.907-6.628-1.26-19.932-3.776-19.932-3.776l-19.893-3.752-19.666-3.7-19.271-3.626-18.732-3.532-18.063-3.423-17.289-3.294-16.412-3.161L518.086,190.2l-14.416-2.851-13.315-2.683-12.146-2.51-10.922-2.326-9.642-2.137-8.31-1.943-6.923-1.737-5.488-1.529-3.99-1.315-2.436-1.091-.82-.85-.962.868-2.781,1.076-4.485,1.278-6.091,1.467-7.607,1.643-9.036,1.814-10.383,1.975-11.659,2.13-12.863,2.275-13.991,2.411-15.054,2.546-16.044,2.667-16.96,2.784-17.8,2.891-18.554,2.992-19.218,3.078L226.4,206.278,206.163,209.5l-20.574,3.276-20.77,3.318-20.809,3.337-20.673,3.339L103,226.09l-19.775,3.27-18.958,3.2s-12.123,2.08-17.857,3.087v4.229c5.733-.964,17.857-2.957,17.857-2.957Z" transform="translate(8.768 83.217)" fill="#101631"/>
      <path id="Tracé_105" data-name="Tracé 105" d="M776.775,240.79l-15.69-2.926-16.694-3.036-17.46-3.122-18.006-3.177-18.359-3.212L672.04,222.1l-18.536-3.21-18.392-3.177-18.118-3.132-17.714-3.069-17.2-2.993-16.581-2.906-15.866-2.8-15.06-2.7-14.165-2.57L507.217,193.1l-12.135-2.3-11-2.148-9.8-1.989-8.515-1.818-7.161-1.642-5.727-1.455-4.214-1.256-2.62-1.051-.938-.835-.929.769-2.86,1.028-4.681,1.224-6.4,1.407-8.026,1.582-9.555,1.749-10.992,1.9-12.343,2.052-13.6,2.192-14.777,2.321-15.857,2.441-16.848,2.555-17.744,2.655-18.54,2.748-19.229,2.83-19.811,2.9-20.267,2.957-20.6,3-20.784,3.033-20.821,3.048-20.688,3.044-20.372,3.027-19.854,2.981L90.4,234.98l-18.132,2.825-16.881,2.709-15.333,2.558L26.59,245.447s-7.906,1.477-11.239,2.154v3.922c3.333-.648,11.239-2.059,11.239-2.059l13.467-2.269,15.333-2.442,16.881-2.585,18.132-2.7,19.115-2.782,19.854-2.843,20.372-2.884,20.688-2.9,20.821-2.9,20.784-2.891,20.6-2.863,20.267-2.821,19.811-2.764,19.229-2.7,18.54-2.619,17.744-2.534,16.848-2.435,15.857-2.329,14.777-2.213,13.6-2.091,12.343-1.96,10.992-1.817,9.555-1.67,8.026-1.514,6.4-1.347,4.681-1.172,2.86-.985.929-.741.938.8,2.619,1.01,4.216,1.206L458.6,190.1l7.159,1.573,8.518,1.74,9.8,1.9,11,2.053,12.135,2.2L520.4,201.9l14.165,2.456,15.057,2.574,15.865,2.682,16.584,2.776,17.2,2.86,17.716,2.933,18.115,2.992,18.394,3.036,18.533,3.066,18.529,3.074,18.356,3.066,18.006,3.038,17.461,2.984,16.694,2.9,15.688,2.8,14.417,2.655s8.867,1.687,12.857,2.48c0-1.646.006-2.469.009-4.106-3.99-.829-12.854-2.593-12.854-2.593Z" transform="translate(-6.653 87.879)" fill="#101631"/>
      <path id="Tracé_106" data-name="Tracé 106" d="M166.862,227.595l24.045-3.014,23.181-2.911,22.164-2.8,21.032-2.674,19.8-2.547,18.49-2.411,17.119-2.273,15.684-2.131,14.2-1.987,12.658-1.838,11.052-1.687,9.379-1.529,7.628-1.369,5.774-1.2,3.806-1.024,1.7-.837.63.382,2.457.955,4.374,1.173,6.246,1.39,8.086,1.6,9.9,1.817,11.682,2.031,13.439,2.24,15.16,2.45,16.837,2.656,18.449,2.858,19.98,3.048s14.04,2.127,21.393,3.233c0-2.342,0-3.512,0-5.842-7.35-1.164-21.393-3.4-21.393-3.4l-19.98-3.207-18.451-3.005-16.836-2.794-15.161-2.576-13.44-2.355-11.68-2.133-9.9-1.91-8.084-1.684-6.248-1.458-4.373-1.23-2.459-1-.63-.4-1.7.874-3.806,1.071-5.774,1.26-7.628,1.441-9.379,1.609-11.052,1.776-12.658,1.937-14.2,2.091-15.684,2.248-17.119,2.4-18.49,2.541-19.8,2.686-21.032,2.821-22.164,2.951-23.181,3.071-24.045,3.177-24.721,3.267s-16.731,2.219-25.158,3.342v5.09c8.427-1.064,25.158-3.167,25.158-3.167Z" transform="translate(43.81 92.645)" fill="#101631"/>
      <path id="Tracé_107" data-name="Tracé 107" d="M90.6,238.99v4.867c7.683-.878,23.225-2.638,23.225-2.638l23.371-2.629,23.253-2.6,22.91-2.555,22.382-2.5,21.7-2.424,20.881-2.345,19.952-2.258,18.93-2.164,17.824-2.064,16.644-1.96,15.4-1.853,14.087-1.739,12.708-1.624L375.134,211l9.75-1.38,8.155-1.251,6.469-1.113,4.683-.971,2.781-.822.786-.482,1.209.715,3.013.9,4.763,1.075,6.46,1.25,8.113,1.417,9.724,1.588,11.291,1.751,12.819,1.911,14.3,2.071,15.72,2.225,17.077,2.372,18.349,2.514,19.527,2.649,20.576,2.772,21.475,2.879c0-2.254,0-3.379,0-5.622l-21.475-3.05-20.577-2.932-19.527-2.8L512.247,216l-17.077-2.511-15.721-2.354-14.3-2.192-12.818-2.02-11.294-1.853-9.724-1.675-8.113-1.5-6.459-1.318-4.762-1.133-3.016-.944-1.209-.753-.786.506-2.781.866-4.683,1.025-6.469,1.179-8.155,1.321-9.75,1.464L363.866,205.7l-12.708,1.723-14.087,1.847-15.4,1.966-16.644,2.079-17.824,2.192-18.93,2.3-19.952,2.4-20.881,2.489-21.7,2.576-22.382,2.652-22.91,2.713-23.253,2.76-23.371,2.794S98.287,238.056,90.6,238.99Z" transform="translate(30.712 97.38)" fill="#101631"/>
      <path id="Tracé_108" data-name="Tracé 108" d="M79.189,247.783l-18.846,2.11s-11.983,1.371-17.611,2.032v4.391c5.628-.62,17.611-1.9,17.611-1.9l18.846-1.969,19.769-2.022,20.425-2.055L140.22,246.3l21.041-2.071,21.055-2.064,20.9-2.038,20.6-2.01,20.163-1.969,19.615-1.925,18.952-1.871,18.2-1.811L318.1,228.8l16.427-1.678,15.42-1.6L364.284,224l13.181-1.438,11.945-1.351,10.639-1.257,9.247-1.16,7.773-1.057,6.208-.949,4.548-.834,2.779-.711.9-.54.932.6,2.6.739,4.2.883,5.73,1.016,7.21,1.149,8.63,1.277,9.991,1.4,11.3,1.517,12.544,1.631,13.725,1.739,14.84,1.844,15.883,1.942,16.84,2.032,17.707,2.122,18.467,2.2,19.108,2.261,19.612,2.315,19.962,2.36,20.127,2.388s13.428,1.6,20.092,2.4c0-2.037.006-3.053.009-5.081-6.666-.852-20.094-2.558-20.094-2.558l-20.13-2.549L630.823,235.8l-19.613-2.471L592.1,230.917l-18.469-2.344-17.707-2.258-16.84-2.17L523.2,222.074l-14.841-1.966-13.726-1.856-12.544-1.737L470.8,214.9l-9.991-1.491-8.63-1.359-7.209-1.221-5.733-1.08-4.2-.937-2.6-.786-.932-.632-.9.572-2.779.757-4.548.886-6.208,1.01-7.773,1.128-9.247,1.238-10.639,1.344-11.945,1.443-13.181,1.54-14.338,1.63-15.42,1.714L318.1,222.45l-17.355,1.872-18.2,1.941-18.952,2-19.615,2.062-20.163,2.11-20.6,2.153-20.9,2.185-21.055,2.21L140.22,241.2l-20.838,2.218-20.425,2.2Z" transform="translate(6.942 102.17)" fill="#101631"/>
      <path id="Tracé_109" data-name="Tracé 109" d="M453.365,232.334l14.364,1.606,15.932,1.734,17.444,1.86,18.876,1.983,20.208,2.1s14.09,1.453,21.412,2.2c0-2.364,0-3.548,0-5.907-7.319-.808-21.412-2.372-21.412-2.372l-20.208-2.261-18.877-2.136-17.442-2-15.933-1.868-14.361-1.728-12.746-1.586-11.091-1.446-9.4-1.3-7.677-1.151-5.923-1-4.123-.852-2.281-.7-.572-.23-1.74.627-3.774.759-5.678.877-7.468.992-9.163,1.1-10.775,1.208-12.315,1.309-13.792,1.41-15.208,1.507-16.565,1.6-17.864,1.693-19.094,1.781-20.249,1.869L224.56,235.96l-22.265,2.023-23.087,2.092-23.741,2.152-24.2,2.2s-16.266,1.483-24.4,2.23v5.133c8.137-.688,24.4-2.059,24.4-2.059l24.2-2.026,23.741-1.984,23.087-1.929,22.265-1.868,21.312-1.8,20.249-1.723,19.094-1.646,17.864-1.564,16.565-1.479,15.208-1.39,13.792-1.3,12.315-1.211,10.775-1.118,9.163-1.022,7.468-.92,5.678-.814,3.774-.7,1.74-.59.572.217,2.281.654,4.123.8,5.922.935,7.677,1.072,9.4,1.206,11.089,1.341Z" transform="translate(38.787 107.077)" fill="#101631"/>
      <path id="Tracé_110" data-name="Tracé 110" d="M357.271,229.284l-7.442-1.178-3.491-.877-1.01.1-4.162.832-7.631,1.015-10.91,1.188-14.184,1.38-17.6,1.583-21.258,1.809-25.2,2.062s-18.892,1.51-29.429,2.338v6.314c10.537-.75,29.429-2.124,29.429-2.124l25.2-1.875,21.258-1.646,17.6-1.443,14.184-1.257,10.91-1.091,7.631-.928,4.162-.766,1.01-.093,3.491.813,7.442,1.085L369,237.914s10.124,1.089,16.441,1.724c0-2.788,0-4.181,0-6.96C379.127,231.983,369,230.8,369,230.8Z" transform="translate(92.455 112.018)" fill="#101631"/>
      <path id="Tracé_111" data-name="Tracé 111" d="M87.178,259.344v4.988c7.505-.43,22.722-1.29,22.722-1.29l22.94-1.285,22.9-1.274,22.635-1.256L200.555,258l21.574-1.2,20.832-1.161,19.977-1.119,19.024-1.077,17.99-1.034,16.875-.988,15.7-.94,14.452-.89,13.142-.835,11.767-.786,10.328-.727,8.81-.67,7.212-.611,5.519-.548,3.723-.483,1.808-.413.5.087,2,.443,3.731.534,5.411.62,7.041.7,8.628.787,10.173.868,11.674.95,13.135,1.028,14.543,1.1,15.895,1.179,17.174,1.251,18.373,1.321,19.467,1.386,20.438,1.443,21.254,1.5c0-2.308,0-3.461.008-5.762-7.2-.563-21.258-1.666-21.258-1.666l-20.437-1.607-19.468-1.543-18.373-1.47-17.176-1.395-15.893-1.314-14.545-1.229L458.442,242.6l-11.676-1.057-10.175-.964-8.626-.872-7.041-.78-5.413-.684-3.731-.59-2-.488-.5-.1-1.808.455-3.723.536-5.519.609-7.212.681-8.81.751-10.328.816-11.767.88-13.142.94-14.452,1-15.7,1.057L299.951,245.9l-17.99,1.166-19.024,1.215-19.977,1.265-20.832,1.308-21.574,1.348-22.181,1.384L155.738,255l-22.9,1.438-22.94,1.447S94.683,258.86,87.178,259.344Z" transform="translate(29.011 116.904)" fill="#101631"/>
      <path id="Tracé_112" data-name="Tracé 112" d="M612.1,263.256c-7.477-.468-22.286-1.392-22.286-1.392l-21.836-1.359-21.173-1.321-20.339-1.271L507.1,256.691l-18.283-1.163-17.1-1.107-15.851-1.042-14.536-.98-13.16-.916-11.728-.847-10.248-.78-8.71-.708-7.107-.636-5.435-.566-3.677-.486-1.824-.4-.56.051-2.415.41-4.575.477-6.649.548-8.651.614L346,249.832l-12.474.744-14.3.805-16.076.871-17.786.929-19.431.991-20.987,1.049-22.439,1.1-23.757,1.155-24.91,1.2s-17.107.825-25.857,1.248V265.6c8.75-.361,25.857-1.062,25.857-1.062l24.91-1.027,23.757-.988,22.439-.943,20.987-.9,19.431-.846,17.786-.8,16.076-.745,14.3-.693L346,256.966l10.591-.588,8.651-.531,6.649-.474,4.575-.42,2.415-.361.56-.046,1.824.361,3.677.43,5.434.5,7.109.561,8.707.621,10.25.681,11.73.742,13.159.8,14.534.855,15.851.91,17.1.964,18.282,1.016,19.366,1.063,20.339,1.107,21.173,1.149,21.834,1.184s14.81.8,22.286,1.212C612.1,266.515,612.1,265.429,612.1,263.256Z" transform="translate(59.198 121.863)" fill="#101631"/>
      <path id="Tracé_113" data-name="Tracé 113" d="M470.923,270.211l22.811.886,24.563.941c0-2.406,0-3.61,0-6.012-8.46-.391-24.564-1.14-24.564-1.14l-22.811-1.073-20.929-1-18.968-.926-16.965-.852-14.934-.781-12.891-.708-10.829-.641-8.74-.567-6.6-.5-4.38-.428-2.047-.353-.789.111-3.334.368-6.076.427-8.756.485-11.4.551-14.042.611-16.682.676-19.314.742-21.935.808-24.51.877s-17.593.615-26.984.94V269.9c9.391-.257,26.984-.748,26.984-.748l24.51-.693,21.935-.645,19.314-.593,16.682-.542,14.042-.492,11.4-.447,8.756-.4,6.076-.355,3.334-.31.789-.1,2.047.3,4.379.364,6.6.419,8.737.476,10.83.531,12.891.591,14.934.646,16.965.706,18.967.768Z" transform="translate(84.94 126.832)" fill="#101631"/>
      <path id="Tracé_114" data-name="Tracé 114" d="M369.911,269.186l-16.574-.62-12.417-.528-8.5-.443-4.629-.365-1.178-.088-4.183.329-9.081.388-14.236.455-19.83.528s-16.221.394-25.953.618v6.859c9.732-.147,25.953-.413,25.953-.413l19.83-.364,14.236-.32,9.081-.284,4.183-.254,1.178.072,4.629.287,8.5.34,12.417.4,16.571.462,21.077.537s16.453.4,25.96.622c0-2.659,0-3.993,0-6.648-9.5-.3-25.96-.844-25.96-.844Z" transform="translate(111.512 131.836)" fill="#101631"/>
      <path id="Tracé_115" data-name="Tracé 115" d="M176.383,278.9v6.022c9,.016,26.261.043,26.261.043l24.633.036,22.846.03,20.945.022,18.968.012,16.932,0,14.854-.009,12.744-.017,10.6-.031,8.415-.042,6.179-.057,3.879-.067,1.491-.084.874.073,2.911.093,4.858.093,6.719.094,8.5.1,10.235.1,11.918.1,13.564.1,15.172.109,16.734.109,18.246.115,19.685.12,21.031.123,22.246.126,23.287.133c0-2.317,0-3.472,0-5.787-7.912-.108-23.287-.32-23.287-.32l-22.246-.31-21.031-.295-19.687-.28-18.244-.268-16.737-.254-15.17-.238-13.566-.226-11.918-.212-10.235-.2-8.5-.187-6.716-.172-4.861-.159L366,277.3l-.874-.108-1.491.127-3.879.129-6.179.126-8.415.124-10.6.126-12.744.127-14.854.129-16.932.127-18.968.132-20.945.135-22.846.141-24.633.141Z" transform="translate(73.303 136.824)" fill="#101631"/>
      <path id="Tracé_116" data-name="Tracé 116" d="M553.883,293.639l21.749-.231s14.819-.159,22.337-.236c0-2.23,0-3.345.008-5.575l-22.34.055-21.749.052-20.963.052L512.9,287.8l-18.956.043-17.789.039-16.544.031-15.232.028-13.862.022-12.444.012-10.978.006h-9.463l-7.89-.012-6.257-.015-4.546-.028-2.755-.037s-.816-.057-.866-.04-1.287.039-1.287.039l-3.485.012-5.6-.011-7.634-.036-9.609-.054-11.531-.079-13.4-.1-15.227-.118-17-.138-18.714-.156-20.357-.175-21.906-.189-23.338-.206-24.627-.219-25.721-.229v5.81l25.721.411,24.627.4,23.338.373,21.906.352,20.357.325,18.714.3,17,.269,15.227.238,13.4.21,11.531.175,9.609.144,7.634.114,5.6.076,3.485.041,1.287.006.866.006,2.755-.016,4.546-.034,6.257-.057,7.89-.072,9.461-.093,10.978-.109,12.444-.127,13.862-.141,15.232-.159,16.543-.172,17.788-.187,18.955-.2,20.023-.211Z" transform="translate(63.123 141.297)" fill="#101631"/>
      <path id="Tracé_117" data-name="Tracé 117" d="M514.325,296.211l-5.093.1-20.239.379-18.891.356-17.457.329-15.953.3-14.4.274-12.786.245-11.137.214-9.43.187-7.671.154-5.842.121-3.925.087-1.9.052-.632-.01-2.733-.081-5.091-.132-7.364-.183-9.572-.235-11.73-.28-13.837-.328-15.905-.377-17.922-.42-19.884-.465-21.767-.507-23.554-.549-25.2-.585-26.667-.62v5.937c9.412.284,27.479.835,27.479.835l25.812.786,23.976.733,22.027.678,20.006.618,17.934.561,15.83.5,13.7.44,11.532.379,9.322.317,7.047.253,4.683.187,2.2.117.666-.025,2.665-.121,4.865-.174,7.008-.224,9.106-.274,11.188-.329,13.25-.376,15.3-.428,17.334-.479L470,303.618l21.255-.578,23.079-.621Z" transform="translate(69.013 145.289)" fill="#101631"/>
      <path id="Tracé_118" data-name="Tracé 118" d="M256.972,312.247l22.958,1.061,19.756.932,16.611.8,13.521.679,10.456.56,7.364.437,4.175.311,1.04.1,2.35-.235,5.314-.347,8.249-.453,11.2-.567,14.225-.681,17.324-.8,20.5-.925s15.273-.676,23.712-1.045c0-2.62,0-3.928,0-6.549-8.436.3-23.71.849-23.71.849l-20.5.744-17.324.645-14.224.545-11.2.45-8.247.359-5.316.269-2.35.18-1.04-.078-4.175-.247-7.364-.355-10.456-.456-13.521-.563-16.611-.667-19.756-.775-22.958-.887-26.2-1-29.413-1.113v6.29l29.413,1.327Z" transform="translate(85.705 149.855)" fill="#101631"/>
      <path id="Tracé_119" data-name="Tracé 119" d="M183.6,317c9.689.573,28.012,1.663,28.012,1.663L237.4,320.2l23.451,1.414,21.053,1.29,18.626,1.158,16.2,1.033,13.765.908,11.321.78,8.846.657,6.306.531,3.668.4.979.175,1.764-.3,4.211-.422,6.594-.537,8.951-.658,11.3-.778,13.665-.9,16.046-1.021,18.428-1.146,20.8-1.268s15.034-.908,23.112-1.393c0-2.54,0-3.815,0-6.356l-23.112,1.2-20.8,1.092-18.43.985-16.046.88-13.665.771-11.3.666-8.951.561-6.594.459-4.211.358-1.764.251-.979-.147-3.668-.34-6.306-.456-8.846-.569-11.321-.681-13.765-.792-16.2-.9L281.9,316.093l-21.053-1.127L237.4,313.724l-25.791-1.353L183.6,310.911Z" transform="translate(76.885 153.568)" fill="#101631"/>
      <path id="Tracé_120" data-name="Tracé 120" d="M649.185,318.848l-19.736,1.333-19.5,1.313-19.1,1.287-18.569,1.254-17.913,1.214-17.15,1.167-16.3,1.116L505.558,328.6l-14.349,1-13.271.941-12.132.881-10.934.81-9.681.739-8.367.669-7,.591-5.57.512-4.078.431-2.517.344-.88.256-.929-.251-2.8-.365-4.57-.459-6.251-.552-7.846-.641-9.364-.724-10.812-.8L362.02,331.1l-13.491-.956L333.8,329.115l-15.9-1.091-16.99-1.152L282.9,325.66l-18.936-1.266L244.2,323.077l-20.5-1.357-21.105-1.4L181.021,318.9l-21.891-1.449L137.1,315.985l-21.96-1.464-21.659-1.453S79.3,312.11,72.4,311.639v4.873c6.9.522,21.089,1.583,21.089,1.583l21.659,1.612,21.96,1.621,22.026,1.621,21.891,1.6,21.575,1.58L223.7,327.68l20.5,1.507,19.769,1.456,18.936,1.405,18.006,1.342,16.99,1.28,15.9,1.209,14.729,1.136,13.491,1.063,12.185.979,10.812.9,9.364.807,7.846.715,6.251.617,4.57.518,2.8.409.929.29.88-.293,2.517-.392,4.078-.488,5.57-.579,7-.663,8.369-.753,9.68-.831L465.8,338.4l12.132-.985,13.27-1.06,14.349-1.125,15.359-1.191,16.294-1.253,17.15-1.307,17.912-1.36,18.567-1.4,19.1-1.441,19.5-1.471,19.736-1.494,19.789-1.5s13.14-1,19.631-1.5c0-2.055,0-3.083.009-5.141-6.493.446-19.633,1.336-19.633,1.336Z" transform="translate(21.671 153.93)" fill="#101631"/>
      <path id="Tracé_121" data-name="Tracé 121" d="M445.783,334.74l-18.837,1.651-16.418,1.479-14,1.3L384.937,340.3l-9.192.962-6.784.8-4.341.63-1.835.458-.986-.254-3.734-.585-6.441-.76-9.04-.935-11.573-1.107-14.066-1.278L300.4,336.784l-19.019-1.622L259.9,333.368,235.993,331.4l-26.259-2.137-28.483-2.3v6.024c9.843.862,28.483,2.5,28.483,2.5l26.259,2.329,23.907,2.145,21.478,1.954L300.4,343.68l16.549,1.577,14.066,1.395,11.573,1.209,9.04,1.025,6.441.835,3.734.643.986.281,1.835-.509,4.341-.694,6.782-.878,9.193-1.058,11.591-1.245,14-1.431,16.417-1.622,18.837-1.814,21.23-2.005s15.33-1.432,23.557-2.2c0-2.51,0-3.768.006-6.282-8.229.694-23.56,2-23.56,2Z" transform="translate(75.72 161.536)" fill="#101631"/>
      <path id="Tracé_122" data-name="Tracé 122" d="M548.4,332.937c-8.424.841-24.773,2.469-24.773,2.469l-23.6,2.356-22.241,2.231-20.746,2.1-19.16,1.956-17.514,1.814-15.824,1.672-14.1,1.525-12.333,1.38-10.525,1.233-8.653,1.081-6.694.925-4.618.763-2.384.59-.682-.025-2.932-.639-5.768-.862-8.572-1.085-11.374-1.308-14.175-1.537-16.99-1.764-19.8-1.995-22.581-2.225s-16.42-1.6-25.291-2.451v6.374c8.871.919,25.291,2.637,25.291,2.637l22.581,2.393,19.8,2.146,16.99,1.9,14.175,1.657,11.374,1.41,8.572,1.172,5.768.932,2.932.693.682.025,2.384-.641,4.618-.828,6.693-1,8.653-1.169L378.11,357.5,390.441,356l14.1-1.651,15.821-1.8,17.514-1.96,19.159-2.116,20.748-2.266,22.241-2.412,23.6-2.544s16.348-1.76,24.771-2.668C548.4,336.327,548.4,335.2,548.4,332.937Z" transform="translate(93.506 164.505)" fill="#101631"/>
      <path id="Tracé_123" data-name="Tracé 123" d="M269.573,360.377l20.6,2.571,17.224,2.228,13.909,1.9,10.645,1.58,7.411,1.269,4.151.958,1.028.347,2.215-.775,4.962-1.042,7.583-1.3,10.142-1.559,12.683-1.821,15.238-2.086,17.825-2.36,20.435-2.64,23.043-2.923s16.649-2.091,25.591-3.206c0-2.445,0-3.668,0-6.119-8.943,1.04-25.592,3-25.592,3l-23.042,2.734L415.2,353.6l-17.827,2.206-15.239,1.953-12.685,1.7-10.142,1.458-7.583,1.215-4.961.971-2.216.72-1.028-.32-4.151-.9-7.411-1.188-10.645-1.48L307.4,358.155l-17.224-2.092-20.6-2.411-24.031-2.737s-17.743-1.989-27.461-3.068v6.35c9.718,1.148,27.461,3.267,27.461,3.267Z" transform="translate(94.007 170.693)" fill="#101631"/>
      <path id="Tracé_124" data-name="Tracé 124" d="M503.787,358.441s16.679-2.333,25.354-3.542c0-2.269,0-3.408.006-5.684l-25.356,3.342-23.856,3.155-22.19,2.957-20.42,2.749-18.591,2.54L402,366.286l-14.84,2.119-12.934,1.913-10.992,1.7-9,1.489-6.92,1.275-4.719,1.046-2.348.805-.762-.135-3.343-.913-6.377-1.223-9.41-1.532-12.46-1.85-15.546-2.171-18.668-2.5-21.8-2.836s-16.1-2.058-24.916-3.168v6.4c8.818,1.175,24.916,3.352,24.916,3.352l21.8,3,18.668,2.647L307.9,378l12.46,1.957,9.41,1.624,6.377,1.294,3.343.968.762.145,2.348-.859,4.719-1.109,6.92-1.351,9-1.582,10.99-1.8,12.933-2.029L402,373l16.728-2.471,18.591-2.692,20.42-2.917,22.19-3.135Z" transform="translate(98.42 172.587)" fill="#101631"/>
      <path id="Tracé_125" data-name="Tracé 125" d="M406.833,371.185,387.6,374.234l-16.049,2.644-12.976,2.26-9.973,1.892-6.992,1.534-3.942,1.175-1.016.391-3.018-1.065-6.8-1.491-10.589-1.923-14.474-2.375-18.509-2.848-22.723-3.352s-17.318-2.495-27.083-3.876v6.42c9.765,1.452,27.083,4.075,27.083,4.075l22.723,3.523,18.509,2.995,14.474,2.5,10.589,2.026,6.8,1.567,3.018,1.124,1.016-.413,3.942-1.241,6.99-1.616,9.974-1.993,12.973-2.382,16.05-2.786,19.235-3.212,22.521-3.659s16.689-2.67,25.872-4.12c0-2.474,0-3.714,0-6.2-9.183,1.377-25.872,3.91-25.872,3.91Z" transform="translate(101.64 179.831)" fill="#101631"/>
      <path id="Tracé_126" data-name="Tracé 126" d="M688.833,351.618c-6.041,1.03-18.49,3.123-18.49,3.123l-19.033,3.171L631.983,361.1l-19.4,3.186-19.289,3.156-19.018,3.107-18.6,3.039L537.6,376.555l-17.435,2.866-16.7,2.763-15.9,2.652-15.01,2.529-14.06,2.4-13.045,2.264-11.966,2.122-10.826,1.969-9.623,1.815-8.352,1.651-7.01,1.474-5.583,1.294-4.074,1.1-2.465.9-.762.587-1.2-.742-3.225-.985-5.168-1.22-7.044-1.45-8.859-1.673-10.618-1.89-12.315-2.1-13.957-2.3-15.535-2.507-17.042-2.7-18.472-2.879-19.811-3.053-21.047-3.212-22.158-3.363-23.118-3.494L161.3,367.762l-24.489-3.692v5.35c8.234,1.3,24.489,3.863,24.489,3.863l23.907,3.77,23.118,3.655,22.158,3.517,21.047,3.361,19.811,3.194,18.472,3.009,17.042,2.821,15.535,2.622,13.957,2.412,12.315,2.2,10.618,1.977,8.859,1.752,7.044,1.517,5.168,1.278,3.225,1.031,1.2.775.762-.612,2.465-.941,4.074-1.155,5.583-1.356,7.008-1.546,8.354-1.73,9.621-1.9,10.826-2.064,11.966-2.224,13.045-2.374,14.058-2.517,15.01-2.65,15.895-2.778,16.706-2.9,17.435-3,18.072-3.1,18.6-3.189,19.016-3.255,19.292-3.306,19.4-3.337,19.325-3.346,19.033-3.327s12.45-2.192,18.491-3.273C688.828,354.427,688.83,353.492,688.833,351.618Z" transform="translate(53.656 173.78)" fill="#101631"/>
      <path id="Tracé_127" data-name="Tracé 127" d="M458.548,386.019c0-2.42,0-3.632,0-6.059-8.8,1.6-24.911,4.559-24.911,4.559L411.73,388.6l-18.946,3.619L376.728,395.4l-13.258,2.748-10.525,2.341-7.824,1.944-5.093,1.55-2.252,1.152-1.086-.543-4.352-1.429-7.774-1.892L313.338,398.9l-14.768-2.863-18.442-3.384-22.255-3.927s-16.791-2.9-26.177-4.5V390.5c9.386,1.661,26.177,4.683,26.177,4.683l22.255,4.093,18.442,3.526,14.768,2.981,11.225,2.468,7.774,1.974,4.352,1.489,1.086.564,2.251-1.2,5.093-1.619,7.824-2.026,10.527-2.442,13.256-2.869,16.056-3.312,18.946-3.776,21.908-4.262S449.747,387.688,458.548,386.019Z" transform="translate(100.768 187.853)" fill="#101631"/>
      <path id="Tracé_128" data-name="Tracé 128" d="M375.415,401.148,358.792,404.8l-12.9,3.033L336.5,410.3l-5.974,1.915-2.489,1.386-1.519-.861-5.7-1.85-10.079-2.508-14.7-3.216-19.7-3.985s-15.787-3.075-25.1-4.835v6.414c9.314,1.829,25.1,5.019,25.1,5.019l19.7,4.139,14.7,3.337,10.079,2.6,5.7,1.922,1.519.892,2.489-1.437,5.974-1.995,9.392-2.558,12.9-3.153,16.622-3.8,20.624-4.5s15.868-3.381,24.916-5.272c0-2.478,0-3.72,0-6.212-9.048,1.821-24.916,5.069-24.916,5.069Z" transform="translate(110.472 193.706)" fill="#101631"/>
      <path id="Tracé_129" data-name="Tracé 129" d="M227.8,404.575l-23.849-4.629s-16.662-3.216-25.332-4.885v5.585c8.669,1.727,25.332,5.057,25.332,5.057L227.8,410.5l22.2,4.5,20.438,4.2,18.578,3.881,16.644,3.554,14.654,3.222,12.617,2.884,10.54,2.541,8.422,2.194,6.257,1.842L362.2,440.8l1.758,1.118.642-.491,2.453-1.238,4.27-1.544,5.97-1.832,7.569-2.107,9.085-2.367,10.534-2.622,11.912-2.864,13.238-3.1,14.506-3.328,15.715-3.548,16.866-3.762,17.945-3.964,18.94-4.156,19.835-4.329,20.606-4.488,21.224-4.618,21.649-4.722s14.563-3.188,21.846-4.787c0-1.95,0-2.926.008-4.889-7.285,1.546-21.846,4.62-21.846,4.62l-21.65,4.554-21.224,4.46-20.607,4.329L513.607,399.3,494.665,403.3,476.72,407.13l-16.866,3.629-15.716,3.426L429.632,417.4l-13.238,2.992-11.914,2.763-10.531,2.532-9.088,2.285L377.291,430l-5.97,1.767-4.27,1.491-2.453,1.2-.642.476-1.758-1.082-4.041-1.434-6.257-1.781-8.422-2.119-10.54-2.454-12.617-2.785-14.654-3.114-16.644-3.435-18.578-3.75-20.438-4.057Z" transform="translate(74.415 186.461)" fill="#101631"/>
      <path id="Tracé_130" data-name="Tracé 130" d="M478.733,407.055l-20.869,4.792-19.051,4.436-17.179,4.071-15.273,3.705L393.017,427.4l-11.395,2.975-9.418,2.61-7.4,2.24-5.313,1.866-3.135,1.477-.889.784-1.8-1.233-4.476-1.678-7.07-2.11-9.611-2.537-12.128-2.969-14.627-3.4-17.12-3.831-19.6-4.271-22.054-4.707-24.446-5.138s-17.455-3.637-26.728-5.554v5.682c9.272,1.98,26.728,5.735,26.728,5.735l24.446,5.3L269.03,423.5l19.6,4.407,17.12,3.957,14.627,3.511,12.128,3.062,9.611,2.62,7.07,2.177,4.476,1.728,1.8,1.272.889-.81,3.135-1.524,5.313-1.926,7.4-2.315,9.419-2.7,11.395-3.072,13.345-3.451,15.272-3.83,17.177-4.205,19.054-4.584,20.868-4.954,22.6-5.314s15.883-3.713,24.191-5.649c0-2.179,0-3.27,0-5.464-8.307,1.874-24.19,5.468-24.19,5.468Z" transform="translate(82.945 196.039)" fill="#101631"/>
      <path id="Tracé_131" data-name="Tracé 131" d="M164.782,400.921l-25.127-5.492v5.039c8.475,1.91,25.127,5.658,25.127,5.658l24.377,5.494,23.422,5.29,22.3,5.064,21.053,4.814,19.693,4.545,18.249,4.265,16.728,3.978,15.152,3.672,13.514,3.37,11.827,3.05,10.088,2.73,8.292,2.4,6.431,2.059,4.5,1.709,2.484,1.347.59.379,1.533-1.188,3.306-1.534,4.991-1.865,6.6-2.185,8.153-2.493,9.648-2.8,11.094-3.092,12.492-3.373,13.841-3.654,15.14-3.925L486.668,430l17.557-4.437,18.648-4.675,19.642-4.894,20.511-5.093,21.228-5.262s14.443-3.58,21.761-5.4c0-1.984,0-2.981.006-4.982-7.319,1.764-21.762,5.236-21.762,5.236l-21.228,5.1-20.511,4.939-19.643,4.748-18.648,4.533-17.557,4.3-16.383,4.06-15.143,3.807L441.3,435.531l-12.49,3.273-11.1,3-9.648,2.712-8.153,2.421-6.6,2.121-4.989,1.812-3.306,1.491-1.534,1.155-.59-.368-2.484-1.308-4.5-1.663-6.431-2-8.292-2.332L351.1,443.192l-11.827-2.962-13.514-3.27-15.152-3.568-16.728-3.861-18.249-4.141-19.693-4.413L234.885,416.3l-22.3-4.913-23.422-5.138Z" transform="translate(55.067 195.45)" fill="#101631"/>
      <path id="Tracé_132" data-name="Tracé 132" d="M522.739,417.978l-20.353,5.236-19.115,4.956-17.78,4.656-16.375,4.347L434.2,441.2l-13.409,3.708-11.87,3.375-10.287,3.044-8.669,2.706-7,2.359-5.28,2.008-3.488,1.64-1.609,1.262-.635-.424-2.656-1.444-4.8-1.841-6.86-2.227-8.856-2.605-10.8-2.978-12.7-3.342-14.558-3.7-16.375-4.059L276.2,434.275l-19.865-4.751-21.505-5.087-23.051-5.4-24.467-5.7s-16.954-3.937-25.709-5.965v5.169c8.755,2.085,25.709,6.131,25.709,6.131l24.467,5.857,23.051,5.554,21.505,5.227L276.2,440.2l18.147,4.532,16.375,4.171,14.558,3.806,12.7,3.435,10.8,3.057,8.856,2.677,6.86,2.288,4.8,1.889,2.656,1.48.635.437,1.609-1.3,3.487-1.685,5.28-2.061,7-2.426,8.669-2.781,10.287-3.131,11.867-3.473,13.41-3.81,14.914-4.145,16.375-4.475,17.779-4.79,19.114-5.1,20.356-5.389,21.474-5.657s14.814-3.894,22.43-5.893c0-2.035,0-3.057,0-5.111l-22.431,5.729Z" transform="translate(65.964 201.155)" fill="#101631"/>
      <path id="Tracé_133" data-name="Tracé 133" d="M132.771,407.016l-22.4-5.527s-14.825-3.677-22.125-5.5v4.367c7.3,1.871,22.125,5.643,22.125,5.643l22.4,5.673,22.421,5.649,22.232,5.59,21.864,5.492,21.33,5.364,20.657,5.209,19.86,5.03,18.956,4.834,17.958,4.615,16.87,4.385,15.71,4.138,14.474,3.879,13.175,3.607,11.808,3.324,10.378,3.032,8.88,2.724,7.318,2.4,5.682,2.074,3.973,1.73,2.174,1.366.512.344,1.4-1.226,2.975-1.571,4.476-1.9,5.9-2.218,7.263-2.519,8.563-2.812,9.8-3.09,10.983-3.358,12.108-3.614,13.174-3.857,14.18-4.092,15.122-4.311,15.995-4.516,16.789-4.708,17.5-4.879,18.107-5.034,18.606-5.162,18.976-5.265,19.2-5.337,19.26-5.375,19.13-5.367s12.6-3.563,18.777-5.322c0-1.723,0-2.588.009-4.325-6.173,1.713-18.78,5.181-18.78,5.181l-19.129,5.23-19.262,5.232-19.205,5.2-18.976,5.126-18.606,5.027-18.109,4.9-17.5,4.751-16.79,4.582-15.993,4.4-15.122,4.2-14.183,3.985-13.174,3.758-12.107,3.52-10.983,3.271-9.8,3.01-8.56,2.742-7.266,2.456-5.9,2.163-4.476,1.856-2.977,1.538-1.4,1.2-.512-.337-2.174-1.336-3.973-1.688-5.682-2.023-7.318-2.346-8.88-2.658-10.378-2.956-11.808-3.24-13.175-3.517-14.474-3.782L314.921,452l-16.87-4.273-17.958-4.5-18.956-4.708-19.86-4.9-20.657-5.076-21.33-5.226-21.864-5.352-22.232-5.446Z" transform="translate(29.543 195.811)" fill="#101631"/>
      <path id="Tracé_134" data-name="Tracé 134" d="M752.9,405.928l-17.029,5.027-17.7,5.159-18.15,5.239-18.412,5.278-18.5,5.283-18.43,5.247-18.22,5.187-17.878,5.094-17.419,4.974-16.854,4.835-16.192,4.674-15.437,4.492-14.6,4.291-13.68,4.075-12.688,3.84-11.621,3.6-10.489,3.328-9.283,3.053-8.014,2.763-6.672,2.454-5.263,2.133-3.782,1.8-2.225,1.443-.627.793-1.245-1.206-3.078-1.583-4.814-1.938-6.45-2.276-7.993-2.595-9.446-2.894L399.9,484.311l-12.1-3.45-13.306-3.7-14.424-3.934L344.6,469.071l-16.42-4.359-17.285-4.545-18.06-4.713-18.742-4.865-19.314-5-19.786-5.1-20.131-5.187-20.35-5.245-20.431-5.274-20.351-5.277-20.107-5.241L113.949,409.1,94.91,404.045l-18.175-4.9-17.06-4.69L44,390.026l-13.985-4.1s-8.351-2.547-11.962-3.71v3.569c3.611,1.19,11.962,3.8,11.962,3.8L44,393.782l15.678,4.534,17.06,4.8L94.91,408.14l19.039,5.179,19.673,5.3,20.107,5.371,20.351,5.4,20.431,5.405,20.35,5.373,20.131,5.313,19.786,5.227,19.314,5.118,18.742,4.982,18.06,4.832,17.285,4.657,16.42,4.464,15.467,4.256,14.424,4.033,13.306,3.789,12.1,3.53,10.817,3.255,9.446,2.963,7.993,2.655,6.45,2.327,4.814,1.983,3.078,1.618,1.245,1.23.627-.808,2.225-1.474,3.782-1.838,5.263-2.182,6.672-2.513,8.012-2.827,9.283-3.128,10.489-3.414,11.619-3.683L514.4,480.6l13.68-4.177,14.6-4.4,15.437-4.6,16.191-4.79,16.855-4.957,17.42-5.1,17.878-5.221,18.217-5.316,18.43-5.382,18.5-5.416,18.41-5.411,18.15-5.374,17.7-5.283,17.029-5.156,16.129-4.965s10.2-3.2,14.965-4.72c0-1.532.006-2.3.009-3.851-4.763,1.491-14.967,4.608-14.967,4.608Z" transform="translate(-5.313 188.974)" fill="#101631"/>
      <path id="Tracé_135" data-name="Tracé 135" d="M168.038,434.021l23.144,6.4,22.4,6.206,21.507,5.98,20.487,5.726,19.358,5.453,18.133,5.158L309.9,473.8l15.465,4.53,14.034,4.2,12.544,3.852,11,3.5L372.339,493l7.727,2.754,6,2.363,4.19,1.959,2.3,1.535.545.4,1.455-1.366,3.111-1.77,4.69-2.156,6.2-2.529,7.638-2.887,9.021-3.232,10.354-3.569L447.2,480.61l12.863-4.205L474.1,471.9l15.157-4.8,16.212-5.078,17.2-5.338,18.1-5.582,18.892-5.8,19.578-6,20.119-6.16,20.5-6.279s13.777-4.231,20.675-6.359c0-1.763,0-2.652.008-4.436-6.9,2.076-20.678,6.212-20.678,6.212l-20.5,6.136-20.119,6.016-19.577,5.857-18.9,5.667-18.1,5.452-17.2,5.217-16.213,4.959-15.158,4.69-14.037,4.4L447.2,474.788l-11.632,3.806-10.354,3.49-9.021,3.161-7.638,2.827-6.194,2.474-4.692,2.113-3.111,1.734-1.455,1.341-.545-.4-2.3-1.508-4.19-1.919-6-2.315-7.727-2.694-9.394-3.062-11-3.422L339.4,476.648l-14.034-4.1L309.9,468.117l-16.836-4.742-18.133-5.043L255.577,453l-20.487-5.6-21.507-5.845-22.4-6.065-23.144-6.254-23.7-6.408s-16-4.331-24.046-6.514V420.8c8.047,2.234,24.046,6.665,24.046,6.665Z" transform="translate(45.451 205.78)" fill="#101631"/>
      <path id="Tracé_136" data-name="Tracé 136" d="M103.153,417.328S88.89,413.227,81.9,411.2v4.024c6.992,2.07,21.255,6.255,21.255,6.255l21.638,6.318,21.786,6.324,21.724,6.285,21.48,6.206,21.074,6.088,20.526,5.938,19.856,5.765,19.078,5.563,18.2,5.343,17.234,5.1,16.189,4.846L337,489.827l13.889,4.286,12.64,3.982,11.33,3.669,9.955,3.343,8.521,3,7.016,2.649,5.446,2.275,3.8,1.892,2.074,1.492.488.358,1.353-1.342,2.869-1.726,4.309-2.1,5.679-2.451,6.987-2.791,8.234-3.119,9.422-3.426,10.558-3.725,11.638-4.011,12.661-4.285L499.5,483.26l14.533-4.789,15.374-5.018,16.14-5.23,16.831-5.425,17.433-5.594,17.936-5.744,18.325-5.866,18.59-5.955,18.708-6.012,18.659-6.021,18.427-5.991s12.086-3.954,17.979-5.9c0-1.585,0-2.382.008-3.987-5.893,1.9-17.981,5.775-17.981,5.775l-18.427,5.857-18.66,5.893-18.708,5.878-18.588,5.826L597.753,446.7l-17.939,5.619-17.433,5.474-16.83,5.308-16.143,5.115-15.374,4.909L499.5,477.807l-13.629,4.445-12.661,4.195-11.638,3.927-10.559,3.647-9.422,3.355-8.234,3.05-6.987,2.736-5.679,2.4-4.309,2.058-2.869,1.7-1.353,1.317-.488-.352-2.074-1.465-3.8-1.857-5.446-2.236-7.016-2.6-8.521-2.941-9.955-3.274-11.33-3.595-12.64-3.9L337,484.224l-15.07-4.476-16.189-4.743-17.234-5-18.2-5.229-19.078-5.446-19.856-5.64-20.526-5.811-21.074-5.959-21.48-6.073L146.578,429.7l-21.786-6.191Z" transform="translate(26.389 203.365)" fill="#101631"/>
      <path id="Tracé_137" data-name="Tracé 137" d="M253.67,473.025l22.43,7.047,19.5,6.266,16.635,5.516,13.835,4.792,11.071,4.087,8.3,3.393,5.456,2.692,2.46,1.966.878-.8,3.482-2.314,6.291-3.1,9.13-3.906,12.048-4.738,15.066-5.616,18.189-6.526s13.726-4.823,21.4-7.475c0-2.119,0-3.185,0-5.329-7.676,2.6-21.4,7.324-21.4,7.324l-18.192,6.4-15.066,5.5-12.048,4.65-9.13,3.831-6.291,3.045-3.482,2.278-.878.784-2.46-1.937-5.456-2.646-8.3-3.334-11.071-4.011-13.835-4.7-16.635-5.41-19.5-6.143-22.43-6.908-25.409-7.691s-18.433-5.524-28.38-8.485v4.991c9.947,3.02,28.38,8.656,28.38,8.656Z" transform="translate(84.97 223.39)" fill="#101631"/>
      <path id="Tracé_138" data-name="Tracé 138" d="M207.795,460.846,184.5,453.682l-24.152-7.414s-16.454-5.048-24.8-7.614v4.289c8.12,2.543,24.125,7.55,24.125,7.55l23.51,7.357,22.713,7.116,21.753,6.842,20.672,6.535,19.483,6.206,18.208,5.853,16.863,5.491L318.324,501l13.991,4.719,12.478,4.319,10.917,3.909,9.31,3.485,7.646,3.053,5.922,2.607,4.136,2.149,2.267,1.672.534.43,1.437-1.482,3.075-1.943,4.633-2.383,6.128-2.807,7.562-3.219,8.946-3.614,10.283-4,11.576-4.38,12.827-4.748,14.028-5.1,15.182-5.447,16.278-5.781,17.307-6.1,18.258-6.39,19.109-6.658,19.842-6.9,20.435-7.1s13.853-4.817,20.853-7.254c0-1.684,0-2.532.006-4.237-7.2,2.457-21.444,7.312-21.444,7.312l-21,7.152-20.36,6.942L530.917,465.9l-18.659,6.408-17.641,6.1-16.54,5.771-15.366,5.426-14.133,5.064-12.849,4.693-11.513,4.309-10.128,3.916-8.7,3.509-7.216,3.093-5.672,2.664-4.066,2.218-2.38,1.751-.661.9-1.4-1.462-3.412-1.965-5.34-2.451-7.188-2.917-8.97-3.369-10.69-3.809-12.36-4.24-13.975-4.656-15.532-5.066-17.038-5.461-18.476-5.841-19.838-6.209-21.111-6.553Z" transform="translate(53.026 216.574)" fill="#101631"/>
      <path id="Tracé_139" data-name="Tracé 139" d="M574.044,462.115l20.537-7.4s13.915-5.024,20.939-7.563c0-1.63,0-2.451,0-4.1-7.025,2.493-20.941,7.424-20.941,7.424l-20.535,7.27-19.955,7.068-19.229,6.829-18.379,6.553-17.432,6.251-16.4,5.931-15.3,5.594L453.206,501.2l-12.933,4.874L428.6,510.569l-10.375,4.106-9.026,3.708-7.632,3.3-6.184,2.875L390.7,527l-3.1,1.983-1.45,1.51-.542-.441-2.294-1.706-4.178-2.2-5.985-2.67-7.724-3.129-9.4-3.575-11.022-4.009-12.592-4.428L318.3,503.489l-15.586-5.244-17-5.631-18.35-6.008-19.631-6.365-20.818-6.7-21.9-7.013-22.849-7.294L158.522,451.7l-24.236-7.728v4.154c8.155,2.65,24.236,7.869,24.236,7.869l23.639,7.67,22.849,7.426,21.9,7.143,20.818,6.823,19.631,6.482,18.35,6.115,17,5.73,15.586,5.338,14.117,4.926,12.592,4.508,11.022,4.075,9.4,3.634,7.724,3.179,5.985,2.71,4.178,2.228,2.294,1.724.539.446,1.453-1.523,3.1-2.011,4.677-2.475,6.184-2.92,7.631-3.352,9.027-3.773,10.374-4.178,11.677-4.573,12.934-4.961,14.142-5.334,15.3-5.694,16.4-6.04,17.431-6.369,18.38-6.673,19.229-6.954Z" transform="translate(52.401 219.175)" fill="#101631"/>
      <path id="Tracé_140" data-name="Tracé 140" d="M519.456,496.467l-17.8,6.669-16.46,6.234-15.049,5.781-13.59,5.317-12.087,4.84-10.552,4.359-8.987,3.868-7.394,3.376-5.774,2.873-4.123,2.367L405.2,544l-.72,1.1-1.193-1.441-3.078-1.944-4.835-2.414-6.483-2.857-8.038-3.276-9.509-3.675-10.908-4.06-12.248-4.427-13.524-4.784-14.75-5.127L304,505.644l-17.036-5.778-18.1-6.083-19.088-6.372-20-6.645-20.827-6.9L187.4,466.752l-22.128-7.308-22.553-7.457-22.791-7.559s-15.224-5.067-22.794-7.6v3.71c7.569,2.576,22.794,7.73,22.794,7.73l22.791,7.688,22.553,7.586,22.128,7.433,21.542,7.24,20.827,7.013,20,6.76,19.088,6.481,18.1,6.187L304,510.53l15.921,5.549,14.75,5.214,13.524,4.861,12.248,4.5,10.908,4.123,9.509,3.732,8.038,3.327,6.483,2.894,4.835,2.447,3.078,1.965,1.193,1.453.72-1.11,2.436-1.871,4.123-2.4,5.774-2.915,7.394-3.427,8.987-3.928,10.552-4.431,12.086-4.919,13.588-5.407,15.051-5.881,16.459-6.339,17.8-6.784,19.058-7.2s13.294-5,20.2-7.593c0-1.77,0-2.662,0-4.463-6.911,2.547-20.2,7.462-20.2,7.462Z" transform="translate(33.956 216.09)" fill="#101631"/>
      <path id="Tracé_141" data-name="Tracé 141" d="M74.838,437.372C81.783,439.85,96,444.878,96,444.878l21.61,7.6,21.8,7.622,21.777,7.578,21.563,7.492,21.186,7.352,20.672,7.18,20.035,6.975,19.3,6.742,18.473,6.486,17.569,6.206,16.592,5.913,15.549,5.6,14.444,5.272,13.279,4.93L371.9,542.4l10.756,4.193,9.392,3.8,7.95,3.384,6.428,2.947,4.807,2.487,3.08,2,1.235,1.474.66-1.013,2.314-1.853,3.951-2.383,5.539-2.9,7.088-3.4,8.595-3.9,10.066-4.379L465.251,538l12.881-5.311,14.22-5.759,15.5-6.19,16.715-6.606,17.851-6.99,18.888-7.351,19.809-7.676s13.615-5.268,20.591-7.962c0-1.631,0-2.454,0-4.115-6.975,2.65-20.591,7.83-20.591,7.83l-19.811,7.553L542.42,502.66l-17.849,6.878-16.716,6.5-15.5,6.092-14.219,5.67-12.882,5.229L453.76,537.8l-10.067,4.313-8.6,3.841-7.088,3.352-5.539,2.863-3.951,2.354-2.314,1.838-.66,1-1.235-1.465-3.08-1.975-4.807-2.456L400,548.562l-7.95-3.339-9.392-3.746-10.756-4.13-12.049-4.5-13.279-4.855-14.444-5.19-15.549-5.515-16.592-5.82-17.569-6.11-18.473-6.381-19.3-6.636-20.035-6.863-20.672-7.065-21.186-7.236-21.563-7.37-21.777-7.46-21.8-7.5L96,441.366s-14.212-4.951-21.158-7.387Z" transform="translate(22.884 214.675)" fill="#101631"/>
      <path id="Tracé_142" data-name="Tracé 142" d="M73.313,438.023l-17.732-6.562s-11.228-4.22-16.477-6.23v2.975c5.248,2.041,16.477,6.321,16.477,6.321l17.732,6.66,18.7,6.918,19.405,7.1,19.892,7.219,20.176,7.281L171.763,477l20.227,7.251,20.034,7.171,19.714,7.059,19.281,6.914,18.747,6.736,18.118,6.54,17.408,6.311,16.617,6.065,15.752,5.8,14.817,5.513,13.813,5.2,12.737,4.88,11.6,4.534,10.38,4.171,9.093,3.786,7.725,3.378,6.275,2.948,4.729,2.49,3.089,2.008,1.341,1.492.531-.735,2.038-1.76,3.577-2.275,5.058-2.767,6.487-3.25,7.867-3.708,9.2-4.162,10.474-4.6,11.7-5.012,12.87-5.413,13.983-5.8,15.03-6.157,16-6.5,16.9-6.815,17.7-7.1,18.388-7.351,18.965-7.565,19.4-7.737,19.685-7.857s13.2-5.275,19.787-7.918c0-1.428,0-2.149,0-3.6-6.591,2.6-19.787,7.8-19.787,7.8l-19.685,7.737-19.4,7.616-18.966,7.448-18.391,7.237L564.969,514l-16.894,6.71-16,6.4-15.03,6.065-13.982,5.709-12.87,5.333-11.7,4.94-10.474,4.53-9.2,4.1-7.869,3.663-6.487,3.207L439.4,567.4l-3.577,2.251L433.79,571.4l-.531.733-1.341-1.484-3.089-1.989-4.729-2.466-6.275-2.912-7.725-3.336-9.093-3.735-10.38-4.115-11.6-4.473-12.737-4.811-13.813-5.13-14.817-5.429-15.752-5.714-16.617-5.974-17.408-6.22L269.766,507.9l-18.747-6.637-19.281-6.808L212.024,487.5l-20.034-7.064L171.763,473.3l-20.281-7.179-20.176-7.17-19.892-7.113-19.405-6.995Z" transform="translate(5.141 210.331)" fill="#101631"/>
      <path id="Tracé_143" data-name="Tracé 143" d="M728.766,466.224,710.3,473.8l-18.8,7.667-18.938,7.694-18.9,7.661L634.95,504.4l-18.373,7.439L598.668,519.1l-17.327,7.056-16.635,6.8-15.85,6.526-14.976,6.218-14.015,5.884-12.979,5.525-11.873,5.141-10.694,4.735-9.448,4.308-8.138,3.86-6.764,3.394-5.322,2.9-3.815,2.39-2.236,1.86-.632.971-1.247-1.493-3.08-2.041-4.8-2.562-6.411-3.047-7.929-3.5-9.347-3.934-10.676-4.339-11.921-4.716-13.075-5.072-14.154-5.4-15.142-5.7-16.053-5.986-16.875-6.243-17.61-6.473-18.253-6.682-18.8-6.853-19.25-7-19.588-7.117-19.808-7.2L184.04,484.07l-19.86-7.245-19.669-7.206L125.2,462.5l-18.771-6.969L88.4,448.764l-17.08-6.5L55.434,436.1l-14.425-5.747-12.677-5.244-10.607-4.645s-5.9-2.757-8.186-3.939v2.625c2.282,1.2,8.186,3.982,8.186,3.982l10.607,4.7,12.677,5.311,14.425,5.822,15.884,6.248L88.4,451.8l18.033,6.865,18.771,7.07,19.308,7.216,19.669,7.309,19.86,7.351,19.905,7.348,19.808,7.3,19.588,7.221,19.25,7.1,18.8,6.954,18.253,6.778,17.61,6.565,16.875,6.33,16.053,6.071,15.142,5.786,14.154,5.474,13.075,5.139,11.921,4.778,10.676,4.394,9.347,3.982,7.929,3.545,6.411,3.081,4.8,2.584,3.08,2.058,1.247,1.5.632-.976,2.236-1.871,3.815-2.414,5.322-2.935,6.761-3.43,8.141-3.91,9.448-4.364,10.694-4.8,11.872-5.212,12.979-5.6,14.015-5.968,14.976-6.306L564.7,537.2l16.637-6.9,17.324-7.158,17.91-7.373,18.373-7.548,18.709-7.688,18.9-7.771,18.938-7.809,18.8-7.779,18.464-7.691,17.911-7.526s11.574-4.907,17.122-7.284c0-1.2,0-1.812.006-3.042-5.546,2.344-17.12,7.182-17.12,7.182Z" transform="translate(-9.539 206.007)" fill="#101631"/>
      <path id="Tracé_144" data-name="Tracé 144" d="M99.475,459.463l20.339,7.812,20.6,7.863L161.069,483l20.555,7.8,20.3,7.694,19.922,7.553,19.428,7.373,18.835,7.168,18.157,6.93,17.4,6.674,16.565,6.4,15.672,6.1,14.709,5.781,13.689,5.444L368.9,563l11.465,4.726,10.257,4.334,8.985,3.928,7.638,3.5,6.212,3.045,4.7,2.564,3.092,2.053,1.378,1.516.5-.642,1.956-1.764,3.482-2.311,4.961-2.845,6.395-3.363,7.786-3.864,9.139-4.358,10.446-4.834,11.715-5.3,12.936-5.748,14.1-6.182,15.214-6.6,16.255-6.986,17.219-7.354,18.094-7.689,18.858-7.988,19.5-8.241,20-8.449c0-1.4,0-2.1,0-3.529l-20,8.333-19.5,8.128-18.861,7.878-18.093,7.584L537.52,529.8l-16.257,6.891L506.053,543.2l-14.1,6.1-12.934,5.676L467.3,560.206l-10.447,4.775-9.139,4.307-7.786,3.822-6.393,3.325-4.962,2.818-3.482,2.294-1.956,1.76-.5.639-1.378-1.512-3.092-2.043-4.7-2.541-6.212-3.016-7.638-3.46-8.985-3.883-10.257-4.285L368.9,558.54,356.3,553.507,342.61,548.13,327.9,542.424l-15.672-6.018L295.664,530.1l-17.4-6.588-18.157-6.838L241.274,509.6l-19.428-7.275-19.922-7.448-20.3-7.589-20.555-7.694-20.658-7.751-20.6-7.759-20.339-7.706-19.865-7.59s-12.909-4.971-19.135-7.393v2.885c6.226,2.456,19.135,7.492,19.135,7.492Z" transform="translate(15.752 218.357)" fill="#101631"/>
      <path id="Tracé_145" data-name="Tracé 145" d="M90.324,459.984l18.965,7.532,19.453,7.668L148.5,482.93l19.883,7.766,19.859,7.736,19.7,7.665,19.417,7.553,19.025,7.409,18.534,7.231,17.957,7.026,17.3,6.794,16.559,6.543,15.751,6.266,14.874,5.97,13.933,5.649,12.923,5.311,11.852,4.953,10.714,4.573,9.5,4.175L414.5,589.3l6.865,3.3,5.425,2.83,3.894,2.328,2.269,1.8.6.808,1.092-1.446,2.6-2,4.062-2.541,5.473-3.065,6.83-3.572,8.14-4.06,9.4-4.534,10.618-4.99,11.784-5.431,12.9-5.852,13.949-6.254,14.94-6.633,15.863-6.99,16.7-7.318,17.457-7.613,18.109-7.875,18.648-8.095,19.054-8.27,19.31-8.388s12.937-5.63,19.4-8.448c0-1.245,0-1.88.006-3.155-6.459,2.781-19.4,8.336-19.4,8.336l-19.311,8.28-19.055,8.161-18.648,7.99-18.109,7.771-17.458,7.517-16.7,7.222-15.863,6.9-14.94,6.549-13.949,6.178-12.9,5.778-11.782,5.367-10.619,4.933-9.4,4.484-8.14,4.018-6.83,3.535-5.473,3.039-4.062,2.526-2.6,1.993-1.092,1.444-.6-.81-2.269-1.788-3.894-2.315-5.425-2.808-6.865-3.273-8.222-3.711-9.5-4.129L386.058,572.5l-11.852-4.9-12.923-5.251L347.35,556.77l-14.874-5.895-15.751-6.187-16.559-6.462-17.3-6.709-17.957-6.938-18.534-7.14-19.025-7.314-19.417-7.457-19.7-7.566-19.859-7.635L148.5,479.8l-19.756-7.647-19.453-7.573-18.965-7.439-18.258-7.237L54.76,442.951S43.8,438.487,38.674,436.36v2.592c5.126,2.149,16.086,6.667,16.086,6.667l17.306,7.041Z" transform="translate(4.927 215.857)" fill="#101631"/>
      <path id="Tracé_146" data-name="Tracé 146" d="M584.873,519.029l20.254-9.017c0-1.306,0-1.968,0-3.31-6.856,3.013-20.254,8.906-20.254,8.906l-19.53,8.6-18.672,8.255-17.7,7.861-16.628,7.439-15.48,6.981L482.6,561.258l-13,6.013-11.677,5.5-10.317,4.981L438.7,582.2l-7.478,3.89-6,3.33-4.482,2.755-2.926,2.164-1.317,1.559-.54-.56-2.215-1.811-3.933-2.382-5.546-2.915L397.2,584.8,388.71,580.9l-9.846-4.356-11.131-4.795-12.349-5.208-13.511-5.6-14.608-5.98-15.649-6.342-16.628-6.682-17.544-7.005-18.388-7.3-19.155-7.58-19.833-7.827-20.413-8.042-20.872-8.222-21.2-8.358-21.363-8.442-21.348-8.466-21.119-8.422s-13.871-5.563-20.643-8.3v2.692c6.772,2.766,20.643,8.4,20.643,8.4l21.119,8.521,21.348,8.569,21.363,8.544,21.2,8.46,20.872,8.324,20.413,8.141,19.833,7.924,19.155,7.671,18.388,7.39,17.544,7.089,16.628,6.76,15.649,6.417,14.608,6.05,13.511,5.666,12.349,5.265,11.131,4.841,9.846,4.4,8.491,3.94,7.061,3.452,5.546,2.938,3.933,2.393,2.215,1.812.54.558,1.317-1.558,2.926-2.173,4.482-2.77,6-3.357L438.7,586.4l8.915-4.484,10.317-5.031,11.676-5.566,13-6.083,14.268-6.585,15.479-7.067,16.628-7.527,17.7-7.959,18.671-8.353Z" transform="translate(22.028 224.599)" fill="#101631"/>
      <path id="Tracé_147" data-name="Tracé 147" d="M162.24,496.769l22.7,9.262L206.9,515l21.11,8.638,20.148,8.274,19.1,7.878,17.993,7.463,16.828,7.037,15.615,6.589,14.356,6.134,13.057,5.664,11.709,5.181,10.31,4.684,8.849,4.166,7.316,3.629L389,593.4l3.979,2.462,2.137,1.826.5.223,1.643-1.722,3.391-2.415,5.111-3.1,6.806-3.78,8.484-4.46,10.148-5.127,11.794-5.8,13.422-6.463,15.024-7.121,16.585-7.764,18.09-8.39s12.785-5.893,19.515-8.985c0-1.36,0-2.049,0-3.447-6.731,3.056-19.515,8.885-19.515,8.885l-18.091,8.292-16.585,7.68-15.024,7.046-13.424,6.395L431.2,573.38l-10.148,5.084-8.484,4.419-6.806,3.752-5.111,3.086-3.391,2.406-1.643,1.725-.5-.224-2.137-1.827L389,589.347l-5.7-3.044-7.316-3.6-8.849-4.132-10.31-4.642L345.11,568.8l-13.057-5.607-14.356-6.07L302.082,550.6l-16.828-6.959-17.993-7.381-19.1-7.791-20.148-8.177-21.11-8.542-21.965-8.868-22.7-9.159-23.265-9.394s-15.72-6.354-23.632-9.56v2.83c7.912,3.244,23.632,9.672,23.632,9.672Z" transform="translate(42.995 234.926)" fill="#101631"/>
      <path id="Tracé_148" data-name="Tracé 148" d="M113.758,480.485c7.632,3.2,22.847,9.561,22.847,9.561l22.605,9.44,22.164,9.245,21.56,9,20.82,8.705,19.971,8.37,19.024,8.006,18,7.614,16.908,7.2,15.754,6.764,14.551,6.315,13.3,5.847,12,5.365,10.652,4.871,9.252,4.355,7.8,3.824,6.281,3.273,4.69,2.7,3.022,2.092,1.256,1.455.575-.842,2.107-1.842,3.64-2.468,5.121-3.071,6.558-3.659,7.96-4.235,9.322-4.8,10.655-5.349,11.948-5.887,13.21-6.414L481.731,559l15.594-7.418,16.7-7.891,17.743-8.333s1.455-.682,2.176-1.019v-2.918c-1.791.735-3.595,1.476-5.512,2.258-6.8,3.158-19.738,9.183-19.738,9.183l-18.31,8.581-16.8,7.944-15.235,7.287-13.623,6.618-11.983,5.937-10.317,5.253-8.638,4.563-6.939,3.87-5.226,3.171-3.485,2.468-1.715,1.753-.5-.15-2.116-1.821-3.99-2.481-5.738-3.1-7.376-3.683-8.933-4.237-10.413-4.77-11.83-5.28L332.336,569l-14.509-6.257-15.776-6.727-17-7.18-18.174-7.617-19.29-8.041-20.336-8.44-21.3-8.809L183.8,506.782l-22.868-9.439-23.416-9.671s-15.811-6.54-23.762-9.837Z" transform="translate(42.208 236.451)" fill="#101631"/>
      <path id="Tracé_149" data-name="Tracé 149" d="M129.066,490.309l21.6,9.226,21.441,9.142,21.114,8.993,20.643,8.8,20.046,8.553,19.344,8.27,18.542,7.957,17.663,7.611,16.707,7.242,15.688,6.847,14.606,6.432,13.464,6,12.267,5.543,11.017,5.067,9.7,4.575,8.334,4.06,6.9,3.521,5.391,2.959,3.807,2.367,2.134,1.746.518.527,1.25-1.464,2.764-2.094,4.22-2.7,5.621-3.291,6.978-3.861,8.286-4.412,9.548-4.946,10.772-5.467,11.95-5.968,13.083-6.451,14.16-6.916,15.185-7.361,16.145-7.776,17.03-8.164,17.831-8.518,18.53-8.831,19.112-9.1,19.557-9.31s13.2-6.288,19.841-9.455c0-1,0-1.518,0-2.558-6.642,3.137-19.841,9.359-19.841,9.359l-19.557,9.213-19.112,9-18.531,8.743-17.831,8.43-17.031,8.081-16.144,7.7-15.185,7.288-14.162,6.851-13.081,6.392-11.951,5.913-10.772,5.422-9.548,4.907-8.286,4.38-6.978,3.836-5.621,3.277-4.22,2.7-2.764,2.1L410,612.156l-.518-.531-2.134-1.755-3.807-2.366-5.391-2.948-6.9-3.5-8.334-4.033-9.7-4.54-11.017-5.027-12.267-5.5-13.464-5.944-14.606-6.372-15.688-6.782-16.707-7.171L271.8,548.148l-18.542-7.876-19.344-8.186-20.046-8.469L193.22,514.91l-21.114-8.9-21.441-9.048-21.6-9.132L107.5,478.679S93.224,472.6,86.192,469.6v2.3c7.032,3.038,21.308,9.174,21.308,9.174Z" transform="translate(28.521 232.36)" fill="#101631"/>
      <path id="Tracé_150" data-name="Tracé 150" d="M655.236,505.97l-18.527,8.922L618.37,523.71l-18.014,8.662-17.571,8.455-17.021,8.206-16.379,7.921-15.657,7.6-14.86,7.249-14,6.871-13.075,6.472-12.1,6.049-11.071,5.6-10,5.144-8.874,4.663-7.706,4.162-6.489,3.644-5.223,3.107-3.907,2.548-2.534,1.968-1.107,1.363-.528-.624-2.1-1.7-3.675-2.294-5.172-2.858-6.6-3.4-7.946-3.909-9.235-4.4-10.456-4.865-11.622-5.311-12.729-5.735-13.776-6.137-14.765-6.521-15.69-6.878-16.553-7.215-17.345-7.528-18.065-7.81-18.7-8.065-19.242-8.286L198.9,521.4l-20.013-8.609-20.211-8.705-20.267-8.746-20.155-8.725-19.866-8.638L79.027,469.5s-12.569-5.531-18.63-8.219v1.977c6.061,2.71,18.63,8.292,18.63,8.292l19.365,8.55,19.866,8.716,20.155,8.809,20.267,8.829,20.211,8.788,20.013,8.695,19.684,8.551,19.242,8.364,18.7,8.143,18.065,7.885,17.345,7.6,16.553,7.282,15.69,6.941,14.765,6.579,13.776,6.188,12.729,5.783,11.622,5.352,10.456,4.9,9.235,4.43,7.946,3.93,6.6,3.411,5.172,2.866,3.675,2.291,2.1,1.691.528.615,1.107-1.35,2.534-1.963,3.907-2.55,5.223-3.117,6.489-3.664,7.706-4.189,8.874-4.695,10-5.184,11.071-5.651,12.1-6.1,13.075-6.529,14-6.933,14.859-7.316,15.657-7.671,16.381-8,17.021-8.285L600.354,535l18.014-8.747,18.338-8.906,18.527-9.008L673.8,499.3s12.327-6.021,18.424-9.011c0-.862,0-1.3,0-2.2-6.1,2.96-18.422,8.922-18.422,8.922Z" transform="translate(15.713 228.232)" fill="#101631"/>
      <path id="Tracé_151" data-name="Tracé 151" d="M131.676,497.613l21.426,9.5,21.231,9.4,20.877,9.237,20.387,9.021,19.777,8.764L254.439,552l18.262,8.132,17.384,7.774,16.435,7.384,15.423,6.975,14.352,6.543,13.228,6.091,12.05,5.616,10.818,5.129,9.53,4.612,8.188,4.082,6.779,3.524,5.305,2.942,3.753,2.33,2.119,1.69.522.537,1.193-1.371,2.674-2.026,4.1-2.656,5.479-3.265,6.8-3.855,8.093-4.43,9.337-4.985,10.54-5.524,11.7-6.046,12.821-6.55,13.892-7.037,14.91-7.5L526,562.181l16.755-8.343,17.563-8.722,18.274-9.051,18.874-9.338,19.346-9.57s13.074-6.471,19.661-9.735c0-.861,0-1.3,0-2.2-6.588,3.234-19.663,9.647-19.663,9.647l-19.344,9.48L578.6,533.6l-18.274,8.972-17.563,8.641L526,559.483l-15.866,7.867-14.911,7.436-13.891,6.977-12.822,6.5-11.7,6-10.542,5.485-9.337,4.954-8.093,4.4-6.8,3.839-5.479,3.257-4.1,2.656-2.674,2.032-1.193,1.389-.522-.545-2.119-1.7-3.753-2.336-5.305-2.938-6.779-3.511-8.187-4.062-9.53-4.587L361.572,597.5l-12.05-5.579-13.228-6.044-14.352-6.49-15.423-6.918-16.435-7.324L272.7,557.44l-18.262-8.062-19.066-8.389L215.6,532.3l-20.387-8.942-20.877-9.154L153.1,504.892l-21.426-9.412-21.435-9.442s-14.215-6.278-21.231-9.389v1.966c7.016,3.137,21.231,9.473,21.231,9.473Z" transform="translate(29.92 235.862)" fill="#101631"/>
      <path id="Tracé_152" data-name="Tracé 152" d="M81.3,477.479c6.728,3.068,20.429,9.289,20.429,9.289l20.764,9.4L143.39,505.6l20.832,9.386,20.607,9.277,20.242,9.109,19.757,8.9,19.161,8.641,18.475,8.348,17.7,8.023,16.857,7.668,15.945,7.287,14.974,6.884,13.942,6.459,12.861,6.013,11.724,5.548L377,612.2l9.289,4.551,7.985,4.018,6.621,3.469,5.19,2.885,3.684,2.278,2.1,1.639.53.569,1.118-1.288,2.556-1.938,3.939-2.567,5.272-3.171,6.559-3.759,7.8-4.327,9-4.876,10.161-5.408,11.278-5.923,12.354-6.416,13.379-6.894,14.356-7.347,15.274-7.777,16.13-8.177,16.909-8.547,17.6-8.879,18.2-9.163,18.677-9.4,19.024-9.579s12.8-6.449,19.215-9.689c0-.763,0-1.157,0-1.959-6.419,3.21-19.215,9.606-19.215,9.606l-19.025,9.5-18.678,9.323-18.2,9.086-17.6,8.8-16.911,8.475-16.13,8.111-15.275,7.714-14.356,7.29-13.379,6.842-12.352,6.371-11.279,5.883L448.649,606.9l-9,4.85-7.8,4.306-6.559,3.744-5.272,3.168-3.939,2.571-2.556,1.948-1.118,1.306-.53-.579-2.1-1.654-3.684-2.284-5.19-2.887-6.621-3.457-7.985-4L377,609.4l-10.533-5.03-11.724-5.512-12.861-5.971-13.942-6.413-14.974-6.832-15.945-7.233L280.166,564.8l-17.7-7.956-18.475-8.277L224.828,540l-19.757-8.823-20.242-9.032-20.607-9.2-20.832-9.308L122.5,494.278l-20.764-9.325s-13.7-6.172-20.429-9.214Z" transform="translate(26.095 235.41)" fill="#101631"/>
      <path id="Tracé_153" data-name="Tracé 153" d="M654.191,515.518l-18.5,9.4-18.3,9.289-17.97,9.123-17.524,8.9-16.972,8.634L548.6,569.185l-15.606,7.981-14.808,7.6-13.948,7.2-13.026,6.766-12.054,6.309L468.13,610.88l-9.955,5.335-8.837,4.814-7.67,4.277-6.458,3.717-5.2,3.134-3.886,2.532-2.52,1.9-1.1,1.253-.53-.569-2.1-1.616-3.666-2.257-5.157-2.869-6.573-3.45-7.92-4-9.2-4.533-10.423-5.034L365.367,608l-12.686-5.973-13.729-6.407L324.235,588.8,308.6,581.6l-16.5-7.566-17.292-7.9-18.012-8.205-18.648-8.479-19.194-8.717-19.639-8.91-19.971-9.063-20.175-9.162-20.236-9.2-20.137-9.181-19.853-9.084-19.364-8.9S67,471.414,60.93,468.6v1.456c6.065,2.836,18.642,8.687,18.642,8.687l19.364,8.966,19.853,9.15,20.137,9.253,20.236,9.275,20.175,9.234,19.971,9.135,19.639,8.982,19.194,8.786,18.648,8.544,18.012,8.27,17.292,7.963,16.5,7.62,15.639,7.257,14.717,6.866,13.729,6.449,12.686,6.01,11.582,5.546,10.423,5.061,9.2,4.549,7.92,4.017,6.573,3.453,5.157,2.866,3.666,2.249,2.1,1.6.53.555,1.1-1.226,2.52-1.893,3.886-2.526,5.2-3.135,6.458-3.725,7.67-4.294,8.837-4.838,9.955-5.364,11.028-5.868,12.054-6.353,13.026-6.815,13.946-7.248,14.808-7.661L548.6,571.4l16.33-8.391,16.972-8.7,17.523-8.975,17.97-9.195,18.3-9.364,18.494-9.471,18.539-9.51s12.313-6.329,18.407-9.469c0-.636,0-.967,0-1.643-6.094,3.116-18.409,9.4-18.409,9.4Z" transform="translate(15.978 231.863)" fill="#101631"/>
    </g>
  </g>
</svg>
