<svg xmlns="http://www.w3.org/2000/svg" width="50" height="44.444" viewBox="0 0 50 44.444">
  <g id="Groupe_1114" data-name="Groupe 1114" transform="translate(-599 -974)">
    <rect id="Rectangle_77" data-name="Rectangle 77" width="50" height="44.444" transform="translate(599 974)" fill="#3b5998"/>
    <path id="facebook25" d="M85.378,15.021V12.614a5.285,5.285,0,0,1,.051-.839,1.632,1.632,0,0,1,.229-.585.935.935,0,0,1,.576-.4,4.1,4.1,0,0,1,1.06-.11H89.7V5.866H85.853q-3.341,0-4.8,1.585A6.677,6.677,0,0,0,79.6,12.122v2.9H76.714v4.815H79.6V33.807h5.782V19.837h3.849l.509-4.815Z" transform="translate(540.285 976.594)" fill="#fff"/>
  </g>
</svg>
